<svg
  viewBox="0 0 512 512"
  xmlns="http://www.w3.org/2000/svg"
  xmlns:xlink="http://www.w3.org/1999/xlink"
>
  <circle cx="256" cy="256" r="256" fill="#fff"></circle>
  <circle cx="256" cy="256" r="240" fill="#00ADEE"></circle>
  <path
    d="M102 363l13-15c8 7 17 10 26 10 7 0 10-2 10-6 0-3-3-5-14-8-17-4-31-9-31-25v-1c0-15 12-26 32-26 14 0 25 4 34 11l-12 16c-7-5-15-8-23-8-5 0-8 2-8 5 0 4 3 6 14 8 19 5 31 11 31 26 0 17-13 27-33 27-15 0-29-5-39-14M206 293h22l35 83h-24l-6-15h-32l-6 15h-24l35-83zm20 50l-9-23-9 23h18zM269 294h65v19h-43v14h39v19h-39v30h-22v-82zM340 294h66v19h-44v12h40v18h-40v13h44v20h-66v-82zM128 152h10l6 19 7-19h8l6 19 6-19h10l-12 34h-8l-7-20-6 20h-8l-12-34zM183 152h28v8h-18v5h16v7h-16v6h18v8h-28v-34zM214 166c3-1 5-2 5-5h-4v-9h9v7c0 8-4 10-10 10v-3zM227 152h16c5 0 9 1 11 3s3 5 3 8c0 6-2 9-7 11l8 11h-10l-7-10h-4v10h-10v-33zm16 16c3 0 5-2 5-4 0-3-2-4-5-4h-6v8h6zM262 152h27v8h-18v5h16v7h-16v6h18v8h-27v-34zM71 240c0-24 18-42 43-42 17 0 28 7 35 17l-17 13c-5-6-10-10-18-10-12 0-20 10-20 22 0 13 8 22 20 22 8 0 13-4 18-10l17 12c-7 11-18 19-36 19-23 0-42-18-42-43M149 240c0-23 19-42 45-42 25 0 44 18 44 42s-19 43-45 43c-25 0-44-19-44-43zm65 0c0-12-8-22-21-22-12 0-20 10-20 22s8 22 21 22c12 0 20-10 20-22zM353 199h-23v82h23v-82zM363 199h32c29 0 46 17 46 41s-17 41-47 41h-31v-82zm32 62c14 0 23-7 23-21 0-13-9-21-23-21h-9v42h9z"
    fill="#fff"
  ></path>
  <path
    d="M342 80l-63 168-18-49h-26l33 82h25l72-201h-23z"
    fill="#E2183D"
  ></path>
</svg>
