<svg xmlns="http://www.w3.org/2000/svg" fill="none" viewBox="0 0 1095 768">
  <g clip-path="url(#clip0)">
    <path
      fill="#5588EB"
      d="M283.37 205.76l-52.33-55.2c-115.58 121.96-115.58 319.7 0 441.67l52.33-55.21c-86.7-91.48-86.7-239.79 0-331.26z"
    />
    <path
      fill="#5F9EFF"
      d="M649.62 150.55c-115.59-121.96-302.99-121.96-418.58 0l52.33 55.21c86.69-91.47 227.24-91.47 313.93 0s86.69 239.78 0 331.26l52.32 55.2c115.59-121.96 115.59-319.7 0-441.67z"
    />
    <path
      fill="#5588EB"
      d="M283.37 537.02l-52.33 55.2c115.6 121.97 303 121.97 418.58 0l-52.32-55.2c-86.69 91.47-227.24 91.47-313.93 0z"
    />
    <path
      fill="#D9DFEC"
      d="M335.69 481.8l-52.32 55.22c86.69 91.47 227.24 91.47 313.93 0l-52.32-55.21c-57.8 60.98-151.5 60.98-209.3 0z"
    />
    <path
      fill="#D9DFEC"
      d="M335.69 260.97l-52.32-55.21c-86.7 91.47-86.7 239.78 0 331.26l52.32-55.21c-57.8-60.99-57.8-159.86 0-220.84z"
    />
    <path
      fill="#F7F7F7"
      d="M597.3 205.76c-86.69-91.47-227.24-91.47-313.93 0l52.32 55.2c57.8-60.97 151.5-60.97 209.29 0 57.8 61 57.8 159.86 0 220.85L597.3 537c86.69-91.47 86.69-239.78 0-331.25z"
    />
    <path
      fill="#5588EB"
      d="M388.01 426.6l-52.32 55.2c57.8 60.99 151.5 60.99 209.29 0l-52.32-55.2c-28.9 30.49-75.75 30.49-104.65 0z"
    />
    <path
      fill="#5F9EFF"
      d="M544.98 260.97c-57.8-60.98-151.5-60.98-209.3 0l52.33 55.2c28.9-30.48 75.75-30.48 104.65 0 28.9 30.5 28.9 79.94 0 110.43l52.32 55.2c57.8-60.98 57.8-159.85 0-220.83z"
    />
    <path
      fill="#5588EB"
      d="M335.69 481.8L388 426.6c-28.9-30.5-28.9-79.93 0-110.42l-52.32-55.21c-57.8 60.98-57.8 159.85 0 220.84z"
    />
    <path
      fill="#F7F7F7"
      d="M492.66 316.18c-28.9-30.5-75.75-30.5-104.65 0l52.32 55.2 52.33 55.22c28.9-30.5 28.9-79.93 0-110.42z"
    />
    <path
      fill="#D9DFEC"
      d="M388.01 316.18c-28.9 30.5-28.9 79.93 0 110.42l52.32-55.21-52.32-55.21z"
    />
    <path
      fill="#D9DFEC"
      d="M492.66 426.6l-52.33-55.21-52.32 55.2c28.9 30.5 75.75 30.5 104.65 0zM146.12 696.03h-49l164.19 173.24h49L146.1 696.03z"
    />
    <path fill="#F7F7F7" d="M49 541.85H0l310.3 327.42h49L49 541.85z" />
    <path fill="#D9DFEC" d="M408.3 869.27L98 541.85H49l310.3 327.42h49z" />
    <path
      fill="#F7F7F7"
      d="M457.29 869.27l-310.3-327.42h-49l310.3 327.42h49z"
    />
    <path
      fill="#D9DFEC"
      d="M506.28 869.27l-310.3-327.42h-49l310.3 327.42h49z"
    />
    <path
      fill="#F7F7F7"
      d="M555.28 869.27l-310.3-327.42h-49l310.3 327.42h49z"
    />
    <path
      fill="#D9DFEC"
      d="M604.27 869.27l-310.3-327.42h-49l310.3 327.42h49z"
    />
    <path
      fill="#F7F7F7"
      d="M653.27 869.27l-310.3-327.42h-49l310.3 327.42h49z"
    />
    <path fill="#F7F7F7" d="M293.97 541.85l310.3 327.42-310.3-327.42z" />
    <path
      fill="#D9DFEC"
      d="M702.26 869.27l-310.3-327.42h-49l310.3 327.42h49z"
    />
    <path
      fill="#F7F7F7"
      d="M440.96 541.85h-49l310.3 327.42h49l-310.3-327.42z"
    />
    <path
      fill="#D9DFEC"
      d="M800.25 869.27l-310.3-327.42h-49l310.3 327.42h49z"
    />
    <path
      fill="#F7F7F7"
      d="M849.25 869.27l-310.3-327.42h-49l310.3 327.42h49z"
    />
    <path
      fill="#D9DFEC"
      d="M587.95 541.85h-49l310.3 327.42h49l-310.3-327.42z"
    />
    <path
      fill="#F7F7F7"
      d="M947.24 869.27l-310.3-327.42h-49l310.3 327.42h49z"
    />
    <path
      fill="#D9DFEC"
      d="M996.24 869.27l-310.3-327.42h-49l310.3 327.42h49z"
    />
    <path
      fill="#F7F7F7"
      d="M734.93 541.85h-49l310.3 327.42h49l-310.3-327.42z"
    />
    <path
      fill="#D9DFEC"
      d="M1094.23 869.27l-310.3-327.42h-49l310.3 327.42h49z"
    />
    <path
      fill="#F7F7F7"
      d="M97.17 644.28l-.05 51.75-94.27-99.5-2.8-54.68 97.12 102.43z"
    />
    <path fill="#C3CFE6" d="M195.16 644.28l-49 51.7h-49l49-51.7h49z" />
    <path fill="#D9DFEC" d="M244.15 644.28l-49 51.7h-48.99l49-51.7h49z" />
    <path fill="#C3CFE6" d="M293.15 644.28l-49 51.7h-49l49-51.7h49z" />
    <path fill="#D9DFEC" d="M342.14 644.28l-48.99 51.7h-49l49-51.7h49z" />
    <path fill="#C3CFE6" d="M391.14 644.28l-49 51.7h-48.99l49-51.7h49z" />
    <path fill="#D9DFEC" d="M440.14 644.28l-49 51.7h-49l49-51.7h49z" />
    <path fill="#C3CFE6" d="M489.13 644.28l-49 51.7h-48.99l49-51.7h49z" />
    <path fill="#D9DFEC" d="M538.13 644.28l-49 51.7h-49l49-51.7h49z" />
    <path fill="#C3CFE6" d="M538.13 644.28h49l-49 51.7h-49l49-51.7z" />
    <path fill="#D9DFEC" d="M636.12 644.28l-49 51.7h-49l49-51.7h49z" />
    <path fill="#C3CFE6" d="M685.11 644.28l-49 51.7h-48.99l49-51.7h49z" />
    <path fill="#D9DFEC" d="M734.1 644.28l-48.99 51.7h-49l49-51.7h49z" />
    <path fill="#C3CFE6" d="M783.1 644.28l-49 51.7h-48.99l49-51.7h49z" />
    <path fill="#D9DFEC" d="M832.1 644.28l-49 51.7h-49l49-51.7h49z" />
    <path fill="#C3CFE6" d="M881.1 644.28l-49 51.7h-49l49-51.7h49z" />
    <path
      fill="#D9DFEC"
      d="M930.09 644.28l-49 51.7h-49l49-51.7h49zM97.17 695.98l49-51.7h-49v51.7z"
    />
    <path
      stroke="#D9DFEC"
      stroke-dasharray="5.7 5.7"
      stroke-linecap="round"
      stroke-linejoin="round"
      stroke-miterlimit="10"
      stroke-width="1.7"
      d="M48 538.78h785.21"
    />
    <path
      fill="#F7F7F7"
      d="M734.58 439.12l-.18-102.75 97.56 102.56 97.55 102.55-97.37.2-97.56-102.56z"
    />
    <path
      fill="#BFCBE2"
      d="M734.76 541.87l-.18-102.75-97.37.2 97.55 102.55zM832.32 644.42l-.18-102.75-97.38.2 97.56 102.55z"
    />
    <path
      fill="#D5DBE8"
      d="M832.14 541.68l-97.38.19-.18-102.75 97.56 102.56z"
    />
    <path
      fill="#5F9EFF"
      d="M807.33 490.35c-.02-13.97-10.78-25.27-24.01-25.25a23.3 23.3 0 00-16.94 7.45l33.96 35.7c4.33-4.58 7-10.91 7-17.9z"
    />
    <path
      fill="#5588EB"
      d="M783.4 515.7a23.29 23.29 0 0016.94-7.45l-33.96-35.7a25.94 25.94 0 00-7 17.9c.03 13.97 10.78 25.27 24.02 25.24z"
    />
    <path
      fill="#D5DBE8"
      d="M637.2 439.31l97.38-.19-.18-102.75-97.2 102.94zM929.51 541.48l-97.37.2.18 102.74 97.2-102.94z"
    />
    <path
      fill="#F7F7F7"
      d="M587.27 439.12l-.18-102.75 97.56 102.56 97.55 102.55-97.37.2-97.56-102.56z"
    />
    <path
      fill="#BFCBE2"
      d="M587.46 541.87l-.19-102.75-97.37.2 97.56 102.55zM685.01 644.42l-.18-102.75-97.37.2L685 644.42z"
    />
    <path
      fill="#D5DBE8"
      d="M684.83 541.68l-97.37.19-.19-102.75 97.56 102.56z"
    />
    <path
      fill="#5F9EFF"
      d="M660.02 490.35c-.02-13.97-10.77-25.27-24.01-25.25a23.3 23.3 0 00-16.94 7.45l33.96 35.7c4.34-4.58 7-10.91 7-17.9z"
    />
    <path
      fill="#5588EB"
      d="M636.1 515.7a23.29 23.29 0 0016.93-7.45l-33.96-35.7a25.94 25.94 0 00-7 17.9c.03 13.97 10.79 25.27 24.03 25.24z"
    />
    <path
      fill="#D5DBE8"
      d="M489.9 439.31l97.37-.19-.18-102.75-97.2 102.94zM782.2 541.48l-97.37.2.18 102.74 97.2-102.94z"
    />
    <path
      fill="#F7F7F7"
      d="M440.3 439.12l-.18-102.75 97.56 102.56 97.55 102.55-97.37.2-97.56-102.56z"
    />
    <path fill="#BFCBE2" d="M440.49 541.87l-.19-102.75-97.37.2 97.56 102.55z" />
    <path fill="#BFCBE2" d="M538.04 644.42l-.18-102.75-97.38.2 97.56 102.55z" />
    <path
      fill="#D5DBE8"
      d="M537.86 541.68l-97.38.19-.18-102.75 97.56 102.56z"
    />
    <path
      fill="#5F9EFF"
      d="M513.05 490.35c-.02-13.97-10.77-25.27-24.01-25.25a23.3 23.3 0 00-16.94 7.45l33.96 35.7c4.33-4.58 7-10.91 7-17.9z"
    />
    <path
      fill="#5588EB"
      d="M489.13 515.7a23.29 23.29 0 0016.93-7.45l-33.96-35.7a25.94 25.94 0 00-7 17.9c.03 13.97 10.79 25.27 24.03 25.24z"
    />
    <path
      fill="#D5DBE8"
      d="M342.93 439.31l97.37-.19-.18-102.75-97.2 102.94zM635.23 541.48l-97.37.2.18 102.74 97.2-102.94z"
    />
    <path
      fill="#F7F7F7"
      d="M293.33 439.12l-.18-102.75 97.56 102.56 97.55 102.55-97.37.2-97.56-102.56z"
    />
    <path
      fill="#BFCBE2"
      d="M293.51 541.87l-.18-102.75-97.37.2 97.55 102.55zM391.07 644.42l-.18-102.75-97.38.2 97.56 102.55z"
    />
    <path
      fill="#D5DBE8"
      d="M390.89 541.68l-97.38.19-.18-102.75 97.56 102.56z"
    />
    <path
      fill="#5F9EFF"
      d="M366.08 490.35c-.02-13.97-10.77-25.27-24.01-25.25a23.3 23.3 0 00-16.94 7.45l33.96 35.7c4.33-4.58 7-10.91 7-17.9z"
    />
    <path
      fill="#5588EB"
      d="M342.15 515.7a23.28 23.28 0 0016.94-7.45l-33.96-35.7a25.93 25.93 0 00-7 17.9c.03 13.97 10.79 25.27 24.02 25.24z"
    />
    <path
      fill="#D5DBE8"
      d="M195.96 439.31l97.37-.19-.18-102.75-97.2 102.94zM488.26 541.48l-97.37.2.18 102.74 97.2-102.94z"
    />
    <path
      fill="#F7F7F7"
      d="M146.36 439.12l-.18-102.75 97.55 102.56 97.56 102.55-97.37.2-97.56-102.56z"
    />
    <path
      fill="#BFCBE2"
      d="M146.54 541.87l-.18-102.75-97.37.2 97.55 102.55zM244.1 644.42l-.18-102.75-97.38.2 97.56 102.55z"
    />
    <path
      fill="#D5DBE8"
      d="M243.92 541.68l-97.38.19-.18-102.75 97.56 102.56z"
    />
    <path
      fill="#5F9EFF"
      d="M219.11 490.35c-.02-13.97-10.78-25.27-24.02-25.25a23.3 23.3 0 00-16.93 7.45l33.96 35.7c4.33-4.58 7-10.91 7-17.9z"
    />
    <path
      fill="#5588EB"
      d="M195.18 515.7a23.28 23.28 0 0016.94-7.45l-33.96-35.7a25.94 25.94 0 00-7 17.9c.03 13.97 10.78 25.27 24.02 25.24z"
    />
    <path
      fill="#D5DBE8"
      d="M48.99 439.31l97.37-.19-.18-102.75-97.2 102.94zM341.3 541.48l-97.38.2.18 102.74 97.2-102.94z"
    />
    <path
      stroke="#F7F7F7"
      stroke-dasharray="5.7 5.7"
      stroke-linecap="round"
      stroke-linejoin="round"
      stroke-miterlimit="10"
      stroke-width="1.7"
      d="M97.97 644.6H857.4"
    />
  </g>
  <defs>
    <clipPath id="clip0"><path fill="#fff" d="M0 0h1095v768H0z" /></clipPath>
  </defs>
</svg>
