<svg width="142" height="64" fill="none" xmlns="http://www.w3.org/2000/svg"><path d="m51.62 44.38-.34-2.58h87.65c.92.06 1.83.2 2.73.4v1.74c-.9.22-1.8.36-2.72.44H51.62ZM61.65 0c-.7 1.81-1.43 3.61-2.1 5.43-2 5.53-4.3 12-3.67 17.99-.07.1-.43-.01-.53.05-.22-1.5-.12-4.77.35-7.21a69.49 69.49 0 0 1 1.98-7.53c.77-2.46 1.74-4.85 2.73-7.6L21.61 11.9l-.14-.49S48.26 3.65 61.65 0Z" fill="#E4901F"/><path d="M53.6 23.93h-.65c-.35-2.66.74-8.4 4.04-19.74-7.33 1.9-35.44 10.12-42.52 12.12l-.22-.43S33.65 9.95 43.4 7.2c4.92-1.4 9.84-2.78 15.04-4.24-2.73 6.99-4.89 13.58-4.82 20.97Z" fill="#E4901F"/><path d="M65.1 25.56c.42 0 .76.14 1.02.43.26.26.4.61.4 1.05V37.9c0 .42-.12.75-.37 1a1.3 1.3 0 0 1-.95.36c-.39 0-.7-.12-.94-.36a1.35 1.35 0 0 1-.36-1v-6.76l-2.72 6.42c-.18.33-.38.57-.6.73-.2.15-.45.23-.74.23-.28 0-.53-.08-.75-.23-.21-.16-.41-.4-.59-.73l-2.72-6.32v6.66c0 .41-.12.74-.36 1a1.3 1.3 0 0 1-.96.36c-.38 0-.7-.12-.93-.36a1.35 1.35 0 0 1-.37-1V27.04c0-.44.13-.79.39-1.05.26-.29.6-.43 1.03-.43.61 0 1.08.33 1.4.98l3.88 8.68 3.86-8.68c.35-.65.8-.98 1.38-.98ZM82.28 37.34c.1.23.15.43.15.61 0 .36-.14.66-.44.92a1.45 1.45 0 0 1-1.66.17 1.33 1.33 0 0 1-.5-.61l-1.01-2.26h-6.49l-1.01 2.26c-.12.27-.28.47-.5.61-.2.13-.44.2-.69.2-.37 0-.7-.13-1-.37-.29-.26-.44-.56-.44-.92 0-.18.06-.38.16-.61L74 26.48c.14-.3.35-.53.64-.69.28-.16.58-.24.9-.24a1.77 1.77 0 0 1 1.56.93l5.17 10.86Zm-8.94-3.43h4.46l-2.22-4.98-2.24 4.98ZM90.1 39.33c-1 0-1.95-.12-2.81-.35a5.99 5.99 0 0 1-2.13-1.01 1.5 1.5 0 0 1-.42-.44 1.46 1.46 0 0 1-.11-.61c0-.32.1-.6.28-.85.2-.24.44-.36.7-.36a2.07 2.07 0 0 1 .9.3c.54.35 1.1.6 1.66.77.56.16 1.18.23 1.85.23.84 0 1.49-.14 1.93-.42.45-.28.67-.68.67-1.2 0-.4-.2-.72-.63-.96a7.82 7.82 0 0 0-2.2-.7 12.44 12.44 0 0 1-2.85-.87 3.76 3.76 0 0 1-1.55-1.28 3.44 3.44 0 0 1-.48-1.86c0-.8.23-1.53.7-2.16a4.6 4.6 0 0 1 1.92-1.52 6.78 6.78 0 0 1 2.8-.55c1.8 0 3.3.45 4.48 1.36.19.15.32.31.4.48.09.15.13.34.13.57 0 .32-.1.6-.3.84-.2.24-.42.37-.67.37-.14 0-.28-.02-.4-.06a2.92 2.92 0 0 1-.5-.25 7.9 7.9 0 0 0-1.46-.75 4.72 4.72 0 0 0-1.66-.25 3.2 3.2 0 0 0-1.84.46c-.45.3-.67.7-.67 1.23 0 .3.08.56.25.76.18.2.47.37.86.52.4.15.98.31 1.72.48 1.74.38 2.98.87 3.73 1.47.77.6 1.15 1.43 1.15 2.47 0 .82-.23 1.54-.69 2.17a4.31 4.31 0 0 1-1.91 1.45c-.82.35-1.77.52-2.85.52ZM103.38 39.25c-.45 0-.8-.13-1.09-.4-.27-.27-.4-.63-.4-1.07v-9.69h-3.1c-.95 0-1.42-.4-1.42-1.22 0-.8.47-1.21 1.42-1.21h9.18c.95 0 1.42.4 1.42 1.2 0 .82-.47 1.23-1.42 1.23h-3.1v9.69c0 .44-.13.8-.4 1.07s-.63.4-1.09.4ZM113.42 39.16c-.45 0-.8-.13-1.04-.37s-.36-.59-.36-1.03v-10.7c0-.45.12-.8.36-1.04.25-.24.59-.36 1.04-.36h6.77c.94 0 1.42.38 1.42 1.15 0 .78-.48 1.17-1.42 1.17h-5.26v3.15h4.88c.94 0 1.41.4 1.41 1.17 0 .77-.47 1.15-1.41 1.15h-4.88v3.39h5.26c.94 0 1.42.39 1.42 1.17 0 .76-.48 1.15-1.42 1.15h-6.77ZM136.64 37.26c.19.28.29.56.29.82 0 .36-.15.65-.44.88a1.57 1.57 0 0 1-1.7.17c-.24-.1-.43-.29-.58-.53l-2.53-3.75a2.16 2.16 0 0 0-.69-.71 1.69 1.69 0 0 0-.91-.23h-1.55v3.87c0 .46-.14.82-.4 1.09-.26.27-.61.4-1.06.4-.46 0-.82-.13-1.09-.4-.27-.27-.4-.63-.4-1.1V27.07c0-.45.12-.8.36-1.04.25-.24.59-.36 1.04-.36h4.8c1.58 0 2.77.35 3.58 1.05.81.7 1.22 1.7 1.22 3a3.9 3.9 0 0 1-.86 2.6 4.13 4.13 0 0 1-2.43 1.35c.38.08.72.23 1.01.46.31.22.6.54.88.96l1.46 2.18Zm-5.3-5.6c.85 0 1.47-.16 1.85-.45.39-.3.58-.78.58-1.42 0-.65-.2-1.12-.58-1.41-.38-.3-1-.44-1.85-.44h-2.85v3.71h2.85Z" fill="#035690"/><path fill-rule="evenodd" clip-rule="evenodd" d="m51.64 45.8-.02-1.42-.34-2.58c-1.7-11.78-1.33-23.41 3.1-34.92l-9.51 2.69c-13.22 3.72-26.22 7.4-39.23 11-1.43.4-1.85 1.16-1.82 2.46l.05 3.82c.04 2.93.08 5.85.2 8.77l.05 1.23c.26 6.17.51 12.34-.74 18.46-.6 2.88-1.23 5.77-3.04 8.2-.05.58.22.51.49.45.14-.03.28-.07.38 0 .29-.18.6-.33.91-.44a9907.36 9907.36 0 0 1 47.71-13.5c1.72-.48 1.8-.58 1.82-2.4l-.01-1.83ZM28.6 39.32a7 7 0 0 1-3.5-.84 5.85 5.85 0 0 1-2.28-2.42 7.96 7.96 0 0 1-.8-3.67c0-1.4.27-2.62.8-3.66a5.7 5.7 0 0 1 2.28-2.41 7 7 0 0 1 3.5-.84c1.34 0 2.5.28 3.48.84 1 .56 1.76 1.37 2.3 2.41.53 1.04.8 2.25.8 3.66 0 1.4-.27 2.63-.8 3.67a5.81 5.81 0 0 1-2.3 2.42 6.9 6.9 0 0 1-3.48.84Zm0-2.32c1.12 0 2-.4 2.64-1.19.65-.79.98-1.93.98-3.42 0-1.5-.32-2.63-.96-3.4a3.23 3.23 0 0 0-2.66-1.2c-1.14 0-2.02.4-2.66 1.2-.62.77-.94 1.9-.94 3.4s.32 2.63.96 3.42a3.2 3.2 0 0 0 2.64 1.2Zm-18.13 2.15c-.45 0-.8-.13-1.04-.37s-.36-.59-.36-1.03v-10.7c0-.45.12-.8.36-1.04s.59-.36 1.04-.36h3.84c1.35 0 1.79.23 2.67.68l.25.12a5.61 5.61 0 0 1 2.43 2.32c.56 1 .84 2.21.84 3.62 0 1.4-.28 2.61-.84 3.64a5.5 5.5 0 0 1-2.65 2.43c-.89.46-1.33.69-2.7.69h-3.84Zm3.63-2.42c2.87 0 3.44-1.44 3.44-4.34 0-2.89-.57-4.33-3.44-4.33h-2.05v8.67h2.05Zm26.56 1.75c1 .56 2.15.84 3.48.84 1.67 0 3.11-.46 4.32-1.38a1.24 1.24 0 0 0 .52-1.03c0-.34-.1-.62-.29-.85a.8.8 0 0 0-.67-.36c-.16 0-.31.03-.44.08-.13.03-.28.11-.48.23a9.1 9.1 0 0 1-1.47.72 4.2 4.2 0 0 1-1.34.21c-2.46 0-3.7-1.51-3.7-4.55 0-1.5.31-2.64.93-3.39.62-.77 1.55-1.15 2.77-1.15.5 0 .96.08 1.4.23.43.14.9.38 1.41.7.17.12.32.2.44.26.14.04.3.06.48.06.27 0 .5-.12.67-.35.2-.24.29-.53.29-.86 0-.23-.04-.42-.12-.57-.07-.16-.2-.31-.4-.46a6.95 6.95 0 0 0-4.32-1.38c-1.33 0-2.49.28-3.48.84a5.67 5.67 0 0 0-2.3 2.41 7.85 7.85 0 0 0-.8 3.66c0 1.4.26 2.63.8 3.67a5.67 5.67 0 0 0 2.3 2.42Z" fill="#035690"/><path d="m54.47 50.47.72-3.43h1.03c.25 0 .43.02.57.06.18.04.34.13.47.25.14.13.24.28.3.47a2.16 2.16 0 0 1-.78 2.38c-.14.1-.31.17-.51.21a2.5 2.5 0 0 1-.57.06h-1.23Zm.54-.4h.54c.25 0 .46-.01.65-.06a.96.96 0 0 0 .3-.12c.12-.07.22-.16.3-.28a1.88 1.88 0 0 0 .4-1.19c0-.28-.05-.49-.15-.64a.69.69 0 0 0-.36-.3 1.8 1.8 0 0 0-.52-.05h-.6L55 50.08ZM59.74 49.62l.41.05c-.06.2-.2.4-.4.58-.22.18-.47.27-.77.27-.18 0-.35-.04-.5-.12a.85.85 0 0 1-.35-.37 1.24 1.24 0 0 1-.12-.56c0-.27.06-.53.18-.79.13-.25.3-.44.5-.56.19-.13.4-.2.64-.2.3 0 .53.1.7.29.18.18.27.43.27.75 0 .12 0 .24-.03.37h-1.83v.13c0 .23.05.41.15.54.11.12.24.18.4.18.14 0 .28-.05.42-.15.14-.09.25-.23.33-.4Zm-1.23-.61h1.4v-.1c0-.2-.06-.37-.16-.48a.53.53 0 0 0-.41-.17.76.76 0 0 0-.5.19c-.15.12-.26.3-.33.56ZM60.66 49.62l.43-.03c0 .12.01.23.05.31.04.09.1.16.2.21.1.06.23.09.36.09.19 0 .33-.04.42-.12.1-.07.14-.16.14-.26a.32.32 0 0 0-.08-.2c-.06-.07-.2-.15-.43-.25a4.1 4.1 0 0 1-.42-.2.7.7 0 0 1-.24-.23.56.56 0 0 1-.08-.3c0-.2.08-.36.23-.5a.94.94 0 0 1 .66-.21c.31 0 .55.07.7.22.17.14.26.33.26.56l-.41.03a.48.48 0 0 0-.16-.35.62.62 0 0 0-.42-.13.52.52 0 0 0-.34.1c-.08.06-.12.14-.12.21 0 .08.03.15.1.21.05.04.17.1.36.19.33.14.53.25.61.33.14.13.2.29.2.47 0 .12-.03.24-.1.36a.78.78 0 0 1-.35.29c-.16.07-.34.1-.55.1-.29 0-.53-.07-.73-.2-.2-.15-.3-.38-.29-.7ZM63.66 47.52l.1-.48h.42l-.1.48h-.42Zm-.62 2.95.52-2.48h.42l-.51 2.48h-.43ZM64.14 50.7l.43.03c0 .1.01.17.04.22.02.05.06.08.12.11.08.04.18.05.3.05.25 0 .44-.06.55-.2.07-.09.14-.28.2-.58l.05-.2a.98.98 0 0 1-.7.34.82.82 0 0 1-.64-.28 1.13 1.13 0 0 1-.25-.78c0-.28.07-.54.2-.77.13-.24.3-.41.48-.53.18-.12.37-.18.56-.18.33 0 .58.15.76.46l.08-.4h.39l-.5 2.4c-.06.25-.13.46-.22.6a.9.9 0 0 1-.37.35c-.16.08-.34.12-.54.12s-.38-.03-.52-.08a.65.65 0 0 1-.32-.22.57.57 0 0 1-.1-.34v-.13Zm.53-1.33c0 .17.02.3.05.38a.6.6 0 0 0 .2.28c.09.06.18.1.29.1.14 0 .28-.06.41-.15.14-.1.25-.25.33-.46.09-.2.13-.4.13-.58 0-.2-.05-.37-.17-.49a.55.55 0 0 0-.42-.18c-.1 0-.2.03-.3.08a.89.89 0 0 0-.27.26 1.52 1.52 0 0 0-.25.76ZM66.87 50.47l.52-2.48h.38l-.09.43c.17-.17.33-.3.47-.37.15-.08.3-.12.44-.12.2 0 .36.05.48.16.11.11.17.26.17.44 0 .1-.02.24-.06.43l-.32 1.5h-.42l.33-1.57c.03-.15.05-.26.05-.33a.26.26 0 0 0-.09-.2c-.05-.06-.14-.08-.24-.08-.22 0-.41.08-.58.23-.17.16-.3.42-.37.8l-.24 1.16h-.43ZM71.05 48.79c0-.16.06-.3.17-.42a.57.57 0 0 1 .42-.17c.16 0 .3.06.42.17.12.12.17.26.17.42 0 .16-.05.3-.17.42a.57.57 0 0 1-.42.17.57.57 0 0 1-.42-.17.58.58 0 0 1-.17-.42ZM74.1 50.47l.72-3.43h1.03c.25 0 .44.02.57.06.18.04.34.13.48.25.13.13.23.28.3.47a2.16 2.16 0 0 1-.78 2.38c-.15.1-.32.17-.52.21a2.5 2.5 0 0 1-.56.06H74.1Zm.54-.4h.54c.25 0 .47-.01.66-.06a.96.96 0 0 0 .3-.12c.11-.07.21-.16.3-.28a1.89 1.89 0 0 0 .4-1.19c0-.28-.06-.49-.15-.64a.69.69 0 0 0-.37-.3 1.8 1.8 0 0 0-.52-.05h-.6l-.56 2.65ZM78.15 47.52l.1-.48h.42l-.1.48h-.42Zm-.62 2.95.52-2.48h.42l-.51 2.48h-.43ZM78.63 50.7l.43.03c0 .1.01.17.04.22.02.05.07.08.12.11.08.04.18.05.3.05.26 0 .44-.06.55-.2.07-.09.14-.28.2-.58l.05-.2a.98.98 0 0 1-.7.34.82.82 0 0 1-.63-.28 1.13 1.13 0 0 1-.26-.78c0-.28.07-.54.2-.77.14-.24.3-.41.48-.53.18-.12.37-.18.57-.18.32 0 .57.15.75.46l.08-.4h.39l-.5 2.4c-.06.25-.13.46-.22.6a.9.9 0 0 1-.37.35c-.15.08-.34.12-.54.12s-.37-.03-.52-.08a.65.65 0 0 1-.32-.22.57.57 0 0 1-.1-.34v-.13Zm.53-1.33c0 .17.02.3.05.38a.6.6 0 0 0 .2.28c.09.06.18.1.29.1.14 0 .28-.06.41-.15.14-.1.25-.25.33-.46.1-.2.13-.4.13-.58 0-.2-.05-.37-.17-.49a.55.55 0 0 0-.42-.18c-.1 0-.2.03-.3.08a.89.89 0 0 0-.27.26c-.08.1-.14.24-.18.4-.05.16-.07.28-.07.36ZM81.96 47.52l.1-.48h.43l-.1.48h-.43Zm-.61 2.95.52-2.48h.42l-.52 2.48h-.42ZM83.46 50.12l-.07.35c-.1.03-.2.04-.3.04a.61.61 0 0 1-.4-.12.31.31 0 0 1-.1-.26c0-.05.01-.18.05-.38l.3-1.44h-.33l.07-.32H83l.13-.61.48-.3-.19.9h.42l-.07.33h-.41l-.29 1.37c-.04.18-.05.28-.05.32 0 .05.01.09.04.11.03.03.08.04.14.04.1 0 .18 0 .25-.03ZM85.52 50.16a1.7 1.7 0 0 1-.42.28 1.1 1.1 0 0 1-.44.08.77.77 0 0 1-.55-.2.7.7 0 0 1-.21-.52.71.71 0 0 1 .34-.62c.1-.07.24-.11.39-.14.1-.02.27-.03.54-.04.26-.02.45-.04.57-.09.03-.11.05-.21.05-.29 0-.1-.04-.17-.1-.23a.68.68 0 0 0-.44-.11.74.74 0 0 0-.44.11.66.66 0 0 0-.24.34l-.43-.04c.09-.24.23-.43.42-.56.19-.14.42-.2.71-.2.3 0 .55.07.73.22.14.1.2.25.2.42 0 .14-.01.29-.05.46l-.14.62c-.04.2-.07.36-.07.48 0 .08.02.2.06.34h-.43a1.56 1.56 0 0 1-.05-.31Zm.16-.95a4.08 4.08 0 0 1-.53.1c-.25.02-.42.04-.52.08a.41.41 0 0 0-.3.4c-.01.12.03.22.11.3.08.07.2.1.35.1a.8.8 0 0 0 .71-.41c.08-.14.13-.33.18-.57ZM86.52 50.47l.72-3.43h.42l-.72 3.43h-.42ZM89.08 50.47l.72-3.43h1.43c.25 0 .43.03.56.09.12.05.22.15.3.29.09.14.13.3.13.46 0 .14-.03.29-.1.44a1.13 1.13 0 0 1-.48.57c-.09.05-.18.09-.29.11-.22.05-.44.08-.66.08h-.86l-.29 1.39h-.46Zm.83-1.78h.76c.29 0 .5-.03.64-.1a.77.77 0 0 0 .33-.28.75.75 0 0 0 .12-.42c0-.1-.02-.2-.06-.27a.38.38 0 0 0-.19-.16 1.34 1.34 0 0 0-.45-.05h-.88l-.27 1.28ZM92.27 50.47l.52-2.48h.37l-.1.5c.13-.19.25-.33.37-.42.12-.1.25-.14.38-.14.08 0 .19.03.3.1l-.16.38a.4.4 0 0 0-.25-.08c-.14 0-.3.09-.45.25-.16.17-.28.46-.37.9l-.2.99h-.4ZM94.5 47.52l.1-.48h.43l-.1.48h-.42Zm-.6 2.95.5-2.48h.43l-.52 2.48h-.42ZM95.02 50.47l.51-2.48h.39l-.1.43c.17-.17.33-.3.47-.37.15-.08.3-.12.45-.12.2 0 .36.05.47.16.11.11.17.26.17.44 0 .1-.02.24-.06.43l-.31 1.5h-.43l.33-1.57c.03-.15.05-.26.05-.33a.26.26 0 0 0-.09-.2c-.05-.06-.13-.08-.24-.08-.22 0-.41.08-.58.23-.17.16-.3.42-.37.8l-.24 1.16h-.42ZM98.71 50.12l-.07.35c-.1.03-.2.04-.3.04a.61.61 0 0 1-.4-.12.31.31 0 0 1-.1-.26c0-.05.01-.18.05-.38l.3-1.44h-.33l.07-.32h.33l.13-.61.48-.3-.19.9h.42l-.07.33h-.41l-.3 1.37-.04.32c0 .05 0 .09.04.11.03.03.07.04.14.04.1 0 .18 0 .25-.03ZM100.57 48.79c0-.16.06-.3.17-.42a.57.57 0 0 1 .42-.17c.16 0 .3.06.42.17.11.12.17.26.17.42 0 .16-.06.3-.17.42a.57.57 0 0 1-.42.17.57.57 0 0 1-.42-.17.58.58 0 0 1-.17-.42ZM103.62 50.47l.71-3.43h.57l.34 2.22c.05.3.08.57.09.84.1-.23.25-.54.48-.94l1.2-2.12h.57l-.72 3.43h-.45l.36-1.67c.08-.38.2-.82.36-1.3-.1.23-.22.47-.37.73l-1.27 2.24h-.44l-.35-2.2a7.1 7.1 0 0 1-.07-.7c-.03.3-.07.54-.11.71l-.46 2.19h-.44ZM109.27 50.16a1.7 1.7 0 0 1-.43.28 1.1 1.1 0 0 1-.43.08.77.77 0 0 1-.55-.2.7.7 0 0 1-.21-.52.7.7 0 0 1 .34-.62c.1-.07.23-.11.39-.14.09-.02.27-.03.53-.04.27-.02.46-.04.58-.09.03-.11.05-.21.05-.29 0-.1-.04-.17-.11-.23-.1-.08-.24-.11-.43-.11a.74.74 0 0 0-.44.11.67.67 0 0 0-.24.34l-.43-.04c.09-.24.22-.43.41-.56.2-.14.43-.2.72-.2.3 0 .55.07.73.22.14.1.2.25.2.42 0 .14-.02.29-.06.46l-.13.62c-.05.2-.07.36-.07.48 0 .08.02.2.05.34h-.42a1.56 1.56 0 0 1-.05-.31Zm.15-.95-.19.05c-.06.02-.18.03-.34.04a2.5 2.5 0 0 0-.52.09.4.4 0 0 0-.3.4c0 .12.04.22.12.3.08.07.2.1.35.1a.8.8 0 0 0 .7-.41c.08-.14.14-.33.18-.57ZM110.9 47.52l.1-.48h.42l-.1.48h-.42Zm-.62 2.95.52-2.48h.43l-.52 2.48h-.42ZM111.38 50.47l.71-3.43h.42l-.71 3.43h-.42ZM113.99 48.79c0-.16.06-.3.17-.42a.57.57 0 0 1 .42-.17c.16 0 .3.06.42.17.11.12.17.26.17.42 0 .16-.06.3-.17.42a.57.57 0 0 1-.42.17.57.57 0 0 1-.42-.17.58.58 0 0 1-.17-.42ZM117.05 50.47l.71-3.43H120l-.08.4h-1.77l-.23 1.08h1.8l-.08.4h-1.8l-.33 1.55h-.45ZM121.65 50.02c-.3.34-.6.5-.91.5a.66.66 0 0 1-.47-.16.53.53 0 0 1-.17-.4c0-.1.02-.29.08-.54l.3-1.43h.42l-.34 1.58a1.6 1.6 0 0 0-.04.31c0 .1.03.17.09.22.06.05.14.08.25.08a.9.9 0 0 0 .64-.32c.08-.1.15-.22.2-.35l.12-.45.22-1.07h.42l-.51 2.48h-.4l.1-.45ZM122.63 50.47l.71-3.43h.43l-.72 3.43h-.42ZM123.83 50.47l.45-2.16h-.38l.07-.32h.38l.07-.36.11-.38c.05-.08.1-.14.2-.19a.74.74 0 0 1 .36-.08c.11 0 .27.03.47.07l-.08.37a1.48 1.48 0 0 0-.36-.06c-.08 0-.14.03-.18.07-.05.04-.08.13-.11.29l-.06.27h.47l-.07.32h-.47l-.45 2.16h-.42ZM125.75 47.52l.1-.48h.42l-.1.48h-.42Zm-.62 2.95.52-2.48h.42l-.52 2.48h-.42ZM126.22 50.47l.72-3.43h.42l-.72 3.43h-.42ZM127.36 50.47l.52-2.48h.42l-.09.4c.16-.17.3-.3.42-.36.13-.07.26-.1.4-.1a.57.57 0 0 1 .6.47c.13-.16.26-.28.4-.35a.9.9 0 0 1 .44-.12c.2 0 .36.05.46.15.1.1.16.23.16.41 0 .08-.02.2-.05.38l-.34 1.6h-.42l.34-1.64c.03-.14.04-.23.04-.3a.25.25 0 0 0-.07-.18.31.31 0 0 0-.22-.07.76.76 0 0 0-.38.11.83.83 0 0 0-.31.3 2 2 0 0 0-.19.57l-.25 1.2h-.43l.35-1.67c.03-.11.04-.2.04-.24a.26.26 0 0 0-.07-.2.27.27 0 0 0-.2-.07.76.76 0 0 0-.38.11.9.9 0 0 0-.32.32c-.08.14-.15.33-.2.58l-.25 1.18h-.42ZM133.21 49.62l.41.05c-.06.2-.2.4-.4.58-.22.18-.47.27-.76.27-.19 0-.36-.04-.51-.12a.85.85 0 0 1-.35-.37 1.25 1.25 0 0 1-.12-.56c0-.27.06-.53.19-.79.12-.25.29-.44.48-.56.2-.13.42-.2.65-.2.3 0 .53.1.7.29.19.18.28.43.28.75 0 .12-.02.24-.04.37h-1.82l-.01.13c0 .23.05.41.16.54.1.12.23.18.39.18.14 0 .28-.05.42-.15.15-.09.25-.23.33-.4Zm-1.23-.61h1.4v-.1c0-.2-.06-.37-.16-.48a.53.53 0 0 0-.41-.17.76.76 0 0 0-.5.19c-.14.12-.25.3-.33.56ZM134.1 50.47l.52-2.48h.38l-.1.43c.17-.17.33-.3.47-.37.15-.08.3-.12.45-.12.2 0 .36.05.47.16.12.11.17.26.17.44 0 .1-.02.24-.06.43l-.31 1.5h-.43l.33-1.57c.03-.15.05-.26.05-.33a.26.26 0 0 0-.08-.2c-.06-.06-.14-.08-.25-.08-.22 0-.4.08-.58.23-.17.16-.3.42-.37.8l-.24 1.16h-.42ZM137.79 50.12l-.07.35c-.1.03-.2.04-.3.04a.61.61 0 0 1-.4-.12.32.32 0 0 1-.1-.26c0-.05.01-.18.05-.38l.3-1.44h-.33l.07-.32h.33l.13-.61.48-.3-.19.9h.42l-.07.33h-.41l-.29 1.37c-.04.18-.05.28-.05.32 0 .05.01.09.04.11.03.03.07.04.14.04a1 1 0 0 0 .25-.03Z" fill="#035690"/></svg>