<svg xmlns="http://www.w3.org/2000/svg" fill="none" viewBox="0 0 1327 768">
  <path
    fill="#5F9EFF"
    d="M558.55 418.9H279.27v69.83h279.28V418.9zM139.64 418.9H0v69.83h139.64V418.9zM977.46 418.9H698.18v69.83h279.28V418.9z"
  />
  <path
    fill="#5588EB"
    d="M0 488.73V418.9h69.82L0 488.73zM139.64 418.9v69.83H69.82l69.82-69.82zM349.1 418.9l-69.83 69.83h69.82l69.82-69.82h-69.82zM488.73 418.9l-69.82 69.83h69.82l69.81-69.82h-69.81zM768 418.9l-69.82 69.83H768l69.82-69.82H768zM907.64 418.9l-69.82 69.83h69.82l69.81-69.82h-69.81z"
  />
  <path fill="#F7F7F7" d="M628.36 418.9h-69.81v69.83h69.81V418.9z" />
  <path fill="#D6DCE9" d="M698.18 418.9h-69.82v69.83h69.82V418.9z" />
  <path fill="#F7F7F7" d="M1047.27 418.9h-69.81v69.83h69.81V418.9z" />
  <path fill="#D6DCE9" d="M1117.09 418.9h-69.82v69.83h69.82V418.9z" />
  <path fill="#D9DFEC" d="M279.27 418.9h-69.81v69.83h69.81V418.9z" />
  <path fill="#F7F7F7" d="M209.45 418.9h-69.81v69.83h69.81V418.9z" />
  <path fill="#D6DCE9" d="M69.82 349.1L0 418.9h139.64l-69.82-69.8z" />
  <path fill="#F7F7F7" d="M0 279.27v139.64l69.82-69.82V209.46L0 279.26z" />
  <path
    fill="#C3CFE6"
    d="M139.64 279.27v139.64l-69.82-69.82V209.46l69.82 69.81z"
  />
  <path fill="#D6DCE9" d="M349.1 349.1l-69.83 69.8h139.64l-69.82-69.8z" />
  <path
    fill="#F7F7F7"
    d="M279.27 279.27v139.64l69.82-69.82V209.46l-69.82 69.81z"
  />
  <path
    fill="#C3CFE6"
    d="M418.91 279.27v139.64l-69.82-69.82V209.46l69.82 69.81z"
  />
  <path fill="#D6DCE9" d="M488.73 349.1l-69.82 69.8h139.63l-69.81-69.8z" />
  <path
    fill="#F7F7F7"
    d="M418.9 279.27v139.64l69.83-69.82V209.46l-69.82 69.81z"
  />
  <path
    fill="#C3CFE6"
    d="M558.55 279.27v139.64l-69.82-69.82V209.46l69.82 69.81z"
  />
  <path
    fill="#5F9EFF"
    d="M209.45 209.46h-3.43a66.39 66.39 0 00-66.38 66.39V418.9h69.81V209.45z"
  />
  <path
    fill="#5588EB"
    d="M209.46 209.46h3.43a66.39 66.39 0 0166.38 66.39V418.9h-69.81V209.45z"
  />
  <path
    fill="#5588EB"
    d="M209.45 174.54a34.9 34.9 0 01-34.9-34.9h-34.91a69.82 69.82 0 10139.63 0h-34.9a34.9 34.9 0 01-34.92 34.9z"
  />
  <path
    fill="#D9DFEC"
    d="M209.46 174.54a34.9 34.9 0 0034.9-34.9h-69.81a34.9 34.9 0 0034.9 34.9z"
  />
  <path
    fill="#5F9EFF"
    d="M209.45 69.82a69.82 69.82 0 00-69.81 69.82h34.9a34.91 34.91 0 0169.82 0h34.91a69.82 69.82 0 00-69.82-69.82z"
  />
  <path
    fill="#F7F7F7"
    d="M209.46 104.73a34.9 34.9 0 00-34.91 34.9h69.81a34.9 34.9 0 00-34.9-34.9z"
  />
  <path
    fill="#5588EB"
    d="M418.9 104.73A34.9 34.9 0 01384 69.82h-34.9a69.82 69.82 0 00139.63 0h-34.91a34.9 34.9 0 01-34.91 34.9z"
  />
  <path
    fill="#D9DFEC"
    d="M418.9 104.73a34.9 34.9 0 0034.92-34.91H384a34.9 34.9 0 0034.9 34.9z"
  />
  <path
    fill="#5F9EFF"
    d="M418.9 0a69.82 69.82 0 00-69.8 69.82H384a34.9 34.9 0 1169.82 0h34.9A69.82 69.82 0 00418.92 0z"
  />
  <path
    fill="#F7F7F7"
    d="M418.9 34.9A34.9 34.9 0 00384 69.83h69.82A34.9 34.9 0 00418.9 34.9z"
  />
  <path
    fill="#5588EB"
    d="M488.73 209.46v-3.43a66.39 66.39 0 00-66.39-66.4h-3.42v139.64l69.8-69.81z"
  />
  <path
    fill="#5F9EFF"
    d="M418.9 279.27V139.64h-3.42a66.39 66.39 0 00-66.39 66.39v3.43l69.82 69.81z"
  />
  <path fill="#D6DCE9" d="M768 349.1l-69.82 69.8h139.64L768 349.1z" />
  <path
    fill="#F7F7F7"
    d="M698.18 279.27v139.64L768 349.09V209.46l-69.82 69.81z"
  />
  <path
    fill="#C3CFE6"
    d="M837.82 279.27v139.64L768 349.09V209.46l69.82 69.81z"
  />
  <path fill="#D6DCE9" d="M907.64 349.1l-69.82 69.8h139.63l-69.81-69.8z" />
  <path
    fill="#F7F7F7"
    d="M837.82 279.27v139.64l69.82-69.82V209.46l-69.82 69.81z"
  />
  <path
    fill="#C3CFE6"
    d="M977.46 279.27v139.64l-69.82-69.82V209.46l69.82 69.81z"
  />
  <path
    fill="#5F9EFF"
    d="M628.36 209.46h-3.43a66.39 66.39 0 00-66.38 66.39V418.9h69.81V209.45z"
  />
  <path
    fill="#5588EB"
    d="M628.37 209.46h3.43a66.39 66.39 0 0166.38 66.39V418.9h-69.82l.01-209.46z"
  />
  <path
    fill="#5588EB"
    d="M628.36 174.54a34.9 34.9 0 01-34.9-34.9h-34.91a69.82 69.82 0 10139.63 0h-34.9a34.9 34.9 0 01-34.92 34.9z"
  />
  <path
    fill="#D9DFEC"
    d="M628.37 174.54a34.9 34.9 0 0034.9-34.9h-69.81a34.9 34.9 0 0034.9 34.9z"
  />
  <path
    fill="#5F9EFF"
    d="M628.36 69.82a69.82 69.82 0 00-69.81 69.82h34.9a34.9 34.9 0 1169.82 0h34.91a69.82 69.82 0 00-69.82-69.82z"
  />
  <path
    fill="#F7F7F7"
    d="M628.37 104.73a34.9 34.9 0 00-34.91 34.9h69.81a34.9 34.9 0 00-34.9-34.9z"
  />
  <path
    fill="#5588EB"
    d="M837.82 104.73a34.9 34.9 0 01-34.91-34.91H768a69.82 69.82 0 00139.64 0h-34.91a34.9 34.9 0 01-34.91 34.9z"
  />
  <path
    fill="#D9DFEC"
    d="M837.82 104.73a34.9 34.9 0 0034.9-34.91h-69.81a34.9 34.9 0 0034.9 34.9z"
  />
  <path
    fill="#5F9EFF"
    d="M837.82 0A69.82 69.82 0 00768 69.82h34.91a34.9 34.9 0 1169.82 0h34.9A69.82 69.82 0 00837.83 0z"
  />
  <path
    fill="#F7F7F7"
    d="M837.82 34.9a34.9 34.9 0 00-34.91 34.92h69.82a34.9 34.9 0 00-34.91-34.91z"
  />
  <path
    fill="#5588EB"
    d="M907.64 209.46v-3.43a66.39 66.39 0 00-66.39-66.4h-3.42v139.64l69.8-69.81z"
  />
  <path
    fill="#5F9EFF"
    d="M837.82 279.27V139.64h-3.43A66.39 66.39 0 00768 206.03v3.43l69.82 69.81zM1047.27 209.46h-3.43a66.39 66.39 0 00-66.38 66.39V418.9h69.81V209.45z"
  />
  <path
    fill="#5588EB"
    d="M1047.28 209.46h3.43a66.39 66.39 0 0166.38 66.39l-.01 143.06h-69.81l.01-209.46z"
  />
  <path
    fill="#5588EB"
    d="M1047.27 174.54a34.9 34.9 0 01-34.91-34.9h-34.9a69.81 69.81 0 10139.63 0h-34.91a34.9 34.9 0 01-34.91 34.9z"
  />
  <path
    fill="#D9DFEC"
    d="M1047.27 174.54a34.9 34.9 0 0034.91-34.9h-69.82a34.9 34.9 0 0034.91 34.9z"
  />
  <path
    fill="#5F9EFF"
    d="M1047.27 69.82a69.82 69.82 0 00-69.81 69.82h34.9a34.91 34.91 0 0169.82 0h34.91a69.82 69.82 0 00-69.82-69.82z"
  />
  <path
    fill="#F7F7F7"
    d="M1047.27 104.73a34.9 34.9 0 00-34.91 34.9h69.82a34.9 34.9 0 00-34.91-34.9z"
  />
  <path fill="#D9DFEC" d="M279.27 768h-69.81L0 488.73h69.82L279.27 768z" />
  <path fill="#F7F7F7" d="M349.1 768h-69.83L69.82 488.73h69.82L349.09 768z" />
  <path fill="#D9DFEC" d="M418.9 768h-69.8L139.63 488.73h69.81L418.91 768z" />
  <path fill="#F7F7F7" d="M488.73 768H418.9L209.45 488.73h69.82L488.73 768z" />
  <path fill="#D9DFEC" d="M558.55 768h-69.82L279.27 488.73h69.82L558.55 768z" />
  <path fill="#F7F7F7" d="M628.36 768h-69.81L349.09 488.73h69.82L628.36 768z" />
  <path fill="#D9DFEC" d="M698.18 768h-69.82L418.91 488.73h69.82L698.18 768z" />
  <path fill="#F7F7F7" d="M768 768h-69.82L488.73 488.73h69.82L768 768z" />
  <path fill="#D9DFEC" d="M837.82 768H768L558.55 488.73h69.81L837.82 768z" />
  <path fill="#F7F7F7" d="M907.64 768h-69.82L628.36 488.73h69.82L907.64 768z" />
  <path fill="#D9DFEC" d="M977.46 768h-69.82L698.18 488.73H768L977.46 768z" />
  <path fill="#F7F7F7" d="M1047.27 768h-69.81L768 488.73h69.82L1047.27 768z" />
  <path
    fill="#D9DFEC"
    d="M1117.09 768h-69.82L837.82 488.73h69.82L1117.09 768z"
  />
  <path
    fill="#F7F7F7"
    d="M1186.91 768h-69.82L907.64 488.73h69.81L1186.91 768z"
  />
  <path
    fill="#D9DFEC"
    d="M1256.73 768h-69.82L977.45 488.73h69.82L1256.73 768z"
  />
  <path
    fill="#F7F7F7"
    d="M1326.55 768h-69.82l-209.46-279.27h69.82L1326.55 768z"
  />
  <path
    stroke="#F7F7F7"
    stroke-dasharray="6.8 6.8"
    stroke-linecap="round"
    stroke-linejoin="round"
    stroke-miterlimit="10"
    stroke-width="2"
    d="M707.05 418.9H968.6M288.18 418.9h261.54M11.63 418.9H128"
  />
  <path
    stroke="#D9DFEC"
    stroke-linecap="round"
    stroke-linejoin="round"
    stroke-width="2"
    d="M284.04 144.4l3.8 3.8"
  />
  <path
    stroke="#D9DFEC"
    stroke-dasharray="6.9 6.9"
    stroke-linecap="round"
    stroke-linejoin="round"
    stroke-width="2"
    d="M295.32 155.68l116.05 116.05"
  />
  <path
    stroke="#D9DFEC"
    stroke-linecap="round"
    stroke-linejoin="round"
    stroke-width="2"
    d="M415.11 275.47l3.8 3.8 3.8-3.8"
  />
  <path
    stroke="#D9DFEC"
    stroke-dasharray="6.9 6.9"
    stroke-linecap="round"
    stroke-linejoin="round"
    stroke-width="2"
    d="M430.2 267.98l116.12-116.12"
  />
  <path
    stroke="#D9DFEC"
    stroke-linecap="round"
    stroke-linejoin="round"
    stroke-width="2"
    d="M550.07 148.11l3.8-3.8M702.86 144.4l3.8 3.8"
  />
  <path
    stroke="#D9DFEC"
    stroke-dasharray="6.9 6.9"
    stroke-linecap="round"
    stroke-linejoin="round"
    stroke-width="2"
    d="M714.15 155.68L830.2 271.73"
  />
  <path
    stroke="#D9DFEC"
    stroke-linecap="round"
    stroke-linejoin="round"
    stroke-width="2"
    d="M833.94 275.47l3.8 3.8 3.8-3.8"
  />
  <path
    stroke="#D9DFEC"
    stroke-dasharray="6.9 6.9"
    stroke-linecap="round"
    stroke-linejoin="round"
    stroke-width="2"
    d="M849.03 267.98l116.12-116.12"
  />
  <path
    stroke="#D9DFEC"
    stroke-linecap="round"
    stroke-linejoin="round"
    stroke-width="2"
    d="M968.9 148.11l3.8-3.8M1121.81 144.4l3.8 3.8"
  />
</svg>
