<svg xmlns="http://www.w3.org/2000/svg" fill="none" viewBox="0 0 1280 380">
  <desc id="d-accessibility">
    Direct Mail envelope inserting machine used by A&amp;O in our Sydney mail
    house
  </desc>
  <g clip-path="url(#clip0)">
    <path
      fill="#F7F7F7"
      d="M1050 384h-7l-188-1h-3v-93h81c8 0 13-5 13-13V105c0-4 1-6 5-7l57-23 36-14 7-3 2-1v101c0 1-1 2 1 2-1 1-2 1-2 3v8l1 3-1 42v49s-1 2 1 1l7-2-1 1c-7 1-8 5-7 11v104l-2 4zM605 192l3 12c0 2 0 2 2 2-1 1-3 0-2 2l2 10 2 13v4l2 10 1 6 1 2 2 12v2c2 9 1 10-8 10h-86v-2l14-79c1-6 4-9 10-11 8-2 15-6 23-9l22-9 3-1 3-2v-2a2 2 0 012 2l1 8v1l3 19zM779 221l3 12c0 5 0 11 2 15l3 18c-1 3 3 7-2 10h-4l-87 1v-2l14-81c1-3 1-6 4-7l50-20 6-4c2 2 0 4 2 6l1 9 8 43z"
    />
    <path
      fill="#242334"
      d="M29 170c-4 1-8 3-12-1h-7c-10 0-10 0-9-9L4 52c0-2 0-3 2-3l194-3c2 0 3 1 3 3l-1 115c0 5-5 1-7 2l-30 1h-5l-53 1H31c-1 0-2 0-2 2zm166-98V56c0-2-1-2-2-2l-17 1-157 2c-7 0-8 2-7 8v1l-3 91c0 3 1 3 3 3l179-2c2 0 3-1 3-3l1-83z"
    />
    <path
      fill="#363544"
      d="M1169 258l8 7v2c-3 1-5 2-5 5 0 2-2 2-3 3l-116 54-1-2v-52l1-2c11-5 30-10 39-12l63-10c3-1 6-1 9 2l5 5z"
    />
    <path
      fill="#DCDDDE"
      d="M226 250l3-8c4-6 5-12 3-18v-3l1 2 1 6 2-5 3-5c4 1 8-1 12-1 12-2 25-2 37-5l10-1 5-1c4 1 9 0 13-2h3c15-2 14-2 19 6 0 2 0 5 3 5s3-3 4-5l2-1v2c-2 2-5 5-5 8-1-3-3-2-5-1l-52 24c-2 0-5 1-7-1-3-3-6-2-8 1-1 1-3 2-3 4 0 1 0 2 2 2h2c0 2-1 2-2 2l-3 2h-1l-11 5-4-2c-6-2-13-3-20-2a6 6 0 01-6-2l2-6z"
    />
    <path
      fill="#C9CACB"
      d="M785 276c5-3 1-7 2-10l59-1 6 1h10c16 0 31 0 46 4l25 8h-81-1c0 2 0 1-2 1l-19 1H688l-6-1-2-9c0-1-2-5 2-3h1c-1-4 7-9-2-11v-4c2-4-1-10 6-11l1-2 5-24c0-3 2-6-3-8l-1-3 4-20c2-4 5-8 9-10 0 0 2 0 1-1-1-3-2-6-5-7l-1-3c-6 0-14 7-15 12l-1 3-6 35c0 3 0 6-2 9l-1-2c2-5 2-11 3-16l5-29c1-6 4-11 10-13l50-20c7-4 11 2 17 5l6 3c1 1 4 1 2 4-4 1-3 3-3 6 1 2 2 4 0 7l-2-8c0-2-1-2-3-1l-49 19a16 16 0 00-10 13l-14 80c-1 6-1 8 5 7h91l5-1zm-81-116l-2 1h2l3 2c3 2 5 5 9 6l25-10 2-1-1-1-10-6-1-2-27 11z"
    />
    <path
      fill="#363544"
      d="M779 221l-8-43-1-9c5-5 11-11 18-14l14-9 5-2a3 3 0 004 0l20-11c3 0 3-4 5-5l2-2 8 5c3 2 3 3 0 5l-6-4-2-1c-1 2 1 2 1 2 2 2 5 3 6 6l-66 82z"
    />
    <path
      fill="#4F4F5E"
      d="M787 266l-3-18 2-1c15 0 21 1 32-3 11-2 20 1 30 9l6 4v2l2-2 13-20c10-17 13-23 21-23h18l3 1h-14a4 4 0 00-3 2l1 3 1 2 1 25c-1 6 0 13-9 14v1l1 1h14l1 1h-1l-32 1-13 1h-71z"
    />
    <path
      fill="#C5C7C6"
      d="M226 250l-2 6-3 7c-1 2 0 2 1 2h29l40 1 2 2 38 7 8 1v3l-18 1H216l-46-1c-1-3 2-6 2-9 1-4 3-6 7-5 9 1 12-3 10-10l3-3 2 1 22-1h8c-2 4-6 2-8 2l-2 1 1 1c0 1 5 2 0 3-2 0-3 2-4 4l3 2c2-1 5 2 6-2l4-11v-1c-11 1-22-2-32 1l-1-1 2-1h33z"
    />
    <path
      fill="#FFB164"
      d="M1115 154l1 3c4 9 3 20 5 30a76 76 0 011 12l1 1-5 2-28 10-11 2v-4l-4-41 2-2 17-4 21-8v-1z"
    />
    <path
      fill="#CDCFCF"
      d="M99 182v-14c0 2 1 2 3 2h7c5 0 10 1 16-1l6 2c6 1 10 0 15-2 4-1 8-1 7 5v76l-1-1v-8l-1-36v-1 22c0 2-1 5-3 3-4-2-7-5-9-9l-10-13c-9-9-19-18-30-25z"
    />
    <path
      fill="#363544"
      d="M1280 192c-12 14-28 22-42 32l-50 33c-2 1-7 0-5 5 0 1-2 4-5 2l-15-14c-1-2 2-1 2-3h4v-2c4 0 7-4 11-6l29-19 9-6c1 0 2 0 1-1 5-2 9-6 15-7 16-3 32-3 45-14h1z"
    />
    <path
      fill="#DCDDDE"
      d="M1013 42c1-1 3 0 4 1-6 0-10 3-15 5l-2 1h32l2 1-1 1-1 2-1 1c0-1 0-2-1-1-2 1-5-1-5 3l-7 3c-1-1-2-1-3 1l-1 1-71 28-7-1 9-4 66-26a3 3 0 003-1l5-2 3-1-1-1-16-2c-3 0-7-2-10-1l-64 26c-7 2-15 4-20 9-8 6-6 15-6 23l-1 93c0 4-1 6-5 3l-1-1v-3a9719 9719 0 011-108c1-6 5-10 10-12l91-36c0 2-2 2-3 2v1l16-5zm-20 6l-2 1h3l-1-1z"
    />
    <path
      fill="#4F4F5E"
      d="M342 276l4-26c2-9 8-14 16-17l3-1 35-14 55-22 2 6v4l-5 2c1-3 0-6-1-8h-1c-1 2 0 3 1 5 0 1-1 3 1 3l-5 3-85 34a6 6 0 00-4 5l-5 25c0 1 0 2 2 2h71c1 0 1 0 0 0h-81c-1 0-3 1-3-1z"
    />
    <path
      fill="#363544"
      d="M1053 64v-3h3l21-2c3-1 7 1 8-4l25 2c5 0 5 5 7 7 1 1 0 2-1 3h-3l-4-6h-1v2c4 7 4 7-3 12l-52 40-1-6 1-23 5-3 20-11c3-2 6-2 8-5a206 206 0 0111-6v2c-1 3-4 2-6 4l-1 1h1l18-8 1-1h-1c-8-2-16 0-24 1l-32 4zM457 206v-1l-1-3-1-6h1c1 1 0 3 2 3a6 6 0 005-5l5-11 1-1-1 1-5 13v1h1l7-3c3-2 8 0 10-4l10-20c1-2 1-3-1-3-6 1-11 6-17 4-2 5-8 4-11 6-1 1-4-1-4 2l-1 2v-2h-1l-9 4c-3-1-7 2-10 2l-3 15c-1 2 0 1 1 1 5-1 9-5 15-6h2l-2 2-11 5c-24 8-46 20-70 28 3-8 6-16 18-20l13-5 9-3-3 9s-1 1 1 1c1-1 4 0 4-4h1c0 1 0 2 1 1 3-1 2-4 3-7a1 1 0 000-1h-2l2-1 1-2h-1l-41 16c-5 1-10 3-14 6 1-3 5-5 8-7l48-18 2-1c5-9 13-13 22-17l44-16c2-1 4-3 5-1 2 3 4 6 2 10l-8 16v2a4 4 0 00-3 2l-3 7-6 1c-3 1-5 4-9 3l1-2-1 2c-1 0-1 2-3 2-1-1-2 1-2 2l3 15 3 19-1-5-6-28zm-23-19c-2-1-5 2-5 3 0 3-3 7 0 11l1 1a2 2 0 001-1l4-14h-1zM605 192l-3-19c1 1 1 0 2-1s3 0 4-2l3-1 41-19 1-1h-1l-17 8-27 13-6 2-1-8a2 2 0 00-2-2v2l-3 2c2-2 2-5 3-7l6 2c-1 1-3 0-4 2l5 1v-2l2 1v1c0-2 2-2 4-3l16-7c1-1 2-1 1-3-1-4-4-7-9-7l9-9c6 1 11-3 17 1 1 3 2 7 6 7h1l5 8c2 1 1 3-1 4-1 1-1-2-2-2 0-1 0-3-2-2-1 1 0 2 1 3 1 2 1 3-1 4l-48 34z"
    />
    <path
      fill="#A2A2A0"
      d="M99 182a147 147 0 0140 38c2 4 5 7 9 9 2 2 3-1 3-3v-21-1 1l1 36-1-3v11a1 1 0 01-1 1 1 1 0 01-1 1c-3 0-7 1-9-4l-7-6-13-14c-4-6-8-13-14-15-7-3-4-8-6-13l-1-3v-14z"
    />
    <path
      fill="#90908F"
      d="M869 237l-13 20-2 2v-2l-24-13c-2-1-2-4 1-3 7 6 3 3 8-5l18-28c2-2 3-4 6-5 4 4 9 5 14 7 3 2 9 2 4 8l-12 19z"
    />
    <path
      fill="#7D7A77"
      d="M1076 233l18-5c1 0 1 2 2 1l22-5 47-12 9-1 7 3c1 1 2 1 1 3h-2l-29 8-5 1 6 1-21 4h-1 1l10-3 2-1-2 1-41 10-48 12v-6c0-1-1-4 1-4l14-4c4 0 7 0 9-3z"
    />
    <path
      fill="#878784"
      d="M99 196l1 4c2 4-1 9 6 12 6 2 10 9 14 15l13 14 7 6c2 5 6 4 9 4a1 1 0 002-2v-11l1 3v8c0 1 0 2 1 1h1v1c-3-1-3 1-3 4v7c-1 3 1 3 3 3l-28 1c4-5 9-9 14-12l1-3h-2l-39-1-1-54z"
    />
    <path
      fill="#E4730A"
      d="M1068 236l-15 4c-2 0-1 3-1 4v20l1 2c-2 1-1-1-1-2v-48l10-1c2 0 3 0 2-2l-2-37c0-5-2-7-6-6h-4v-8l1-2c12-2 24-6 35-11h9l18 5c-7 4-14 6-21 8l-17 5c-1 0-2 0-2 2l3 41a4 4 0 00-2 4v-1l-3-40c0-7-3-7-8-6a2555 2555 0 011 43c0 3 0 7 6 6-3 1-6 0-5 5l1 15zm-6-10s2 0 2-2l-3-2a2 2 0 00-2 3c0 1 1 2 2 1h1z"
    />
    <path
      fill="#D8D9DB"
      d="M802 146l-14 9c-5-2-8-7-13-8l33-44a2 2 0 012-1 2 2 0 011 0l13 5c2 1 2 2 1 3l-30 37-1 1h2l15-14c6-5 12-7 19-7 5-1 7-3 6-8v-1l1 1c4 2 2 5 1 7l-2 2c-3 0-5 1-7 3l-4 2c-3-1-4 1-7 3l-16 10z"
    />
    <path
      fill="#DCDDDE"
      d="M522 185c1-12 4-22 18-26l28-11c4-1 0-4 0-6v-1l1 1 2 5 2-5 4-10 1-2 1 2 2 3 1-2c2-2 3 0 5 0 13-6 25-10 39-14 4-1 8 0 11 3 0 3-3 1-4 3l-5 7h-1v-1l5-6v-1h-1c-4 0-6 3-8 6l-1 1v-2c1-1 2-1 2-3l-11 4-4 1c-3 2-3 2-4 0h-1c0 3-4 2-4 4-2 1-5 1-7 3h-3l-6 11 5-10v-1l-1 1-5 7-1 2c-1 1-1 2-3 1s0-2 0-2l2-4 1-3c-1-1-1 1-2 2l-6 12c-2 1-2 2-2 3-2 1-1 4-4 4-2-3 2-5 1-8l1-2-2 1c-4 0-8 3-13 5l1 1 2 7-1 1c-9 4-18 6-26 12-2-1-2 1-3 2-3 4-3 8-4 12l-1 1v-1l-1-7z"
    />
    <path
      fill="#363544"
      d="M291 266l-40-1 2-1c4-3 9-3 12-7h1l8-2c4 0 5-5 9-5l1-1h-2c-1 1-4 2-5 1-1-6-4-3-7-3 2-3 5-4 8-1 2 2 5 1 8 1 0 2 1 1 2 1l23-11 26-11v1c4 4 0 6-3 8l-20 14-1 1c-5 3-10 6-12 12a4 4 0 01-3 3l-7 1z"
    />
    <path
      fill="#0072CE"
      d="M439 202l11-5 2-2h-2c-6 1-10 5-15 5-1 0-2 2-1 0l3-15c4-2 3-2 10-3l9-3h1v2l1-2c0-3 3-1 4-2 3-2 9-1 11-6 6 2 11-3 17-4 2 0 2 1 1 3l-10 20c-2 4-7 2-10 4a46 46 0 01-8 3v-1l5-13 1-1-2 1-4 11a6 6 0 01-5 5c-2 0-2-2-2-3h-1l-16 6z"
    />
    <path
      fill="#558C46"
      d="M288 213c-12 3-25 3-37 5-4 0-8 2-12 1 0-1 2-1 1-3v-3l1 3c1 1 1 0 2-1 7-7 16-10 25-14l40-17 14-5c0 3 3 8 1 11-3 25-15 20-35 23z"
    />
    <path
      fill="#fff"
      d="M1279 192c-13 11-29 11-45 14-6 1-10 5-15 7l-1 1-9 6v-1c3-6 8-11 14-16 3-3 7-6 8-11l11-7a9 9 0 0110-2l3 1c7 3 15 3 22 5 1 0 3 0 2 3z"
    />
    <path
      fill="#242334"
      d="M522 185l1 7-8 45v4l1-3 1 1-2 12c-2 1 1 6-4 6v20l1 1v13l-2-1v-13c1-12 1-12-10-12h-25c-1 0-2 1-2-1v-9c0-4 1-6 6-6h26c6-1 3 3 3 6l1 2 1-2c1-16 5-32 8-48l2-14 1-3v-2l1-3z"
    />
    <path
      fill="#C8C8C8"
      d="M33 180l15 39c2 6 5 7 11 6h9l-12 7-3 2c-3-1 0-3-2-5-3 2-6 5-11 5l-1-2-13-34-6-18c1-1 2 1 2 2 1 1 1 3 3 2l8-4z"
    />
    <path
      fill="#DCDDDE"
      d="M1231 192l-8 11c-6 5-11 10-14 16v1l-29 19c-4 2-7 6-11 6l-7-2-2-1 2-1 6-2c2-1 3-2 1-4v-2l31-20 18-12c4-3 9-5 13-9z"
    />
    <path
      fill="#363544"
      d="M1076 214a4 4 0 012-4l1 1v3l11-2v1l-6 1-3 1a4 4 0 003 0c10 0 19-5 28-8 4-2 9-5 10 3l-46 22-1 1h1c-2 3-5 3-8 3 1-5 0-10-1-15s2-4 5-5c1 0 4 2 4-2zM464 239l-3-19 10-6 23-9c1 2-2 6 3 7 1 3 1 5-2 7l-26 18-4 2h-1zM672 220l1 2 1 2v1h3c0 2 2 3 0 5l-6 4-2-5-2-1c-7 5-15 8-23 12-5 3-11 6-17 7h-1c1 0 3 0 2-2l43-20 1-2-1 1-34 15-19 9c-1 0 0 4-3 2l-1-5a2 2 0 011-2h1c3-1 6 1 8-1l2-1-1-1-13-5v-4c6 4 7 1 8-4h1l-1 3c-1 3-1 4 2 6 5 2 7-2 11-2 0 0-1 2 1 1l17-9c5-2 11-3 15-8l1-1h-1l-5 2 2-2c2-1 4-1 3-4 3 1 4 4 6 7zM1231 192c-4 4-9 6-13 9l-18 12c-4 0-7 5-12 2-2 2-4 2-6 2 1-2 0-2-1-3l-7-3c16-14 35-17 55-20l2 1z"
    />
    <path
      fill="#E3E4E5"
      d="M613 130l11-4c0 2-1 2-2 3v2l1-1c2-3 4-6 8-6h2l-1 1-5 6v1h1l5-7c1-2 4 0 5-3 3 3-1 3-1 5 0 0-2 1-1 2-3 1-5 4-7 6l-9 9c-6 5-9 12-12 19l-2-1-1-1-6-2-1-4 1-3 14-20v-2z"
    />
    <path
      fill="#484849"
      d="M53 234l3-2 9-4h2l-2 1-16 9c-1 0-4 1-3 2 2 2 3 6 7 5h27c3 0 5 2 8 0 2 2 4 6 8 6-5-1-9 3-13 6l-14 8-23-22c-2-3-4-4-8-4h-4 4c6 1 11-2 15-5z"
    />
    <path
      fill="#5B5C5B"
      d="M96 251v-1h4l39 1h2l-1 3-14 11H99v-11c0-2 0-4-3-3z"
    />
    <path
      fill="#363544"
      d="M666 213c1 3-1 3-3 4l-2 2-10 5-1-1c-2-5-6-7-11-6l4-12c1-1-2-2-1-3l9-2c6-1 10 0 12 6 0 2 1 5 3 7z"
    />
    <path
      fill="#DCDDDD"
      d="M510 277v3H341v-4h1c0 2 2 1 3 1h82c13 0 27 1 41-1l1 1c0 2 1 2 2 2 14 1 26-1 40-2h-1z"
    />
    <path
      fill="#558C46"
      d="M1085 55c-1 5-5 3-8 4a663 663 0 01-24 2v-4l1-1 21-13a2 2 0 013 0c2 4 7 7 7 12z"
    />
    <path
      fill="#A5A5A3"
      d="M881 218c5-6-1-6-4-8-5-2-11-2-14-7l9-1c8 0 17-2 25 1l2 1 2 10c-7 0-14-2-20 4z"
    />
    <path
      fill="#DE1334"
      d="M642 202c-1 1 2 2 1 3h-2l-7 3c-6 1-10 4-11 10l-2 9h-1l4-14v-1h-1l-13 6-2-10c-1-2 1-1 2-2 7-1 14-5 21-8 4-1 7-2 9 3a2 2 0 002 1z"
    />
    <path
      fill="#ECECED"
      d="M1018 59l7-3 6-2 1-1 11-4c3-2 6-2 8-5v3-1l-5 3h-1L945 89a15 15 0 00-9 13v174c0 3-2 3-4 3h-77l-3-1h81c2 0 2-1 2-3v-69-31-66c0-9 2-15 8-20l71-28 1-1 3-1z"
    />
    <path
      fill="#397A39"
      d="M303 211l6-1h1l5-2 8-18 1-4-2 4-4 7c0-3 2-5 3-7 0-2 2-3-1-3l2-8c2-1 7-2 6 0-1 3 2 6 0 9l-6 10c-1 2-1 2 1 2l11-1c5-2 7 0 8 5-3-1-7 1-10 1l-15 1 1-1-1 1-1 3c-4 2-9 3-13 2z"
    />
    <path
      fill="#BABAB9"
      d="M1051 44c-2 3-5 3-8 5l-11 4 1-2 1-1-2-1h-32l2-1c5-2 9-5 15-5 11 0 22 2 34 1z"
    />
    <path fill="#0A0A0A" d="M88 245c-3 2-5 0-8 0H53l6-4c6-3 11-7 16-8l13 12z" />
    <path
      fill="#8E8E8D"
      d="M76 233c-6 1-11 5-17 8l-6 4c-4 1-5-3-7-5-1-1 2-2 3-2l16-9 2-1h-2l-9 4 12-7c3 0 4 4 6 6l2 2z"
    />
    <path
      fill="#A2A2A0"
      d="M154 251v-62l1 15v44c0 2 0 3 2 2h7a19 19 0 0017-6c3-2 5 0 6 1 2 0 3 2 2 4 0 2 2 0 2 1-5 0-15 7-16 11l-1 1c-3-2-6-3-8-6l5-4 1-1h-18z"
    />
    <path
      fill="#ABABAD"
      d="M775 147c5 1 8 5 13 8-7 3-13 8-18 14-2-2 0-4-2-6-1-3-2-6 1-9l3-4 3-3z"
    />
    <path
      fill="#8D8D8C"
      d="M505 249h-26c-5 0-6 2-6 6v9c0 2 1 1 2 1h23c-1 2-3 4-6 4h-22l-2-4v-2c1 1 1 3 3 2 2 0 0-2 1-3 1-2-2-3-2-4v-13c2-1 6-2 4 3 0 2 1 1 2 1h29z"
    />
    <path
      fill="#BCC4C3"
      d="M369 227l-7 3c-3 0-5 1-5 4-3 2-7 4-9 8l-1 1v-1c5-7 8-15 13-21l15-7c-1 5-4 8-6 13z"
    />
    <path
      fill="#6B6A67"
      d="M125 169c-6 2-11 1-16 1h-7c-1 0-3 0-3-2l-68 1a2 2 0 00-2 1c0-2 1-2 2-2l76-1 53-1 4 1c-1 0-3-1-4 1l-1-1h-12v1l1 1h6v1c0 1 1 3-1 4 2-7-3-6-7-5-4 2-10 2-14 2l4-2 1-1h-11c-2 0-2 0-1 1z"
    />
    <path
      fill="#7A7777"
      d="M1165 247c0 2-3 1-2 3v1l6 7-5-5c-3-3-5-3-9-2-1-5-4-2-5-2l-37 10-13 4c-3 0-7 0-8 4-1 2-2-1-3 0-1 0-2 0-1-1l3-2v-1 1a1 1 0 002-1l1-1a5 5 0 014 0l22-6 37-10-4-2c-2-3-3-5-6-6 1-1 3-4 4-2 1 3 7 3 4 8v1h1c3-1 6 1 9 2z"
    />
    <path
      fill="#353529"
      d="M317 206l15-1c3 0 6-2 10-1l4 8-2 2-4 3 5-2c-1 2-1 5-4 5s-3-3-3-5c-4-8-4-8-19-6l-3 1 1-4z"
    />
    <path
      fill="#397A39"
      d="M1052 45c6-5 16-3 24-3l2 1a2 2 0 00-2 0l-22 13-2 1-3 1c-2-8 0-11 3-13z"
    />
    <path
      fill="#FE9339"
      d="M1122 210c-1-8-6-5-10-3-9 3-18 8-28 8a3 3 0 01-3-1h3l6-1v-1l28-10c1 1 2-1 2-1l3 1c-3 3 0 5 0 8h-1z"
    />
    <path
      fill="#353529"
      d="M337 226l-26 11-23 11c-1 0-2 1-2-1l52-24c1-1 3-2 4 1l2 3c-2 2-4 4-5 0-1-1-1-2-2-1z"
    />
    <path
      fill="#1E1E1E"
      d="M470 245v13c0 1 3 2 2 4-1 1 1 3-1 3-2 1-2-1-2-2l-4-24 3-2 2 8z"
    />
    <path
      fill="#363544"
      d="M478 197l3-7a4 4 0 013-2c3-1 4 1 5 3l5 10v4c-1-1-4 1-3-2 1-5-3-11-8-10l-1 1h1l1 1h-2v1l-4 1z"
    />
    <path
      fill="#9A9A9A"
      d="M32 175c-8 3-15 5-23 4l-2-1a61 61 0 0123-5 2 2 0 011 1l1 1z"
    />
    <path fill="#87857F" d="M629 135c2-2 4-5 7-6 7-2 8 2 10 7-6-4-11 0-17-1z" />
    <path fill="#6B6A67" d="M154 189v61h-1v-68h1v7z" />
    <path
      fill="#58565B"
      d="M772 150l-3 4c-3 3-2 6-1 9l-6 4c2-2 1-5 0-7 0-3 0-5 3-6l7-4z"
    />
    <path
      fill="#9A9A9A"
      d="M20 180h-2l2-1c3 1 6-1 9-2h3l1 3-8 4c-2 1-2-1-3-2 0-1-1-3-2-2z"
    />
    <path fill="#AEAEAE" d="M1118 224l-22 5c-1 1-1-1-2-1l21-6c2 0 2 1 3 2z" />
    <path
      fill="#363544"
      d="M1123 210c0-3-3-5 0-8h-5l5-2c3 2 3 4 4 7 0 2-2 2-4 3z"
    />
    <path fill="#84827E" d="M494 205v-4c3 0 4 2 3 5v6c-5-1-2-5-3-7z" />
    <path fill="#BABAB9" d="M1013 42l-16 5v-1c1 0 3 0 3-2 4-1 8-4 13-2z" />
    <path fill="#888685" d="M1052 278v49l1 2-1 1v-52z" />
    <path fill="#1B5F80" d="M174 261c2-4 12-11 17-11v1c-4-1-7 2-10 4l-7 6z" />
    <path fill="#1C1C1C" d="M186 167c-1 3-3 1-5 1h-6c3-3 7-1 11-1z" />
    <path fill="#0F0F0F" d="M154 169h-6l-1-1v-1h12l1 1-3 1h-3z" />
    <path fill="#9A999F" d="M845 139c-1-3-4-4-6-6 0 0-2 0-1-2l2 1 6 5-1 2z" />
    <path
      fill="#A0A09D"
      d="M345 215l-5 2 4-3 2-2c3 0 5 2 4 6-1-1 0-4-3-4l-2 1z"
    />
    <path fill="#6B6A67" d="M186 167c-4 0-8-2-11 1-1-3-3-1-4-1h-6l30-1-9 1z" />
    <path fill="#323231" d="M375 214l-15 7 1-1c4-3 9-5 14-6z" />
    <path fill="#DCDDDD" d="M313 250l1-1h24l-25 1z" />
    <path fill="#A2A2A0" d="M154 182h-1v-8c2-1 1-3 1-4v12z" />
    <path fill="#222020" d="M347 214c3 0 2 3 3 4h-1l-2-2v-2z" />
    <path fill="#A2A2A0" d="M154 187v-5 5zM154 169h3-3z" />
    <path fill="#B4B5B5" d="M522 185v3-3zm-1 5v3-3z" />
    <path
      fill="#F7F7F7"
      d="M510 290v90c0 3-1 4-4 4H341c-2-2-1-4-1-6a11330 11330 0 011-88h169zM851 383l-3 1H684l-2-1v-92-1h169v93zM338 290l1 83c0 10 0 10-11 10H204l-27 1c-8 0-8 0-8-9v-81-4h169zM511 296l1-5 98-1h71v93l-17 1H520c-6 1-10 1-9-7v-81z"
    />
    <path
      fill="#C4C5C4"
      d="M11 253H4c0-3 2-4 3-7 2-5 7-5 11-8 6-2 12-1 17-2 2-1 3 1 3 3h-4 4c4 0 6 1 8 4l23 22 2 1 28-1h71c2 0 3 0 2 2l-5 12-103 1a5 5 0 01-4-2l-24-24a4 4 0 00-2-1H11z"
    />
    <path
      fill="#4F4F5E"
      d="M11 253h23a3 3 0 012 1l24 24a5 5 0 004 2l103-1v11l-107 1a4 4 0 01-3-2l-25-24a4 4 0 00-3-2H4v-1c-1-5-1-10 7-9zM510 290H340v-10h170v10zM338 290h-63c-1-2 2-5-2-5h-26c-1 0-3 1-4-1 0-2 2-2 3-3 11-2 21 1 32-1h49-6l18-1-1 11zM233 290h-64l1-11h46l7 1c10 0 10 0 10 10z"
    />
    <path fill="#ACADAA" d="M291 266l7-1h41c2 0 2 0 2 2l-2 9-7-1-39-7-2-2z" />
    <path
      fill="#32322F"
      d="M192 252c10-3 21 0 32-1l1 1-5 11c-1 4-4 1-6 2l-3-2c1-2 2-4 4-4 5-1 0-2 0-3l-1-1 2-1c2 0 6 2 8-2h-8l-22 1-2-1z"
    />
    <path
      fill="#242334"
      d="M162 265h-8l12-9c2 3 5 4 8 6l-4 3h-1c1-1 2-3 1-4-2-1-2 1-3 1-1 2-3 3-5 3z"
    />
    <path fill="#91908A" d="M189 255c2 7-1 11-10 10l10-10z" />
    <path
      fill="#4F4F5E"
      d="M851 290H726h33c6 0 8-1 7-7 0-1-1-3 2-3l17 1h42l3-1 20-1c1 0 1 1 1-1h1l2 1h78c2 0 4 0 4-3V102a15 15 0 019-13l103-43c2-1 5 11 1 12l-41 17-57 23c-4 1-5 3-5 7v172c0 8-5 13-13 13h-17v-4c0-4 0-7-6-7l-33 1c-6 0-2 4-3 7a1226 1226 0 0131 3h-54z"
    />
    <path
      fill="#343437"
      d="M1165 247c-3-1-6-3-9-2h-1v-1c3-5-3-5-4-8-2-2-3 1-4 2l-1-1c0-2-1-3-3-2l-79 22c-2 0-3 1-3 3 0 1 3 4-1 4l-7 2-1-2v-14l48-12 41-10-10 3h-1 1l21-4h2l7 10c1 0 1 2 3 1l-1-2-7-8c-1-3-2-3-4-1l-5-1 4-1 29-8h2c2 0 4 0 6-2h1c4 3 7-2 11-2l-30 20c-2 1-2 1-1 2 2 2 1 3-1 4l-6 2-2 1 2 1 7 2v2h-4z"
    />
    <path
      fill="#ADADAD"
      d="M1060 264c4 0 1-3 1-4l85-23 1 1c3 1 4 3 6 6l4 2-6 1-51 13c-1 1-2 0-2 2a5 5 0 00-5 0c-6 4-20 5-20 5l-20 6-1 2v3-2c-1-6 0-11 7-11l1-1z"
    />
    <path
      fill="#929290"
      d="M1053 64l32-4c8-1 16-3 24-1h1l-1 1-18 8h-1l1-1c2-2 5-2 6-4v-2l-1 1-10 5-29 15s-3 3-2-1a3 3 0 00-1-3h-1V64z"
    />
    <path
      fill="#FFB164"
      d="M1052 171h4c4-2 6 0 6 5l2 37c1 2 0 2-2 2l-10 1 1-42-1-3z"
    />
    <path
      fill="#363544"
      d="M905 290l-28-1c-2 0-4 0-3-2 1-3-3-7 3-7l33-1c6 0 6 3 6 7v4h-11z"
    />
    <path
      fill="#242222"
      d="M1053 78a3 3 0 012 1 3 3 0 010 2c-1 4 2 1 2 1l29-15-8 5-20 11-5 3v-8z"
    />
    <path
      fill="#4F4F5E"
      d="M593 167l-22 9c-8 3-15 7-23 9-6 2-9 5-10 12l-14 78v2h-12l7-34 8-49c1-7 3-13 10-16l54-22c1 4 0 8 2 11z"
    />
    <path
      fill="#4E4E52"
      d="M627 247c6-1 12-4 17-7 8-4 16-7 23-12l2 1 2 5-2 2-17 12-2 2h17-16c-4 0-6 4-10 5-5 3-3 6-2 10l-2 1-19-1-2-12c4-2 6-6 11-6z"
    />
    <path
      fill="#C0C0C2"
      d="M618 265l18 1h-6l-5 2a9 9 0 007 1c8-2 17-2 26 1 6 2 13 5 19 4 4-1 4 1 4 3l-6 1-54 1c-1 0-3 0-3-2l-1-1c-12 3-25 1-37 2v-1h30c9 0 10-1 8-10v-2z"
    />
    <path fill="#FA253A" d="M610 218l13-6h1v1l-4 14c-1 5-2 8-8 4l-2-13z" />
    <path
      fill="#111110"
      d="M627 247c-5 0-8 4-11 6l-1-3c3 2 2-2 3-2l19-9 34-15 1-1-1 2-43 20s-3-1-2 2h1z"
    />
    <path
      fill="#8E8B85"
      d="M612 235l13 5 1 1-2 1c-2 2-5 0-8 1a2 2 0 00-1 1 2 2 0 00-1 1l-2-10z"
    />
    <path fill="#898989" d="M580 277v1h-36l-26-1h62z" />
    <path
      fill="#56555A"
      d="M598 155l1 4c-1 2-1 5-3 7l-3 1c1-1 2-2 1-3l-1-9 4-2 1 2z"
    />
    <path fill="#0F0E0E" d="M608 170c-1 2-3 1-4 2s-1 2-2 1v-1l6-2z" />
    <path
      fill="#4F4F5E"
      d="M689 277c-6 1-6-1-5-7l14-80a16 16 0 0111-13l48-19c2-1 3-1 3 2l2 7-50 20c-3 1-3 4-4 7l-14 81v2h-5z"
    />
    <path fill="#8B8B8B" d="M689 277h5l87-1h4l-5 1h-91z" />
    <path
      fill="#EFEFEF"
      d="M195 72l-1 83c0 2-1 3-3 3l-179 2c-2 0-3 0-3-3l3-91 2-1 170-3h10c2 2 0 7 1 10zm-94 85h7c2 0 2-1 2-3 0-10 0-10-10-10h-5c-3 0-3 1-3 4 0 9 0 9 9 9zm20-1c9 0 9 0 9-9v-2l-2-1h-14c-2 0-3 1-3 3 0 10 0 10 10 10v-1zm-40 1c10 0 10 0 10-9v-1c0-2 0-3-3-3H76c-3 0-4 1-4 4 0 9 0 9 9 9zm105-1h2c3 0 5 0 4-4 0-4-3-2-5-2h-5c-2 0-2 1-2 2-1 6 3 3 6 4zm1-13h-2c-2 0-5-1-5 3 0 5 3 2 5 3h5c2 0 2-1 2-2 1-7-3-3-5-4z"
    />
    <path
      fill="#558C46"
      d="M195 72c-1-3 1-8-1-10h-10L14 65l-2 1v-1c-1-6 0-8 7-8l156-3h18c1 0 2 0 2 2v16z"
    />
    <path
      fill="#ADADAD"
      d="M1092 267c1-4 5-4 8-4l13-4 36-10c2 0 5-3 6 2l-63 16z"
    />
    <path
      fill="#76736C"
      d="M249 265h-27c-1 0-2 0-1-2l3-7a6 6 0 006 2c7-1 14 0 20 2l4 2-5 3z"
    />
    <path
      fill="#292929"
      d="M270 247c3 0 6-3 8 3l4-1h2l-1 1c-4 0-5 5-9 5l-8 2 3-2c1 0 2 0 2-2h-2c-2 0-2-1-2-2 0-2 2-2 3-4zm-21 18l5-3 11-5c-3 4-8 4-12 7l-2 1h-2z"
    />
    <path
      fill="#DCDDDE"
      d="M669 236l2-2 6-4c2-2 0-3 0-5h-2v-1h-1l-1-2c2-3 2-6 2-9l6-35 1-3 11 9-3 21v2c5 2 3 5 3 8a962 962 0 01-5 26c-8 1-5 7-7 11v1l-5-1c-3 0-5-3-8 0l-2 2-1-2c0-2 1 0 1-1l1-1c2-4 3-9 2-14zm18-19c0-2 1-3-1-2-6 2-8 7-3 12 1 1 2 1 3-1l1-9z"
    />
    <path
      fill="#A7A7A7"
      d="M935 206v69c0 2 0 3-2 3l-25-8c-15-4-30-4-46-4h-10 56l19-1 1-2v-54l-1-2v-5c1 5 5 3 8 4z"
    />
    <path
      fill="#363544"
      d="M830 280l-3 1h-42l-17-1c-3 0-2 2-2 3 1 6-1 7-7 7h-35v-6c0-3 0-3-3-3l-34-1c-4 0-5 1-5 4a40 40 0 010 7h-1v-12h1l6 1h142z"
    />
    <path fill="#DCDDDE" d="M704 160l27-11 1 2 10 6 1 1-2 1-25 10v-1l-12-8z" />
    <path
      fill="#A8A8A9"
      d="M682 279h-1v-2c0-3 0-4-4-3-6 1-13-2-19-4-9-3-18-3-26-1a9 9 0 01-7-1l5-2h6c2-1 3 0 3-2l1 1h35c2 1 1-1 2-1l2 1v-2l1-8h1v1c9 2 1 7 2 11l-1 1c-4-3-2 1-1 2 0 3 2 6 1 9z"
    />
    <path
      fill="#3F3C38"
      d="M693 184l-11-9c1-5 9-12 15-12l1 3c3 1 4 4 5 7 1 1 0 1-1 1-4 2-7 6-9 10z"
    />
    <path fill="#161616" d="M704 160l12 8v1c-4-1-6-4-9-6l-3-2h-2l2-1z" />
    <path fill="#656465" d="M681 255h-1-1c-3-2-7-4-11-3 3-3 6 0 8 0l5 1v2z" />
    <path fill="#878078" d="M825 133l4-2 2 2-20 11a3 3 0 01-4 0l18-11z" />
    <path
      fill="#C8C7CB"
      d="M825 133l-18 11-5 2 17-10c2-2 3-4 6-3zm6 0l-2-2c2-2 4-3 7-3-2 1-2 5-5 5z"
    />
    <path
      fill="#363544"
      d="M927 265l-19 1-50-1h13l32-1h1l-1-1h-14l-1-1v-1c9-1 8-8 9-14l-1-25-1-2-1-3c3-5 9-3 15-3h9l-2-2c-1 0-2 0-2-2l3-1 10 1v55z"
    />
    <path
      fill="#242334"
      d="M233 290c0-10 0-10-10-10h-7 111-6c-15 0-29-1-43 1-11 1-21-2-32 1-1 0-3 0-3 2 1 2 3 1 4 1h26c4 0 1 3 2 5h-42z"
    />
    <path fill="#A89F85" d="M1079 214v-3 3z" />
    <path fill="#181817" d="M125 169c-1-1-1-2 1-1h11l-1 1-5 2c-2 0-4 0-6-2z" />
    <path fill="#B5A984" d="M1218 214l1-1-1 1z" />
    <path
      fill="#4F4F5E"
      d="M927 202v1h-8c-3 0-6 0-8 3-1 1-1 3-3 2s-3-1-3-4v-96c0-8-2-18 5-23 6-5 14-6 21-9l63-26c4-1 8 1 11 1l16 2 1 1-3 1-5 2-3 1-66 26-9 4c-5 3-8 8-8 14l-1 100z"
    />
    <path
      fill="#C9C9C9"
      d="M927 202l1-100c0-6 3-11 8-14l7 1c-7 5-8 11-8 20v66l-1 31c-2-1-6 1-7-4z"
    />
    <path
      fill="#363544"
      d="M905 204c0 3 1 3 3 4s2-1 3-2c2-3 5-3 8-3h8v7l-10-1c-1 0-3 0-3 2l2 1 2 2h-17l-2-10c4 3 5 1 5-3l1 3z"
    />
    <path
      fill="#BABAB9"
      d="M1031 54l-6 2c0-4 3-2 5-3 1-1 1 0 1 1zm-38-6l1 1h-3l2-1zm25 11l-3 1c1-2 2-2 3-1zm-7-1l3-1-1 1h-2zm8-3l3-1-3 1z"
    />
    <path
      fill="#F7F7F7"
      d="M469 265l1 5c1 4-1 6-5 6l-6 1H355c-2 0-2-1-2-2l5-25a6 6 0 014-5l85-34 5-3 5-2v7l2 9c3 14 5 29 10 43z"
    />
    <path
      fill="#C1C2C2"
      d="M426 277h33l5-1c4 0 7-2 6-7 7 2 14 0 22 0 3 0 5-2 6-4h2c11 0 11 0 10 12-13 1-25 3-39 2-1 0-2 0-2-2l-2-1c-13 2-27 1-41 1 1 0 1 0 0 0z"
    />
    <path
      fill="#C3DCDB"
      d="M468 265c-4-14-6-29-9-43l-2-9v-7l6 28 1 5h1l3 24v2z"
    />
    <path fill="#FEFEFE" d="M365 232l23-10c4-1 8-4 12-4l-35 14z" />
    <path fill="#C3C3C7" d="M452 208c-2 0-1-2-1-3-1-2-2-3-1-5h1c1 2 2 5 1 8z" />
    <path
      fill="#0072CE"
      d="M456 202l1 3-1-3zm15 12l-10 6-2-15c-1-1 0-3 2-2 2 0 1-2 2-2 4 1 6-2 9-3l6-1-7 17z"
    />
    <path
      fill="#323231"
      d="M369 227c2-5 5-8 6-13l41-16h1l-1 2-2 1h1a1 1 0 011 1c-1 3 0 6-3 7-1 1-1 0-1-1h-1c0 4-3 3-4 4-2 0-1-1-1-1l3-9-9 3-13 5c-8 2-13 8-16 16l-2 1z"
    />
    <path
      fill="#0072CE"
      d="M434 187h1l-4 14a2 2 0 01-1 1l-1-1c-3-4 0-8 0-11 0-1 3-4 5-3z"
    />
    <path fill="#6C9390" d="M463 201l1-2-1 2z" />
    <path
      fill="#242334"
      d="M608 163c3-7 6-14 12-19 5 0 8 4 9 7 1 2 0 2-1 3l-16 7c-2 1-4 1-4 3v1-2z"
    />
    <path fill="#0F0E0E" d="M608 170l27-13 17-8h1l-1 1-41 19-3 1z" />
    <path fill="#0B0B0B" d="M605 161l1 1v2l-5-1c1-2 3-1 4-2z" />
    <path fill="#343437" d="M1141 228l2-1-2 1z" />
    <path fill="#494949" d="M1182 217h-2 2z" />
    <path
      fill="#242334"
      d="M165 256l-11 9c-2 0-4 0-3-3v-8c0-2 0-4 3-3h18l-1 1-5 4h-1z"
    />
    <path
      fill="#CACBCD"
      d="M1076 214c0 4-3 2-4 2-6 1-6-2-6-7l-3-39c-1-3 0-3 2-3 5-1 8-1 8 6l3 40v1z"
    />
    <path
      fill="#444241"
      d="M1061 226c-1 1-2 0-2-1a2 2 0 010-2 2 2 0 012-1l3 2c0 2-2 2-3 2z"
    />
    <path
      fill="#D3D3D3"
      d="M598 155l-1-2h-2l-55 23c-7 3-12 7-13 16l-5 25-6 36-1-2 2-12v-1l9-50c1-4 2-7 5-10 8-6 17-8 26-12l2-1 9-4c3 0 2-3 4-4l-1 3 3-1 11-4 2-2-1-1c2 1 3-1 4-3l10-14 1-1v2l-10 15-1 1h2c2 0 4-4 5-1 2 2 2 0 2 0l14-21c2 1 0 2 0 2l-14 20-1 3z"
    />
    <path
      fill="#E3E4E5"
      d="M613 130l-14 21s0 2-2 0c-1-3-4 1-6 1h-1l1-1 10-16v-1l-1 1c0-2 4-1 4-4h1c1 2 1 2 4 0l4-1z"
    />
    <path
      fill="#61615E"
      d="M531 178c-3 3-4 6-5 10l-9 50v1l-1-1-1 3v-4l8-45v1l1-1c1-4 1-8 4-12 1-1 1-3 3-2z"
    />
    <path
      fill="#E3E4E5"
      d="M600 135l-10 14c-1 2-2 4-5 3l-1-3 6-11h4c1-2 4-2 6-3z"
    />
    <path
      fill="#4F4C4A"
      d="M585 152l2 1-2 1-11 5-3 1 1-3 2-3 6-12c1-1 1-3 2-2l-1 3-2 4v2c2 1 2 0 3-1 0-1 0-2 2-2l-2 3c-1 3 2 2 3 3z"
    />
    <path
      fill="#393938"
      d="M568 161l-9 4-3-7 3-2c-1 2 1 1 1 1l5-2c1 0 2-1 1 1l-1 2 2-2 2-4 1-1v2c0 3-3 5-2 8z"
    />
    <path fill="#232322" d="M559 156l-3 2-1-1c5-2 9-5 14-5l-10 4z" />
    <path fill="#E3E4E5" d="M582 149l2-3 4-7 1-1v1l-5 10c-1 0-2 2-2 0z" />
    <path fill="#D3D3D3" d="M574 154l-2 3c0-1 0-2 2-3z" />
    <path fill="#4F4F5E" d="M681 280v10h-71l-98 1v-11h169z" />
    <path
      fill="#E1E2E3"
      d="M681 280H512v-2c2 2 5 1 8 1 8 0 16 1 24-1h36c12-1 25 1 37-2l1 1c0 2 1 2 3 2l54-1 6-1v3z"
    />
    <path
      fill="#E3E4E5"
      d="M516 253l6-36 5-25c1-9 6-13 13-17l55-22h2l-4 2-2 1-54 22c-7 3-9 9-10 15l-8 50-7 34h-1v-2h1v-3l1-2 3-17z"
    />
    <path fill="#D3D3D3" d="M511 277h7l26 1c-8 2-16 1-24 1-3 0-6 1-8-1l-1-1z" />
    <path fill="#8E8D8C" d="M512 272v3h-1v-17-1c5 0 2-5 4-6l1 2-3 17-1 2z" />
    <path fill="#D3D3D3" d="M512 280h6-6z" />
    <path
      fill="#9C9C9C"
      d="M38 239c0-2-1-4-3-3 6 0 12-3 16-7 2 2-1 4 2 5-4 3-9 6-15 5z"
    />
    <path fill="#242334" d="M471 214l7-17 4-1c4 1 7 2 9 7-1 3 2 1 3 2l-23 9z" />
    <path
      fill="#FA253A"
      d="M621 227l2-9c1-6 5-9 11-10l7-3h2l-4 12-6 17c-4 0-6 4-11 2-4-1-3-3-2-6l1-3z"
    />
    <path
      fill="#242334"
      d="M633 234l6-17c5-1 9 1 11 6l1 1 10-5 5-2h1l-1 1-14 6-2 2-16 9c-2 1-1-1-1-1z"
    />
    <path fill="#3B3733" d="M651 227c-1-2 0-2 1-3l14-6c-4 5-10 6-15 8v1z" />
    <path
      fill="#4E4E52"
      d="M626 247c-1-3 2-2 2-2 1 2-1 2-2 2zm48-23h1v1h-1v-1z"
    />
    <path
      fill="#0D0D0D"
      d="M99 265l-28 1-2-1c6-2 10-6 14-9 4-2 8-6 13-5 3-1 4 1 3 3v11z"
    />
    <path fill="#C1C2C2" d="M502 280h-10 10zm-33 0h-9 9z" />
    <path fill="#C9C9C9" d="M936 102v78-77-1z" />
    <path fill="#2E2C2C" d="M1097 262c1-2 2-2 3-2l51-13 6-1-37 10-22 6h-1z" />
    <path
      fill="#ADADAD"
      d="M1091 263h1a1 1 0 010 1 1 1 0 01-1-1zM1091 264h-2l2-1v1z"
    />
    <path
      fill="#888682"
      d="M491 203c-2-5-5-6-9-7v-1h2l-1-1h-1l1-1c5-1 9 5 8 10z"
    />
    <path fill="#4F4F5E" d="M682 290v-6c0-3 1-4 5-4l34 1c3 0 4 0 3 3v6h-42z" />
    <path
      fill="#0E0E0E"
      d="M647 385l4-1-1 1h-3zm-3 0a1 1 0 012 0h-2zM162 265c2 0 4-1 5-3 1 0 2-2 3-1s0 3-1 4h-7z"
    />
    <path fill="#736E6B" d="M1146 237l-85 23c0-2 1-3 3-3l79-22c2 0 3 0 3 2z" />
    <path
      fill="#A4A4AA"
      d="M1152 227c1-2 3-2 4 1l7 8v2c-1 1-1-1-2-1l-8-10h-1z"
    />
    <path fill="#D3D3D3" d="M591 156l2-1 1 9c1 1 0 2-1 3-2-3-1-7-2-11z" />
    <path
      fill="#242334"
      d="M639 265c-1-4-3-7 2-10 4-1 6-5 10-5h10a8 8 0 006 6c3 1 3 3 3 6-1 3-4 1-5 2l-2 1h-24z"
    />
    <path
      fill="#0C0C0C"
      d="M663 265l2-1c1-1 4 1 5-2 0-3 0-5-3-6a8 8 0 01-6-6h6l-1 1c0 1-1-1-1 1l1 2 2-2c5-1 8 2 11 3h1l-1 8v2l-3-1-6-10-1-1v2c2 3 5 6 6 10h-12z"
    />
    <path fill="#FEFEFE" d="M669 236c1 5 0 10-2 14h-17l2-2 17-12z" />
    <path
      fill="#515151"
      d="M101 157c-9 0-9 0-9-9 0-3 0-4 3-4h5c10 0 10 0 10 10 0 2 0 3-2 3h-7z"
    />
    <path
      fill="#525252"
      d="M121 157c-10 0-10 0-10-10 0-2 1-3 4-3h13l2 1v2c0 9 0 9-9 9v1z"
    />
    <path
      fill="#525352"
      d="M81 157c-9 0-9 0-9-9 0-3 1-4 4-4h12c3 0 3 1 3 3v1c0 9 0 9-10 9zm-1-5h7a2 2 0 001-1v-2h-6c-2 1-5-2-5 1s1 2 3 2z"
    />
    <path
      fill="#C34F4F"
      d="M186 156c-3-1-7 2-6-4 0-1 0-2 2-2h5c2 0 5-2 5 2 1 4-1 4-4 4h-2z"
    />
    <path
      fill="#558C46"
      d="M187 143c2 1 6-3 5 4 0 1 0 2-2 2h-5c-2-1-5 2-5-3 0-4 3-3 5-3h2zM63 75c6 4 22-11 19 16-1 8-3 10-8 10s-11 1-17-1c-5-2-15 9-16-10-1-20 9-14 16-15h6z"
    />
    <path
      fill="#757170"
      d="M687 217l-1 9c-1 2-2 2-3 1-5-5-3-10 3-12 2-1 1 0 1 2z"
    />
    <path fill="#9A9A9C" d="M927 210v-3l1 2v54l-1 2v-55z" />
    <path fill="#656465" d="M675 265c-1-4-4-7-6-10v-2l1 1 6 10s0 2-1 1z" />
    <path fill="#4E4E52" d="M639 265h23-23z" />
    <path
      fill="#B4B5B5"
      d="M582 149c0 2 1 0 2 0l1 3c-1-1-4 0-3-3zm-23 7l10-4-2 4-2 2 1-2c1-2 0-1-1-1l-5 2s-2 1-1-1z"
    />
    <path fill="#C0C0C2" d="M644 280h24-24z" />
    <path fill="#D3D3D3" d="M512 272l1-2-1 2zm0 3v-2 2z" />
    <path
      fill="#BDBDBD"
      d="M80 152c-2 0-3 1-3-2 1-3 3 0 5-1h6v2a2 2 0 01-1 1h-7z"
    />
    <path
      fill="#F7F7F7"
      d="M167 383l-1 1H6c-2 0-2 0-2-3a20773 20773 0 000-117l25-1a4 4 0 013 2l25 24a4 4 0 003 2l107-1v93z"
    />
  </g>
  <defs>
    <clipPath id="clip0"><path fill="#fff" d="M0 0h1280v380H0z" /></clipPath>
  </defs>
</svg>
