<svg width="136" height="48" fill="none" xmlns="http://www.w3.org/2000/svg">
  <path
    d="M26 48c14.36 0 26-11.67 26-26.06C52 12.73 47.18 4.64 39.98 0c4.83 10.25-2.36 13.03-7.64 13.52l-4.24.27c-10.69.4-13.98-.98-26.94.42-.4.75-1.16 5.04-1.16 7.73A26.03 26.03 0 0 0 26 48Z"
    fill="#FBE8DA"
  />
  <path
    d="M26 48c14.36 0 26-11.67 26-26.06C52 12.73 47.18 4.64 39.98 0c4.83 10.25-2.36 13.03-7.64 13.52l-4.24.27c-10.69.4-13.98-.98-26.94.42-.4.75-1.16 5.04-1.16 7.73A26.03 26.03 0 0 0 26 48Z"
    fill="#FBE8DA"
  />
  <path
    d="M52 21.94A26.03 26.03 0 0 1 26 48 26.03 26.03 0 0 1 .02 21.08c2.68-.2 6.4-.39 9.5-.21 2.94.16 7.07.81 10.72 1.39 1.47.23 2.86.45 4.06.62 7.25 1.03 11.18-.25 15.84-1.77l.07-.02c4.35-1.42 8.3-2.67 11.4-3.64.26 1.46.39 2.96.39 4.49Z"
    fill="#D6DFE0"
  />
  <path
    d="M52 21.94A26.03 26.03 0 0 1 26 48 26.02 26.02 0 0 1 .73 28.1c1.77-.18 4.13-.65 6.86-1.73l2.72-1.07c6.51-2.58 15.8-6.27 17.57-6.27.35 0 .28.35.18.86-.36 1.83-1.12 5.73 15.54 3.04a46.9 46.9 0 0 0 8.38-2.06l.02 1.07Z"
    fill="#A7BBD5"
  />
  <path
    fill-rule="evenodd"
    clip-rule="evenodd"
    d="M29.78 23.24c-2.22-.84-1.9-2.38-1.72-3.35.1-.51.17-.86-.18-.86-1.07 0-4.9 1.35-9.19 2.99l1.55.24c1.47.23 2.86.45 4.06.62 2.06.3 3.86.4 5.48.36Z"
    fill="#C3C1D1"
  />
  <path
    d="M49.9 32.23a26 26 0 0 1-46.01 3.42c5.86-.47 14.07-1.26 17.96-2.2 10.47-2.55 9.33-3.36 14.25-3.36 5.93 0 10.41.83 13.8 2.14Z"
    fill="#6B7BB2"
  />
  <path
    d="M45.94 38.66a26 26 0 0 1-43.29-5.25c1.63.4 3.55.85 5.66 1.38 5.24 1.31 17.19 3.63 37.63 3.88Z"
    fill="#4268AB"
  />
  <path
    fill-rule="evenodd"
    clip-rule="evenodd"
    d="m9.74 35.13-1.43-.34c-2.1-.53-4.03-.99-5.66-1.37l1.24 2.23c1.8-.14 3.8-.32 5.85-.52Z"
    fill="#5E90C6"
  />
  <path
    d="M66.54 38.66c0 .94-.4 1.73-1.05 2.19-.56.39-1.28.47-2 .47h-2.9v-5.33h3.1c.75 0 1.34.16 1.87.55.6.44.98 1.14.98 2.12Zm-6.55-3.3a.1.1 0 0 0-.1.1V45.6c0 .07.04.11.1.11h.5a.1.1 0 0 0 .1-.1v-3.65h3.01c.86 0 1.7-.11 2.4-.63a3.28 3.28 0 0 0 1.25-2.67c0-1.16-.43-2.04-1.15-2.6a3.39 3.39 0 0 0-2.27-.7h-3.84ZM75.3 40.88c.71-.5 1.2-1.27 1.2-2.47 0-1.24-.47-2.05-1.2-2.5a4.1 4.1 0 0 0-2.4-.55H69.1a.1.1 0 0 0-.1.1V45.6c0 .07.04.11.1.11h.5a.1.1 0 0 0 .1-.1v-4.16h2.86l3.17 4.15c.06.1.09.11.2.11h.57c.11 0 .11-.09.05-.18l-3.15-4.1a3.33 3.33 0 0 0 1.92-.55Zm-2.53-4.9c.8 0 1.45.06 2.02.4.58.34.99 1 .99 2.03 0 1.05-.43 1.67-1.02 2.04-.56.33-1.22.38-2.05.38H69.7v-4.85h3.08ZM78.34 35.36a.1.1 0 0 0-.1.1V45.6c0 .07.04.11.1.11h.5a.1.1 0 0 0 .1-.1V35.45a.1.1 0 0 0-.1-.1h-.5ZM89.15 44.57l-7.1-9.1c-.06-.08-.1-.11-.2-.11h-.48a.1.1 0 0 0-.1.1V45.6c0 .07.04.11.1.11h.49c.04 0 .1-.04.1-.1v-9.08l7.08 9.07c.07.1.11.11.2.11h.5a.1.1 0 0 0 .1-.1V35.45a.1.1 0 0 0-.1-.1h-.48c-.05 0-.1.04-.1.1v9.11ZM91.16 35.36a.1.1 0 0 0-.1.1v.44c0 .05.04.11.1.11h3.53v9.6c0 .06.06.1.1.1h.52c.05 0 .1-.04.1-.1V36h3.54c.06 0 .1-.06.1-.1v-.45a.1.1 0 0 0-.1-.1h-7.8ZM100.36 35.36a.1.1 0 0 0-.1.1V45.6c0 .07.04.11.1.11h.5a.1.1 0 0 0 .1-.1V35.45a.1.1 0 0 0-.1-.1h-.5ZM111.18 44.57l-7.1-9.1c-.07-.08-.11-.11-.2-.11h-.48a.1.1 0 0 0-.1.1V45.6c0 .07.04.11.1.11h.48c.05 0 .1-.04.1-.1v-9.08l7.08 9.07c.07.1.12.11.2.11h.5a.1.1 0 0 0 .11-.1V35.45a.1.1 0 0 0-.1-.1h-.49c-.04 0-.1.04-.1.1v9.11ZM118.96 35.22a5.28 5.28 0 0 0-5.17 5.3c0 3.43 2.37 5.34 5.14 5.34 1.13 0 2.12-.34 2.84-.82.16-.11.33.67.46.67h.46a.1.1 0 0 0 .1-.1v-2.44a.28.28 0 0 0-.28-.28c-.15 0-.28.13-.3.28-.2 1.47-2.04 2.05-3.25 2.05-2.43 0-4.44-1.79-4.44-4.7 0-2.5 2-4.65 4.44-4.65 1.34 0 2.23.49 2.82.85.07.03.13.05.17-.03l.2-.4c.02-.1 0-.14-.08-.2a5.64 5.64 0 0 0-3.11-.87Z"
    fill="#A7BBD5"
  />
  <path
    d="M67.74 26.3c0-1.37-.72-2.4-2.1-2.62v-.06c.78-.35 1.37-1.08 1.37-2.31a2.4 2.4 0 0 0-1.12-2.12 3.63 3.63 0 0 0-2.08-.51h-3.82a.1.1 0 0 0-.1.1v10.15c0 .06.04.1.1.1h4.54c1.72 0 3.21-.8 3.21-2.73Zm-1.44-4.9c0 .91-.37 1.5-.95 1.82-.42.23-1.01.25-1.63.25H60.6v-4.18h3.28c.53 0 1.05.12 1.49.38.56.33.93.9.93 1.73Zm.82 4.82c0 1.02-.51 1.63-1.23 1.95-.43.18-.93.26-1.46.26H60.6v-4.35h3.31c1.14 0 1.74.03 2.26.33.64.41.95 1.08.95 1.81ZM69.97 18.68a.1.1 0 0 0-.1.1v10.15c0 .06.04.1.1.1h6.27a.1.1 0 0 0 .1-.1v-.43a.1.1 0 0 0-.1-.1h-5.66v-4.22h4.9c.05 0 .11-.04.11-.1v-.44c0-.05-.06-.11-.1-.11h-4.91v-4.2h5.66c.06 0 .1-.06.1-.1v-.45a.1.1 0 0 0-.1-.1h-6.27ZM79.7 26.6h6.03l1.08 2.33c.01.06.05.1.14.1h.52c.06 0 .1-.03.1-.07l-.04-.14-4.29-10.05c-.03-.1-.07-.14-.16-.14h-.52c-.09 0-.13.03-.16.14l-4.46 10.07c-.03.06-.03.09-.03.12 0 .04.04.07.1.07h.49c.07 0 .11-.04.14-.1l1.07-2.32Zm5.84-.59H79.9l2.9-6.48L85.54 26ZM93.32 29.27c1.47 0 2.43-.44 3.14-.88.07-.04.1-.09.06-.16l-.2-.43c-.02-.08-.08-.08-.15-.03a5 5 0 0 1-2.84.85c-2.38 0-4.45-1.87-4.45-4.68 0-2.51 2.02-4.66 4.44-4.66 1.34 0 2.24.48 2.82.86.07.03.13.04.17-.04l.2-.4c.02-.1 0-.14-.08-.2a5.64 5.64 0 0 0-3.11-.87 5.3 5.3 0 0 0-5.17 5.3 5.1 5.1 0 0 0 5.17 5.34ZM107.38 18.77c-.04 0-.09.04-.09.1v4.75h-6.76v-4.75a.1.1 0 0 0-.1-.1h-.5a.1.1 0 0 0-.11.1v10.15c0 .06.04.1.1.1h.5a.1.1 0 0 0 .1-.1v-4.76h6.77v4.76c0 .06.05.1.1.1h.5c.05 0 .11-.04.11-.1V18.87c0-.06-.06-.1-.1-.1h-.52ZM110.43 18.77a.1.1 0 0 0-.1.1v10.15c0 .06.04.1.1.1h6.8a.1.1 0 0 0 .1-.1v-.43a.1.1 0 0 0-.1-.1h-6.2v-4.22h5.44c.05 0 .1-.04.1-.1v-.45c0-.04-.05-.1-.1-.1h-5.44v-4.2h6.2c.05 0 .1-.06.1-.1v-.45a.1.1 0 0 0-.1-.1h-6.8ZM122.56 29.27a3.8 3.8 0 0 0 2.4-.71 2.72 2.72 0 0 0 1.02-2.27c0-1.1-.66-1.8-1.37-2.2-.99-.53-1.99-.64-3.05-1.05-.94-.38-1.53-.88-1.53-1.75 0-.55.16-1.02.5-1.35.44-.43 1.16-.67 2.15-.67a5 5 0 0 1 2.5.68c.08.05.14.03.15-.03l.2-.42c.04-.06.02-.13-.05-.16a5.34 5.34 0 0 0-2.77-.71c-1.18 0-2.06.27-2.64.8-.51.45-.78 1.1-.78 1.9 0 1.12.68 1.79 1.6 2.2 1.17.51 2.14.62 3.06 1.06.73.35 1.28.9 1.28 1.78 0 .73-.27 1.34-.8 1.75-.44.33-1.07.53-1.87.53-1.46 0-2.39-.6-3-1-.06-.06-.1-.03-.14.03l-.2.44c-.03.06 0 .1.06.15.7.47 1.76 1 3.28 1Z"
    fill="#6B7BB2"
  />
  <path
    d="m67.42 11.21-6.75-9.09c-.06-.09-.1-.12-.2-.12H60a.1.1 0 0 0-.1.1v10.15c0 .06.04.1.1.1h.49c.04 0 .1-.04.1-.1V3.17l6.73 9.08c.07.09.11.1.2.1h.5a.1.1 0 0 0 .1-.1V2.1a.1.1 0 0 0-.1-.11h-.48c-.05 0-.1.05-.1.1v9.12ZM80.32 7.2a5.28 5.28 0 0 0-5.19-5.34 5.28 5.28 0 0 0-5.19 5.34c0 2.94 2.33 5.3 5.2 5.3a5.25 5.25 0 0 0 5.18-5.3Zm-.73 0a4.55 4.55 0 0 1-4.46 4.64c-2.49 0-4.43-2.1-4.43-4.64 0-2.5 1.94-4.65 4.43-4.65 2.5 0 4.46 2.14 4.46 4.65ZM88.66 7.52c.7-.49 1.19-1.26 1.19-2.46 0-1.25-.47-2.06-1.2-2.51a4.1 4.1 0 0 0-2.4-.55h-3.82a.1.1 0 0 0-.1.1v10.15c0 .06.05.1.1.1h.5a.1.1 0 0 0 .1-.1V8.1h2.87l3.17 4.15c.06.09.09.1.2.1h.56c.12 0 .12-.09.06-.18l-3.15-4.09a3.33 3.33 0 0 0 1.92-.56Zm-2.54-4.9c.8 0 1.44.06 2.02.4.57.35.99 1 .99 2.04 0 1.05-.43 1.67-1.02 2.03-.56.34-1.22.38-2.05.38h-3.02V2.62h3.08ZM90.3 2a.1.1 0 0 0-.1.1v.45c0 .04.04.1.1.1h3.54v9.6c0 .06.06.1.1.1h.52c.04 0 .09-.04.09-.1v-9.6h3.55c.06 0 .1-.06.1-.1V2.1a.1.1 0 0 0-.1-.11h-7.8ZM106.97 2c-.05 0-.1.05-.1.1v4.4h-6.76V2.1a.1.1 0 0 0-.1-.1h-.5a.1.1 0 0 0-.1.1v10.15c0 .06.04.1.1.1h.5a.1.1 0 0 0 .1-.1V7.13h6.77v5.12c0 .06.04.1.09.1h.51c.05 0 .1-.04.1-.1V2.1c0-.06-.05-.11-.1-.11h-.51ZM110.01 2a.1.1 0 0 0-.1.1v10.15c0 .06.04.1.1.1h6.8a.1.1 0 0 0 .1-.1v-.43a.1.1 0 0 0-.1-.1h-6.2V7.5h5.45c.04 0 .1-.04.1-.1v-.44c0-.05-.06-.1-.1-.1h-5.44v-4.2h6.19c.06 0 .1-.07.1-.11V2.1a.1.1 0 0 0-.1-.11H110ZM124.73 7.52c.71-.49 1.2-1.26 1.2-2.46 0-1.25-.48-2.06-1.2-2.51a4.1 4.1 0 0 0-2.4-.55h-3.82a.1.1 0 0 0-.1.1v10.15c0 .06.04.1.1.1h.5a.1.1 0 0 0 .1-.1V8.1h2.87l3.17 4.15c.05.09.08.1.2.1h.56c.12 0 .12-.09.06-.18l-3.15-4.09a3.33 3.33 0 0 0 1.91-.56Zm-2.53-4.9c.8 0 1.44.06 2.02.4.57.35.98 1 .98 2.04 0 1.05-.42 1.67-1.01 2.03-.56.34-1.23.38-2.05.38h-3.02V2.62h3.08ZM135.2 11.21l-6.76-9.09c-.06-.09-.1-.12-.19-.12h-.49a.1.1 0 0 0-.1.1v10.15c0 .06.05.1.1.1h.49c.04 0 .1-.04.1-.1V3.17l6.73 9.08c.07.09.12.1.2.1h.5a.1.1 0 0 0 .1-.1V2.1a.1.1 0 0 0-.1-.11h-.48c-.05 0-.1.05-.1.1v9.12Z"
    fill="#4268AB"
  />
</svg>
