<svg xmlns="http://www.w3.org/2000/svg" fill="none" viewBox="0 0 1280 380">
  <desc id="d-accessibility">
    Commercial printing machine used at A&amp;O to deliver quality commercial
    print services
  </desc>
  <g clip-path="url(#clip0)">
    <path
      fill="#788187"
      d="M455 156v9h-1v3a1158 1158 0 010 37v51l1 58v71a101 101 0 010 10l1 1 4 1h4v2c3 0 5-1 7-3h89l3 1 2 1 1 1a4 4 0 003 0v-1l1-1h6l1 1h4-1l2-1 5-1a123 123 0 0113 0h19l1 1c2 0 3 0 3-2v-3l1-3V162l-1-2v-4H455z"
    />
    <path
      fill="#788187"
      fill-rule="evenodd"
      d="M296 163v-7h158v46l1 16v91l-1 3-2 1H336v-1l-3 1v2 13l-1 7 1 16v42l-1 3-4 1h-5l-2 1v-1l-2-1h-17v-2l1-1a4 4 0 00-3 0l-1 1v1l-1 1h-1v-28-17l-1-45v-29-26-67-21zm149 1h-1 1zm-2 36v-1-15a591 591 0 010-14v-3-3l-1-5-1-1h-6-1l-1-1 1 1v1c2 5 2 9 2 14v3a136 136 0 010 11 33 33 0 01-2 12h-1-1v-2-18l1-3v-2l-1-5v-5 13h-1l1 10v13a47 47 0 008 0h3zm-13-42z"
      clip-rule="evenodd"
    />
    <path
      fill="#858E95"
      d="M146 396h-1v-18l-1-54v-50l-1-47v-4-2l-1-16v-3-31-7-2l1-2h2l16 4c11 2 21 0 32 1 7-2 13 0 19 1 4-2 8-1 12 0h12c2-2 4-2 6 0h13c2-1 5 0 7 1a3 3 0 003 1l2-1c3 0 4 1 4 4 2 8 1 17 1 26l1 3h12v-3-18l2-7a1 1 0 011-1l5-2 1 4 1 1 1 3v192l1 26v1l-2 5-1-1v-2l-11-1h-2a4 4 0 01-3 0h-3a47 47 0 01-11 0 225 225 0 01-17 0l-17 1-1-1-2 1h-11l-37-1h-12-5-1l-2 1h-2l-2-1h-8l-1-1z"
    />
    <path
      fill="#111717"
      d="M963 397l-1-2-1-5 1-3v-3-38-2h-28l-1 3v44l-1 3-1 1h-3l-11-1v-1l-1-2v-1-16-2c-1-2-3-2-4-2-4-1-9-2-13-1-5 1-9 0-13-1-1 0-2 0-1-2h40l1-5-1-2-3-1H802l-1 8a2 2 0 01-2 1l-4-2-2-3a3 3 0 010-2c2-5 7-7 11-9a3 3 0 013-1h2l15 1h15l3 1 12 2h20l6-2 10-1 11-1h7c3 1 6 0 8-2a2 2 0 000-2 2 2 0 00-1 0H811l-5 1-5 1h-14l-2 1-1 3v38a2 2 0 01-2 1 2 2 0 01-1-2v-29-4h-2c-4-1-5-2-4-6h2l2 1c2-3 2-12 0-15l-2 2h-2c-1-2-1-4 1-5l5-1v-12l-1-2h-15l-6-1a1 1 0 010-1l2-1h32l3-2h4l5 1h86l3-1h4l3-1a2 2 0 012-1l1 1h2a1 1 0 010 1 2 2 0 01-1 1l-16 2h-79l-7 1-6 1h-10-2v27h7a89 89 0 0118-2h104l2-1c1-2 0-3-2-4l-4-1-5-2 3-1h3l4-1h10v-7l-1-1H805l-3 1-1 3v5c-2 1-3-1-5-1l-1-2c-1-5 1-8 6-11l7-4h34c-1 2-3 1-5 2 3 0 5 2 7 3l17 2 14-1 5-1c4-2 8-2 12-2h16c4 0 4-1 5-4l1-3h47l1-4v-7l1-13v-3l-1-2v-1l1-22c0-1-1-3 1-3 2 2 1 3 1 5v1l1 4v41l-1 3v16l1 2v54a2 2 0 000 2h53l2-1v-2-2-9-8l1-4v-77-15-1-3-109-12l-4-1h-3a1 1 0 011-1l6-1 3 1v54l-1 63v124l1-9v-21c0-2-1-3 2-3v24 13h196v1l-1 2H975l-9 1c-2 2-2 5-2 7l-1 1h-1 1z"
    />
    <path
      fill="#828B93"
      d="M1224 259v1a2 2 0 01-1 0h-191c-5 0-5 0-5-5v-16c1-2 2-2 3-2h1l2 1h22l6-1h3l3 1h147l2-1h2l5 1 1 4v17z"
    />
    <path
      fill="#788187"
      fill-rule="evenodd"
      d="M716 156a2 2 0 011 0h21l1 2v230l-1 2 1 1v1l-1 1a3 3 0 010 3l-1 3v2l-1-2v-1l-2-1h-2l-8 1h-3l-10-1h-58l-11 1-3-1a1 1 0 010 1 2 2 0 01-3-1h-11l-1-2v-5-232a3 3 0 010-2l3-1h86l2 1h1zm10 206zm-1-28v-1l1-1-1 2zm-2-57z"
      clip-rule="evenodd"
    />
    <path
      fill="#788187"
      d="M305 116l-7 10-2 3v1l-1 2 1 1h298c1-1 0-2-1-2h-5l-9-2h-38l-2-1-3-1-1 1h-3a14 14 0 00-4 0l-16-1h-8-32l-1 1-1-1 1-3 1-2 2-7v-1H307l-2 2z"
    />
    <path
      fill="#141A1E"
      d="M297 129l-2 4 1 9a79 79 0 011 11l1 2a1 1 0 001 0h318l5-1v-23l-1-2h-7c-1-1 0-2 1-3 0-1-2-1-1-3h4c3-3 3-7 1-10l3-3-2-2c-3 0-6 1-10-1l-6-2-2-1v-2a1 1 0 011 1v-1l3 1 5 2c4 0 7 0 10-4l2-2 1-3 1 1v2a224 224 0 000 24l-1 1h1v27l1 4h82l29-1 1-3-1-10-1-7v-2l1-1 1-1v-2-1l-1-7a2 2 0 001-1v-4h1l1 11 1 7v7l-1 8 1 2v3h-1l1 4-1 4v85l1 3 2 1h3l3-1v-2-26-17-44-3h-3v-1c-1 0-2 0-2-2 3-2 2-6 2-9-3 0-4-2-5-5h8l1-7v-3a1 1 0 012 0 1 1 0 010 1v10h3l7 1-1 1h-9v118l1 8-1 36 1 2v2l-1 2c0 1-1 3 1 4h2l1 1 3 1h22c-1 2-2 1-3 1h-22l-3 1v72l-1 4-2-4a2 2 0 010-2 13 13 0 000-1c-1 2-1 1-2 0l-5-6c-1-2 0-2 1-2h3a2 2 0 002 0V255c0-1 1-3-1-3h-7l-1 4v132a1 1 0 01-1 0h-1V156H624v3l1 230-1 6-1-3V159l-1-2H456l-1 4v147l1 82-1 5a1 1 0 01-1-1v-67-14-151l-1-5h-37-119l-1 6 1 104v129l-1-12v-63l-1-144v-3l-1-1v-1-15l-22 1-5-1H150l-6-1h-1a1 1 0 010-1h149l1-1h1c0-1 0-1 0 0v-3-7l-1-4v-6c0-2 1-4 3-5h1z"
    />
    <path
      fill="#262B2D"
      d="M752 395v-77l2-1h27l1 1v15l-7 1v21l7 1v34h2v-42h9v47h-9l-1-2a4 4 0 01-5 3h-6l-5-1-2 1h-2a5 5 0 00-5 0l-5-1h-1z"
    />
    <path
      fill="#818A91"
      d="M454 355v26l1 14 1 3-1 1h-3l-3-3H340l1 1-7 2v-2l-1-1v-1-41l12 1 1 1-2 1c-3 2-7 4-7 8v2c2 3 3 6 7 7l6 1 9 1a4 4 0 013 1l1 4h59l3-1c2-2 5-1 8-2 4 0 8 0 11-2 3-1 4-3 5-6 3-4 2-8-1-12-1-1-3-2-1-4 2 0 5-1 7 1z"
    />
    <path
      fill="#89949A"
      d="M1223 386v-1l-1-1v-7-10a6 6 0 00-3-5l-5-4-2-1-3-2-2-1h-2l-7-4c-2-1-2-2-1-4l1-2-1-3 2-1h1c-1-5 1-9 2-13l1-2c3-4 3-8 0-13l-5-7c-1-2-3-3-6-3-2 0-3-1-5-3l-1-1v-10l3-2 8-5c8-2 16-4 23-9h1c2-1 1-3 1-4l1-1h-1c-1 0-2 1-2-1h4v82l-1 38z"
    />
    <path
      fill="#2E3436"
      d="M1076 2v77l-3 1h-96v-3l-1-5v-1-10a51 51 0 000-10l1-36V2l2-1h93l4 1z"
    />
    <path
      fill="#454A4D"
      d="M625 121l-1-15 1-7 1-1h20l4-1 19 1h7l11-1 11 1 3 2 1 15h2l2 4 1 8c-1 2-2 3-5 3a1 1 0 010-1v-9c0 1 1 2-1 3h-61l-11-1-4-1z"
    />
    <path
      fill="#89949A"
      d="M1224 259l-1-2v-18l-5-1a2 2 0 011-1 1 1 0 001 0l-5-4-8-4-5-2c-3-1-5-4-6-6v-3l7-14 4-10v-2l-2-8-1-3-7-8c2-1 2-3 2-5v-4l1-1 1-1 2-1c3-3 7-4 10-5l5-2a9 9 0 006-8v-3l1-3 1 11-1 41v64l-1 3z"
    />
    <path
      fill="#111717"
      d="M749 110c1-1 1 0 1 1l1 5c2 1 2 0 3-1l6-4 1-1 1 5v-2a2 2 0 012-1l2 1 1 2v5l1 2h47l1-2 1-3 1-1 1 5 1 1h19l12-3-5-1-3-1c-1-1-2-1-1-2l5-1h10c4 0 6 2 6 6v2h68v-6l-1-5v-2-2l1-4V72l7-1 2 2 2 3 11-1c-1-2-3-4-5-4l-8-3 2-2h6l10 1h15a4 4 0 013 1 2 2 0 010 2c-2 2-5 2-8 3s-7 3-11 3l-1 1 1 1a3 3 0 010 2v1h-10l-2-1h-9c5 0 5 0 5 6l1 8v2h5V85l1-4h2l1 4-1 16c0 4 3 6 3 9l3 1 1 1c-3 4-6 8-12 8v3a2 2 0 01-2 1l-8 1h-1c-3 2-7 1-11 1H764l-8-1c-2-1-3-1-5 1-2-2-1-4-2-6v-10z"
    />
    <path
      fill="#788187"
      d="M296 129l-3 4-3 1H144l-2-1v-1l4-4h2l3-2 8 2h2l-7-3-2-1 1-2a2 2 0 012-1l12 4c2 2 5 3 8 3a1173 1173 0 0138-3l4-4c-1-2-2-1-2-1h-57l-4-1c2-3 4-4 7-4h141l2 1c0 2-1 4-3 4h-66l2 1c0 3-2 4-3 7h59c1 0 2-1 3 1z"
    />
    <path
      fill="#262B2D"
      d="M930 394h2v-47l1-3h28l1 3v48h-9a6 6 0 00-5 1c-2-1-4-2-5 0l-1 1h-2l-1-2-6 1c-2 0-3 0-3-2z"
    />
    <path
      fill="#3D4246"
      d="M1225 140h-1l-3-1h-141l-28 1 26-1 3 1-2 1h-7l-19 1h-24-1v-1-1l3-1h10l4-1c1-2 0-4 2-6h8l19-1h153v7l-2 2z"
    />
    <path
      fill="#818A91"
      d="M701 100c-5-3-11-1-16-2h-45l-14 1v-4a2 2 0 000-2 1 1 0 010-1v-1a2 2 0 000-2 2 2 0 001-3l3-1h66c3 0 4 1 5 4v11z"
    />
    <path
      fill="#454A4D"
      d="M117 202l-9-5-50-29-1-1a1 1 0 01-1-2l4-6h2l44 19h2l3 2a10 10 0 010 1v-1l-2-2h4c2 1 4 0 5 2l-2 3c2 5 5 6 9 6h9l2 1-1 1a10 10 0 00-10 4l-5 5-3 2z"
    />
    <path
      fill="#89949A"
      d="M1227 131l-4 1h-123v-1l1-1h16c0-3 3-3 5-3l5-2 9-1 17-1 41-1h10l6-3 1-1h1l1-1a1 1 0 011 0l13 14z"
    />
    <path
      fill="#141A1E"
      d="M976 70c1-2-1-2-2-2h-15l-17-1a3 3 0 00-2 1l11 3 1 2 2 2v1l-13 1-2-5h-8V62v-4l1-3v-3a3 3 0 012-1l31 2h7l4 1v6-6a2 2 0 011-3v18l-1 2a1 1 0 010-1zM118 180l-5-2-1 1v-1c-2-3-2-6 2-8l4-1 1-1v-2h-6l-5-2h-1a8 8 0 00-1-1l-1-1h-2l-1-1h-2l-1-1h-1l-1-1-1-1-23-19-7-7-1-1 1-1 4 4 25 21 12 7 12 3v-1l7-4v-15a6 6 0 013-5l10-7 2-1a1 1 0 010 1 1 1 0 010 1l-9 7c-2 1-3 3-4 6v12l3-1 8-2h3v3l1 3v1 7l-1 2-7 7-1 1-1 2 1 1 2-2 4 2a2 2 0 010 2l-6 2-8 1h-3l-4-1-1-3v-4z"
    />
    <path
      fill="#676E74"
      d="M1214 117h-1a1 1 0 01-1 1h-1l-5-1h-1l-1-1H998l-23-1a44 44 0 01-14-4l-1-1 1-1h11l3 2h3l23 1h50a2 2 0 012 0h3c3 0 5 1 7-1a5 5 0 014 0l3 1h7l42 1h69c8 0 15 0 22 2l4 1v1z"
    />
    <path
      fill="#727B80"
      d="M1214 116l-22-2h-47l-16-1h-59l-3-1c2-2 3-1 5-1 1 0 3 0 4-2h138v7z"
    />
    <path
      fill="#2E3436"
      d="M296 129h-49l-3-1-4-4-3-3-5-1v-1h70l2-3h1l-1 2-7 11h-1z"
    />
    <path
      fill="#141A1E"
      d="M553 115l1 3v7a2 2 0 002 0c0-3 2-4 4-6h29c2 0 1 2 2 3 5-2 6 3 9 5 2-1 3-2 1-5l2-3a8 8 0 017 3v7h-59a1 1 0 010-2v-7l1-4 1-1z"
    />
    <path
      fill="#788187"
      d="M553 115l-1 4a2 2 0 01-2 1 601 601 0 01-25-1h-25l-3 1h-23c-1-1-2-1-1-2l1-3v-1h77l2 1z"
    />
    <path
      fill="#2E3436"
      d="M610 122l-8-3-3-1h-2v-1l-6-2-3-2-20-8a2 2 0 010-4h2l3 1 9 3 1 2h-5 3l16 1 16 1c4 0 6 5 4 8l-5 5h-2z"
    />
    <path
      fill="#1F2325"
      d="M925 72l1 3 1 14-5 1-5 1c-5 1-7-1-7-5l-1-2a1 1 0 00-1 0l-1 4-1 3c-3-1-3-2-2-6l-6 2h-5a2 2 0 010-2l2-2 20-5c1 0 3 0 3-2l-2-4v-2a2 2 0 012-1c3 1 5 1 7 3z"
    />
    <path
      fill="#727B80"
      d="M705 115h27v2a14 14 0 000 12v2h-5l-2-1h-15v-2c4-4 3-8 0-11l-3-1-2-1z"
    />
    <path fill="#818A91" d="M1076 2h-99V0h99v2z" />
    <path
      fill="#595F65"
      d="M762 71l10-3h19a1 1 0 010 1c-2 2-1 4-1 6v2h-11l-2-1-8 2-2 1c-1 1-3 2-5 1l-1-3v-2l1-4z"
    />
    <path
      fill="#788187"
      d="M107 178l-14-5-33-14a4 4 0 01-3-2l5-4 31 13 2 1 4 4c2 1 2 1 2 3h1l2 2c1 1 3 0 3 2z"
    />
    <path
      fill="#1F2325"
      d="M1076 109v3h-22-77l-1-4v-6-4l2 1v9h11l5 1h11l28 1 23-1h4l3-1h13v1z"
    />
    <path
      fill="#141A1E"
      d="M825 68h3l10 1 10 4 3 3a5 5 0 005 1l6-1 2 2-15 3c-3-3-8-4-12-5h-11l-3 1h-4a3 3 0 01-3 0l-1-2a2 2 0 010-2h1v-1l5-3h2l2-1z"
    />
    <path
      fill="#595F65"
      d="M928 95l1 1v13c-2 2-5 1-7 1l-17-1-4-1 2-2 7-4 9-3 3-2 5-4v1l1 1c-1 0 0 0 0 0z"
    />
    <path
      fill="#454A4D"
      d="M137 223l-4-2-8-7c-4-3-4-7-3-11v-1l12 1h2a1 1 0 010 2h-10 9l2 1 1 1v14l-1 2z"
    />
    <path
      fill="#727B80"
      d="M96 158v1h1l3 3v1l2 2 1 2a2 2 0 01-2 0l-38-16 4-4 4 1 23 10h2z"
    />
    <path
      fill="#676E74"
      d="M1075 109h-12l-1-1a2 2 0 011-1c2-2 2-5 2-8l1-6 1-2c2-2 5-4 8-4v2l1 4v7 4l-1 5z"
    />
    <path
      fill="#1F2325"
      d="M606 103h-4l8 4-1 1-3-1-28-11h-1l-1-1v-2c3 1 5 3 8 3l10 3h29v1c-5 7-11 7-17 3z"
    />
    <path fill="#788187" d="M588 113l9 4-2 1-6 1h-34l-2-1v-3l1-1h28l6-1z" />
    <path
      fill="#595F65"
      d="M705 115l5 2 3 4v6l-3 2-2 1-9 2h-71l-3-1v-1h73l3-1a1 1 0 011 0c4 0 5-1 4-6l-2-8h1z"
    />
    <path
      fill="#676E74"
      d="M816 76l4 1 3-1 1 1a1 1 0 01-1 1l-6 2h-43l-5-2 1-1 6-1 14 1 3-1h2l1 1 1-1 2 1h14v-1l-2-2-5-1 2-1-2-5v-1a9 9 0 018 2l1 5 1 2v1z"
    />
    <path
      fill="#89949A"
      d="M539 84l2-2 3 2 23 9 5 4a2 2 0 011 1 11 11 0 00-1 2h-1a2 2 0 00-2-1l-7-2-20-8h-3a2 2 0 01-1 0l-1-1v-1l1-1a2 2 0 012 0l11 5c-5-2-9-4-12-7z"
    />
    <path
      fill="#676E74"
      d="M977 51v3h-1l-30-1-13-1-1 3v-4c7-2 13-4 20-1h9l15 1h1z"
    />
    <path
      fill="#727B80"
      d="M749 110v3l-1 1a4 4 0 00-3 6l3 4 2 2s0-1 0 0h1v3h-1l-9-3h-1l-1-11-1-1v-4h11z"
    />
    <path
      fill="#373C40"
      d="M122 203l-5-1 7-7 5-4 7-1a3 3 0 013 2l-2 1v1c-1 5-5 7-10 7l-4 1-1 1z"
    />
    <path
      fill="#676E74"
      d="M838 70l-11-1v-1h85l12 3 2 1-8-2h-2a5 5 0 00-4 0h-49-25z"
    />
    <path
      fill="#3D4246"
      d="M538 89h2a2 2 0 011 1l25 10 2 1v4l-32-13a66 66 0 001-3 1 1 0 011 0z"
    />
    <path fill="#373C40" d="M137 223v-17-1h4v-1a2 2 0 012 1v19l-6-1z" />
    <path fill="#676E74" d="M154 119h65v1l-2 1-3 1h-54l-5-1-2 1 1-3z" />
    <path
      fill="#1F2325"
      d="M1053 79h22v6a3 3 0 01-2 1h-12l-1-3c-1-2-2-2-4-1h-1-1a2 2 0 00-1 1 1 1 0 01-1-1c-1-1 1-2 1-3z"
    />
    <path
      fill="#595F65"
      d="M1073 85h2v2l-9 5-1 13v-1l-2 5h-5l2-2 2-2v-6l1-7c-1-3 2-6 5-7h5zM63 150v1l3 2 36 15 5 3a1 1 0 010 1h-4l-8-4-28-12-5-3 1-3zM806 66l1 2 2 5-3 1a2 2 0 01-1 0l-12 3v-2l2-1h2l4-1-2-1h-3a1 1 0 010-1 1 1 0 010-1v-3l10-1z"
    />
    <path
      fill="#0D1933"
      d="M761 110l-10 8-1-6-1-2 2-3h9a1 1 0 012 1 2 2 0 01-1 2z"
    />
    <path
      fill="#676E74"
      d="M732 131l-2-7a10 10 0 012-8v-1h3l1 1v11l2 4-1 1h-2l-3-1z"
    />
    <path
      fill="#373C40"
      d="M928 94l-1-1v2l-8 4c-2-2-1-4-1-7 1-2 3-2 4-2l5-1v1l1 4z"
    />
    <path
      fill="#454A4D"
      d="M797 74h-1l-3 2v1h-3l-1-2 1-5 1-2 5-1 1 1-1 3c1 2 2 1 3 2l-2 1z"
    />
    <path
      fill="#595F65"
      d="M572 97l-13-6-17-8-1-1 23 9 7 3h2c2 0 1 1 0 2l-1 1z"
    />
    <path
      fill="#1F2325"
      d="M761 110v-2l-1-1 1-27v-4a1 1 0 011 0l1 4v4 19 4a1 1 0 000 1l1 4v1l-2 1v4l-1-8z"
    />
    <path fill="#454A4D" d="M738 131c-2 0-2-1-3-3v-9-4h2v5l1 7v4z" />
    <path fill="#2E3436" d="M57 157l3 2-3 7-4-2 4-7z" />
    <path
      fill="#676E74"
      d="M538 86v1l-5-1-2-1 4 2 2 1-1 1-7-3-3 6h-1l4-9 9 3z"
    />
    <path fill="#2E3436" d="M539 84l2 1 12 6 1 1v1l-16-7 1-2z" />
    <path fill="#373C40" d="M929 109l-1-14h2v8l1 5v1l-1 3c-2 0-2 0-1-2v-1z" />
    <path
      fill="#2E3436"
      d="M456 399l-1-4 1 1h9l-1 3h-1a1 1 0 01-1 0l1-1h-1-1-1-3l-1 1zM816 73l-2-5h1l3 1c1 0 2-1 3 1l-5 3v-1a1 1 0 010 1z"
    />
    <path
      fill="#676E74"
      d="M627 89v1a2 2 0 01-1 1v2a1 1 0 011 1l-1 5h-1v-3-1l1-7 1-2v3zM821 70l-5-1-1-1h8v1l-2 1z"
    />
    <path fill="#595F65" d="M159 128l-8-2v-1h2l5 2 1 1z" />
    <path fill="#2E3436" d="M159 128l-8-3 1-1 9 4h-2z" />
    <path fill="#141A1E" d="M1224 266h-4l1-1 1-1 1-1 1 2v1z" />
    <path fill="#89949A" d="M1224 264h-1v-4h1v4zM963 401l1-2h1v3l-2-1z" />
    <path fill="#858E95" d="M573 96v-2h2v1a2 2 0 01-1 2c-1 0-2 0-1-1z" />
    <path fill="#89949A" d="M151 125v1l-3 2 3-3z" />
    <path fill="#676E74" d="M932 58l-1 4 1-4z" />
    <path fill="#89949A" d="M738 393l1-2-1 5v-3zm193-285l-1-4 1-1v5z" />
    <path fill="#454A4D" d="M1076 93l-1-4 1 4z" />
    <path fill="#595F65" d="M1075 109v-5h1v5h-1z" />
    <path fill="#788187" d="M1227 135v-4 4z" />
    <path
      fill="#595F65"
      d="M1223 388l-1-1 1-1 1 2h-1zM575 95v-1l1-1 1 2a1 1 0 01-2 0z"
    />
    <path fill="#454A4D" d="M823 69v-1h2l-2 1z" />
    <path fill="#727B80" d="M738 119v2l-1-1 1-1z" />
    <path fill="#454A4D" d="M625 95v1h-1l1-1zM1076 104h-1l1-4v4z" />
    <path fill="#3D4246" d="M738 114l1 1h-1v-1z" />
    <path fill="#454A4D" d="M827 68v1h-1v-1h1z" />
    <path fill="#2E3436" d="M762 76h-1v-1l1 1z" />
    <path fill="#676E74" d="M538 89h-2v-1a1 1 0 012 0v1z" />
    <path fill="#788187" d="M1227 138l-1-1h1v1z" />
    <path fill="#454A4D" d="M1075 87v1-1z" />
    <path fill="#2E3436" d="M1224 264z" />
    <path fill="#1F2325" d="M737 119v1-2 1z" />
    <path fill="#262B2D" d="M142 132l-1 1v-1h1z" />
    <path fill="#1F2325" d="M737 117z" />
    <path fill="#373C40" d="M928 95h-1 1z" />
    <path fill="#595F65" d="M141 132h1v1h-1v-1z" />
    <path fill="#1F2325" d="M927 90z" />
    <path
      fill="#788187"
      d="M144 156h128v1l7-1h16v17c-1 0-1 0 0 0v1h-2v-5l-2 2-4 1-1 11v18h-14c-1-11 1-23-2-33h-4l-3 1-3-2h-18l-3-2-3 2-22-1-1 1-14-2h-31l-6-1-3 1-16-5a2 2 0 01-1-1v-1l1-2h1z"
    />
    <path
      fill="#595F65"
      d="M140 185v-2a2 2 0 013-1v20c-2 1-2 0-3-2l-1-13 1-2z"
    />
    <path
      fill="#454A4D"
      d="M143 182l-3 1-4-1c-1-1-3 0-2-2l1-1 3-1h3l1-6v-1l1-1v12z"
    />
    <path
      fill="#141A1E"
      d="M140 200l3 2v3h-2l-3-1h-2l-12-1h-2v-1h4c4 0 8 0 12-2a2 2 0 012 0z"
    />
    <path fill="#595F65" d="M143 171h-1l1-8v8zM143 159v3l-1-2 1-1z" />
    <path
      fill="#818A91"
      d="M454 313v41H333l-1-4v-25l1-1-1-5v-7h10c2 1 1 2 0 3l-4 3c-2 3-3 6 0 9 3 4 6 7 12 7h10l1 1 2 3v1h61l1-3c1-2 3-2 4-2l12-1c3 0 8-6 8-9s-1-5-3-7l-2-3v-2h8a2 2 0 012 1z"
    />
    <path
      fill="#111717"
      d="M333 324v30h121v1h-13l-3 1h-89l-4-1h-12v39a1 1 0 010 1v1l-2 1h-5l-1-1h7v-70l1-2zm9-11h-9v11l-1-1v-11h122v1h-10l-3 1h-96l-3-1z"
    />
    <path fill="#595F65" d="M431 176l1 4v19l8 1h4l-13 1v-25z" />
    <path
      fill="#818A91"
      d="M1022 267l1 9-1 81v14l-1 6-1-4a152 152 0 010-17l-1-2-1-3-1-2-6 1c-3 0-7-1-9-3h-2l-5-3-4 2c-2 0-2-1-3-2l-3-1c-3 0-4-1-4-4v-5h-3c-2-1-2-3-2-5v-19l-1-5v-22l-1-14-2-2 2-1h40l8 1z"
    />
    <path
      fill="#141A1E"
      d="M964 258l-1 2v22c-2 0-1-2-1-3v-15l-1-2-3-1h-43l-3 1v49l2 1-1 5-4 2-12 1c-6-1-13 0-19 2l-8 1h-21l-13-5h-1l6-1v-1h-33v1l-13 8 1 8a2 2 0 01-1 0 3 3 0 01-2-2v-1c0-6 0-6 5-9l5-5h89l14-2v-1c1-1 2-2 1-3l-3-1-10 1h-34a8 8 0 00-6 0l-4 1h-39c-2 0-4 0-5 2h84l4 1h-93-1l-1-1-6 2-1-5h-26a27 27 0 01-7 0l-4-1 3-1h17l3-1v-2l3-4h74l4-1c1-1 0-4 2-5 1-1 3 0 5 1 3-2 6-2 10 0h28l3-1v-1l1-12v-24-2-66l1-43a12 12 0 00-1-4v-1h55c2 1 2 3 2 4v61 3l1 5-1 12c-2 2-1 5 0 7v3 20l-1 1z"
    />
    <path
      fill="#262B2D"
      d="M917 393h-5a2 2 0 01-3 0H806a2 2 0 010-2v-11l1-1 1-1c2-5 7-5 11-6h7a83 83 0 0024-3h25c6 2 11 4 17 3h4c4 2 9 1 13 2 2 0 3 1 4 3 0 4 2 8 3 11l1 2v1 2z"
    />
    <path
      fill="#1F2325"
      d="M908 334h-2l3 2c3 0 6 0 8 3 1 4 0 5-4 5H807l-1-4c0-3 0-3-3-4l-2-1 1-1 3-1h65l13 1 1 1a145 145 0 0017-1c-2-2-2-4-1-7a2 2 0 012-2h14v8l-1 1h-4l-5-1v0l2 1z"
    />
    <path
      fill="#282E30"
      d="M883 334h-82v1h2c3 0 4 2 4 5v4l-3 1a1 1 0 010-2c0-2-1-4-3-5l-4-3-1-2 5 1v-9h104l-5 2 1 7-10 1h-6a3 3 0 01-2-1zm49-19h31v27h-31v-27z"
    />
    <path
      fill="#1F2325"
      d="M806 346h103l8-1v4l-10 2-14 1h-1c-5-1-10 1-15 2l-16 1c-7 0-14 0-21-3l-6-1h-23l-3-1-1 3v-3l-11 6-3 4c-1-2 0-4 2-5l8-6 3-3z"
    />
    <path
      fill="#595F65"
      d="M1223 384v1h-22l-79-1h-73l-18 1-3-1-1-1v-1-1l1-1 3-1h119l20 1 7-1 25 1h9c4 0 8 1 12 4z"
    />
    <path
      fill="#262B2D"
      d="M900 367h-80c-1-2 0-2 1-2l5-1v-6l3-1h69l2 1a2 2 0 011 1l-1 8z"
    />
    <path
      fill="#727B80"
      d="M1021 373v3l1-5v10a1 1 0 01-1 0c-1-3-3-3-6-3h-21l-18-1c-4 0-5-1-6-5l-1-8-1-20v-10-13-3-17-10-22-2a4 4 0 014 0v61a248 248 0 004 40l5 2 12 1h20a8 8 0 018 2z"
    />
    <path
      fill="#1F2325"
      d="M842 366h34l8 1 6 1h10c6-1 12 0 17 3v19h-2l-4-15-4-1-14-1h-3l-16-3-3-1h-17c-4 0-8 2-11 3h-4l-21 1-7 2-2 1-2 3v-8c2-2 6-3 9-3h22c1 0 3 0 4-2z"
    />
    <path
      fill="#454A4D"
      d="M965 262l-1-4h1a1 1 0 011 0c4 2 9 2 14 2l8-2 4-2 6-7 1-4 1-8v-10a25 25 0 00-1-11v-8l1-25v-9c0-7-2-14-4-20l-2-4c-1-5-4-6-8-7-5-1-9-1-13 1-3 2-5 3-6 6 0 1-1 2-2 1v-6c2-3 5-5 10-5h12c4 0 6 1 8 3l3 3c1 2 3 3 3 6l2 2v25l-1 4v69l1-3 1 3v4c1 2 0 3-2 4l-2-2-9 4-8 1h-17a2 2 0 01-1-1z"
    />
    <path
      fill="#3D4246"
      d="M1002 154l-2-4-8-10h-21l-6 5c-1-2 0-11 1-12l5-1h48l3 1a8 8 0 010 7h-6l-3 1h-8l-11-1c3 2 6 3 8 6l1 3-1 5z"
    />
    <path
      fill="#282E30"
      d="M900 358h-73v7h-6l-1 2a2 2 0 01-2 0h-15a3 3 0 01-2-1v-9h125v7l-1 2-9 1-1-1v-7h-12a4 4 0 01-3-1z"
    />
    <path
      fill="#2E3436"
      d="M1028 140l1 2-1 6v3l1 4-1 8v59l-1 35 1 6h4c1 2 0 2-2 3h-1-2v1l-1 16v19l1 3a3 3 0 000 4v6l-1 1v12a4 4 0 000 4v8l-1 2v29l-1 3a1 1 0 01-1 0v-40l1-65v-6a3 3 0 001-2v-11-94-9l-1-2 1-5a4 4 0 013 0z"
    />
    <path
      fill="#0D1933"
      d="M894 314h-90l1-2 5-2h36l9-1c3 0 6 2 8 1 10-2 20-1 30-1h15l1 3-3 1-2-1-2-1-2-1-4 1v2l-1 1h-1z"
    />
    <path
      fill="#595F65"
      d="M1021 381h1v3h-2l-7 1h-3l-6-1h-28c-5 0-10-3-10-8l-1-2 1-28v-17l-1-3v-16l1-2v-41h1a3 3 0 011 3v30l-1 22 1 28 1 21 1 6a7 7 0 006 3h34l11 1z"
    />
    <path
      fill="#676E74"
      d="M1023 150v76l-1 38-2 1c-1 1-2 0-2-2v-1h1v-1l1-15v-13-49-21-11l-1-2a5 5 0 011-6l1 2 2 4z"
    />
    <path
      fill="#101F40"
      d="M760 309h6a3 3 0 003 0h24v6h-32l-1 1-7-1-2-2v-4h2a1 1 0 012 0h5z"
    />
    <path fill="#282E30" d="M792 346h-8v-29h7c3 1 3 3 2 6l-1-3 1 23-1 3z" />
    <path fill="#454A4D" d="M1024 145l1-1 1 9v72l-1 32v6h-1V145z" />
    <path fill="#595F65" d="M1028 140h-6v-7h1l2-1h20l2 1-1 7h-18z" />
    <path
      fill="#262B2D"
      d="M966 267l-2-4 7 1h8l8-1 12-3h4c2-3 2-3 6-1l3 1a4 4 0 013 3h1v2h2l4 1v1h-8l-3-1-22-1h-5l-3 1-15 1z"
    />
    <path
      fill="#373C40"
      d="M792 346v-27l1 3v-4h-9l7-1h7l-1 3-4 4v19-10h3c2 2 3 4 5 4 3 2 4 4 3 8l-12 1z"
    />
    <path fill="#454A4D" d="M965 374l1 2a8 8 0 009 8h47v2h-53l-4-3v-9z" />
    <path
      fill="#2E3436"
      d="M1015 263l-1-1-8-4h-2l-1 3-2-1v1l-19 3h-16l-2-1v-1c9 2 17 1 25 0l4-1 8-4 1 3 2-2v-2l-1-1v-1l3-2 3 1 4 1 1 1c0 2-1 1-2 1l3 1v6z"
    />
    <path
      fill="#595F65"
      d="M1026 315v-7-1-5-1-9-23l1-3c2 0 2 2 2 3v30l-1 9v64a2 2 0 01-1 1 1 1 0 01-1 0l1-25-1-5v-20-5-3z"
    />
    <path fill="#1F2325" d="M900 358h16v8l-5 1h-11v-9z" />
    <path fill="#2E3436" d="M962 387l-1-3v-40h-28v48l-1 2v-50h31v41l-1 2z" />
    <path
      fill="#595F65"
      d="M1023 150l-2-3-1-3h-1v6a2 2 0 010 2v10l-1 6-1 9v3l-1 2-1-4v-20-1-1-1-1-2-1c0-3 2-5 3-8v-1-1h5v9z"
    />
    <path fill="#282E30" d="M915 334l1-1v-7h-7l1-1h16v9h-11z" />
    <path fill="#141A1E" d="M775 350v-11l1-1c1-2 2-3 4-2 2 3 2 12-1 16l-4-2z" />
    <path
      fill="#2E3436"
      d="M807 371v9l-2-2-3-4-3-2-4-6v-1l4 1 8 3a1 1 0 010 2z"
    />
    <path fill="#1F2325" d="M1026 343v5l-1 2v28l-1 6h-1v-10l1-3 1-29v-3l1 4z" />
    <path fill="#3D4246" d="M925 325h-14l-2 1h-1l-2-1H801h124z" />
    <path
      fill="#282E30"
      d="M806 346l-3 4c-3 2-6 3-8 6l-2 4v2l1 3v25l-1 3-1-2v-40-3c2-1 1 1 1 1l1 5 7-7 5-1zm198-206h12v1l-1 3-9 1-2-1a7 7 0 010-3v-1zM795 333l-2 1v11-21l5-5v-2l5-1-3 4-7 5 2 8z"
    />
    <path fill="#373C40" d="M801 347v1l-8 8v-6l-1-2h-8 1l16-1z" />
    <path fill="#141A1E" d="M895 314l1-2-2-2 7-1v1l3 2h-2l-1 2h-6z" />
    <path
      fill="#262B2D"
      d="M966 308v21l-1-1v-18l1-2zm-159 61l-8-3h2l5 1c2 1 2 1 1 2z"
    />
    <path fill="#454A4D" d="M1015 263v-4l1 1 2 3 1 2 3-1v2l-4-1-3-1v-1z" />
    <path fill="#1F2325" d="M1026 372l1 1h1v7l-1 1-1-1v-8z" />
    <path fill="#141A1E" d="M962 309l1-7-1 7z" />
    <path fill="#1F2325" d="M925 366v-5l1-2-1 7z" />
    <path fill="#373C40" d="M1015 144l1-3 2 1 1 1a5 5 0 01-4 2v-1z" />
    <path fill="#282E30" d="M908 334l-2-1h4l1 1h-3z" />
    <path fill="#1F2325" d="M793 365v-3l2 3v1c-1 0-1 1-2-1z" />
    <path fill="#262B2D" d="M761 315l-2 1-2 1c-1 0-2-1-1-2h5z" />
    <path fill="#1F2325" d="M756 315l3 1v1h-4l-1-2a1 1 0 012 0z" />
    <path fill="#262B2D" d="M911 367l5-1v1h-5z" />
    <path fill="#141A1E" d="M963 288v-4l1 1v3h-1z" />
    <path fill="#282E30" d="M1018 142l-1-1h1v1z" />
    <path fill="#141A1E" d="M904 312l2 1-2-1z" />
    <path fill="#0D1933" d="M791 315h2-2z" />
    <path fill="#454A4D" d="M1026 380h1v1l-1-1z" />
    <path fill="#1F2325" d="M917 336z" />
    <path
      fill="#89949A"
      d="M1030 238h-2l-1-2 1-9a246 246 0 011-9v-39l-1-3v-3l1-3h-1v-3-3l1-4v-2-5l4 1h1l6 2h1c2 1 4 3 7 3l1 1c2 2 3 3 5 3l2 2v2a2 2 0 010 3 4 4 0 00-2 3v1l-4 4-2 3c-6 5-7 14 0 19l3 3a4 4 0 002 2c5 1 7 4 10 7v1c2 2 3 5 3 7l-2 5c-4 2-8 4-13 4l-7 4h-1a5 5 0 00-4 1h-1l-2 2h-2v1h-1l-1 1-1-1-1 1zM1220 388h1-1z"
    />
    <path
      fill="#454A4D"
      d="M1064 238h-28l-1-1h1l1-1h12l3-1h3l2-1h4a18 18 0 008-1l20 1 4-1h89l1 1 8 1 10 1c1 0 3 0 2 2a123 123 0 01-17-1h-38l-3 1h-3l-3-1h-41l-3 1h-31z"
    />
    <path
      fill="#595F65"
      d="M1028 170h1l-1 6 1 2v40l-1 2v39h192l3 1-2 1h-192l-1 3-1-2v-64-28l1-1v1z"
    />
    <path
      fill="#89949A"
      d="M1142 237h71l3 1h-150l-2-1h78zm-106 1h25l-5 1-23-1a2 2 0 013 0z"
    />
    <path fill="#595F65" d="M1216 238l-3-1 1-1 5 1h1v1h-4z" />
    <path fill="#676E74" d="M1036 238h-3l-2-1h2l1-1h1l1 1v1z" />
    <path
      fill="#454A4D"
      d="M718 199l-1-1c3-3 4-8 4-12v-14c0-4 0-8-3-12l-1-3c3 0 4 1 6 4l2-2c3 4 4 33 0 38l-2-1c-1 2-3 3-5 3z"
    />
    <path
      fill="#282E30"
      d="M718 199l6-4 1 2c3-13 2-25 0-38l-2 5c-1-3-2-6-5-7h-1 11v42h-10z"
    />
    <path
      fill="#676E74"
      d="M718 157l2 4 2 9v18l-3 9-2 1v-1c2-4 1-8 2-13v-12l-1-9-1-6h1z"
    />
    <path fill="#454A4D" d="M718 157h-1 1z" />
    <path
      fill="#282E30"
      d="M345 119h81l-4 9h-54l-13-5c-2 0-3 0-5-2h-3c-1-1-2 0-2-2z"
    />
    <path
      fill="#1F2325"
      d="M528 119h24l-1 9-1 1-11-1h-9a1 1 0 00-2-1 1 1 0 01-1 0v-1-5l1-2z"
    />
    <path
      fill="#676E74"
      d="M539 128h12l52 1h4l3-1a69 69 0 0011 1l2 1v3h-29l-4-2c-9-1-18-2-27-1l-22-1-2-1z"
    />
    <path fill="#282E30" d="M473 119h24l1 7-1 2h-18l-2-3-3-4a1 1 0 01-1-2z" />
    <path fill="#89949A" d="M594 133h29l-2 1H299l-4-1h299z" />
    <path
      fill="#1F2325"
      d="M345 119l5 1v1l5 2 7 2 5 1 2 2h-10-1l-18-8-1-1h6z"
    />
    <path fill="#141A1E" d="M473 119l5 8 1 1h-8v-6l3-7-1 4z" />
    <path
      fill="#282E30"
      d="M527 126v1l-3 1h-22a1 1 0 00-1 0h-3v-2l1-1h24l2 1a3 3 0 012 0z"
    />
    <path fill="#262B2D" d="M504 128l3-1h22l1 1h-26z" />
    <path fill="#676E74" d="M340 120l19 8-8-1-3-2-8-5z" />
    <path fill="#373C40" d="M471 122l1 6-4 1 3-7z" />
    <path
      fill="#262B2D"
      d="M532 128l2-1 1 1h-3zm-35-2l1 2h-1v-2zm4 2v-1l1 1h-1z"
    />
    <path fill="#373C40" d="M295 133h328v22H298l-2-2-1-20z" />
    <path
      fill="#3D4246"
      d="M708 155h-81v-2c2-1 3-3 3-5v-17h87c2 2 2 3 0 5a7 7 0 00-1 6c0 3 0 3-3 5a2 2 0 00-1 2c0 2 0 3-2 4l-2 2z"
    />
    <path
      fill="#373C40"
      d="M294 154v1H144a3 3 0 01-1-2l-1-10a2 2 0 011-2h28l26 1 12-1h54l11 1 15-1 4 1 1 12zM143 133h150l1 7-2 1H148c-5 0-7-3-5-8z"
    />
    <path
      fill="#0D1933"
      d="M751 127v-1c1-3 3-2 5-2l8 2h164l5-2h3l9-1-2-2c4-2 9-2 11-7l3-2v2h1l1 1 2 5 2 4v2c-1 3-4 4-6 1l-1-1-4-1h-9a1 1 0 00-1 1h4l4 1 1 1a1 1 0 01-1 1H845l-2 1h-61l-24-1-6 1h-2a1 1 0 010-1 2 2 0 000-2h1z"
    />
    <path
      fill="#676E74"
      d="M743 382l-3 2V251h3a3 3 0 011 2v10 35l1 8v68 5l-1 1-1 1v1z"
    />
    <path
      fill="#373C40"
      d="M708 155v-2l3-1 1-6 4-1v-8l2-3v-2l3-1h12l1 3 1 10c0 3 2 5 3 7v4h-30z"
    />
    <path
      fill="#1C2A57"
      d="M847 129h93l16-1 7 1a2 2 0 010 3H755l-3-1v-3a867 867 0 0095 1z"
    />
    <path
      fill="#676E74"
      d="M743 251h-4v-4l1-88v-3a2 2 0 012 0l2 3v78l-1 7c2 0 2 1 2 3v1c-2 0-1 2-2 3z"
    />
    <path fill="#3D4246" d="M746 156h3l1 2v92h-4v-7-79l-1-5a2 2 0 010-3h1z" />
    <path fill="#373C40" d="M625 121l9 1h60l8 1v4h-76a2 2 0 01-1-1l-1-2 1-3z" />
    <path
      fill="#595F65"
      d="M744 380v-75l-1-29v-17-8h3l1 3c1 4-1 8-1 12v21l1 9v2 83l-3-1z"
    />
    <path
      fill="#262B2D"
      d="M143 133v7h151v11h1l-1 3-1-4v-8H143l1 13h-1a1 1 0 01-1 0v-1c0-2 1-4-1-5v-1a6 6 0 000-6v-9h2z"
    />
    <path fill="#373C40" d="M748 251h2v127l-1 3h-1l-1-2V255l1-4z" />
    <path
      fill="#595F65"
      d="M746 156v94h-3l1-2 1-3-2-1-1 2 1-6v-10l1-10v-13-13l-1-19v-15l-1-4h4z"
    />
    <path fill="#454A4D" d="M748 251v129l1 1h-2l-1-4v-79-24-12-11h2z" />
    <path fill="#282E30" d="M625 126h74l3 1a1 1 0 010 2l-3 1h-72l-2-1v-3z" />
    <path
      fill="#676E74"
      d="M752 131h140a1 1 0 010 1 1 1 0 01-1 1H754l-1 4v3h-1v-6-3z"
    />
    <path
      fill="#1F2325"
      d="M612 122l5-6-1-5-2-1-22-1-11-1 1-1h20l17 1h3v2h1l-2 2h-2c3 5 2 8-1 12l-4-1c-1 1-2 1-2-1z"
    />
    <path
      fill="#111717"
      d="M961 142l-3 1H755l-2-1h9l4-1h55l4-1a6 6 0 005 0l4 1a2 2 0 002 0h52l2 1h33l2-1h23l4 1h9z"
    />
    <path
      fill="#373C40"
      d="M630 132v20l-3 2v1h-3v-4c2-1 1-2 2-3 1-5 2-9 1-14a2 2 0 010-3l3 1z"
    />
    <path
      fill="#262B2D"
      d="M746 156h-6l-1-5 1 2h1l-1-3h-1l1-10a1 1 0 012 0l1 4h3c1 5 1 9-2 11l2 1z"
    />
    <path
      fill="#838C94"
      d="M630 132h-3a2 2 0 01-2 0v-1h71l13-1h19l4 1h3a2 2 0 01-2 1H630z"
    />
    <path fill="#3D4246" d="M742 140h-2v-7h10v7h-8z" />
    <path fill="#0D1933" d="M753 143h155-156 1z" />
    <path fill="#3D4246" d="M625 129h77l-2 1h-75v-1z" />
    <path fill="#282E30" d="M733 132l2-1 2 1v8h1v11c-3-1-3-3-3-5l-2-14z" />
    <path fill="#89949A" d="M750 133h-10v-7l3 1 7 2v4z" />
    <path fill="#0D1933" d="M821 141l-2 1h-68v-8h1v5a1 1 0 010 1h3l61 1h5z" />
    <path fill="#101F40" d="M752 146v115l-1-2V148l1-2z" />
    <path fill="#2E3436" d="M625 132h2l1 5-2 14h-2l1-19z" />
    <path fill="#111717" d="M612 122l2 2v1l2 1-2 2-4 1v-7h2z" />
    <path fill="#595F65" d="M621 108h-13a85 85 0 01-7-1h9l11 1z" />
    <path fill="#373C40" d="M610 129l4-1 7 1a1 1 0 010 1l-10-1h-1z" />
    <path fill="#595F65" d="M144 156l-1 2h-1v-3l1 1h1z" />
    <path fill="#111717" d="M624 124l-1 1v-1h1z" />
    <path fill="#373C40" d="M294 154l1-3v4h-1v-1z" />
    <path fill="#111717" d="M623 126h-2l1-1 1 1z" />
    <path fill="#282E30" d="M621 130v-1h1l-1 1z" />
    <path fill="#373C40" d="M621 130l1-1 1 1h-2z" />
    <path fill="#1C2A57" d="M752 134h-1l1-2v2z" />
    <path fill="#373C40" d="M143 156l-1-1h1v1z" />
    <path fill="#858E95" d="M295 173h-1 1z" />
    <path fill="#262B2D" d="M293 155h1-1z" />
    <path fill="#1F2325" d="M603 103z" />
    <path fill="#2E3436" d="M738 131v1-1z" />
    <path fill="#0D1933" d="M752 143v-1 1z" />
    <path
      fill="#373C40"
      d="M793 365l2 1 8 8 2 4 2 2-1 13-13 2-1-3v-44 44h1v-21-6z"
    />
    <path
      fill="#3D4246"
      d="M362 381v-4l-1-4-2-1h-16a2 2 0 01-2-2v-9h101l3-1a2 2 0 012 0v9a2 2 0 01-1 2l-9 1h-9-2-3v4c0 1 2 2 1 4h-2c-3-2-6-2-10-2l-35-1a36 36 0 00-12 2l-1-1 1-2a5 5 0 010-4c-2-1-2 0-2 1v8h-1z"
    />
    <path
      fill="#676E74"
      d="M362 373v4l-9-1h-6c-5-1-8-4-10-8-2-3-1-6 2-8l3-4h1l2-1h75a2 2 0 003 0h15l4 1c2 0 4 1 5 3a1 1 0 010 1h-1a2 2 0 01-2 1l-2-1h-69a715 715 0 01-30 0l-2 2v7a3 3 0 001 2h1c2 2 4 1 7 1h9l3 1z"
    />
    <path
      fill="#788187"
      d="M447 360l1-1-8-3-2-1h9l1 2a13 13 0 013 10l-2 6c-3 5-9 5-14 6l-9 1v-4l3-1 13-1c2 0 3 0 4-3l1-1c3-3 1-6 0-9v-1z"
    />
    <path
      fill="#454A4D"
      d="M426 376v4l-1 2h-61l-2-1h61a1 1 0 010-1h1l1-1-1-5 1-2 1 1a3 3 0 010 3z"
    />
    <path
      fill="#788187"
      d="M1027 379v-5l1-6v-4l2-1h3a5 5 0 004 0h13l3 1 1 1 16-1 4 1h15l13 1a65 65 0 0125 0h1a4 4 0 014 0 2 2 0 002 0h15c2-1 3 0 4 1l2-1h4a5 5 0 004 1l8 1h4c3-1 6-2 9 1a2 2 0 002 0l9 1h6l4 1 9 2 3 1 5 2v5h-3l-12-3-23-1-20-1h-20l-9 1-18-1h-85a4 4 0 00-3 1c-1 0 0 2-2 2z"
    />
    <path
      fill="#818A91"
      d="M1222 376h-1c-3-2-7-2-11-3l-8-2h-4l-15-2-1-1h-22l-2-2h-3l-1 3c-2-4-5-2-7-2l-9-1-5 1c-2-3-4-2-6 0-5-1-11-2-16-1-8 0-15 2-22 0l-10-1-5 1-4-1h-13l-3 1-1-2h152l4-1h6v-1h-1l-4-2-22-4c-3-1-7-5-7-8v-13a3 3 0 012-3l11-4c3-1 5-2 5-5l2-2c2-1 2-5 0-7l-1-1v-1-1l-1-1a5 5 0 00-4-3l-4-2-5-1a6 6 0 01-4-2l-1-1v-17l1-5 7-2 14-2 11-2a2 2 0 002-1 1 1 0 011 0h3l1 1-11 5-14 4-7 5h1-3v10c0 2 3 4 4 4 7 1 10 5 12 10 2 3 3 7 2 11v1l-4 9v9h-4l2 3c-1 1-2 3-1 5l4 2 6 2 13 9 1 4v10z"
    />
    <path
      fill="#828B93"
      d="M1028 278v-10l-1-2h3l7-1h172l4 1h7l3 1v4l-2 1h-34-157l-1 4-1 2z"
    />
    <path
      fill="#676E74"
      d="M1027 379l1-3 6-1h13l7 1 18-1 39 1h76l21 1c4 1 9 1 13 4h1l1 3-11-3h-9l-18-1h-152l-6 1v-2z"
    />
    <path
      fill="#111717"
      d="M1214 266h-184l2-2 2-1h175l5 1 3 1h4v1h-5a2 2 0 01-2 0z"
    />
    <path fill="#727B80" d="M1220 272h1v1l-1-1z" />
    <path fill="#828B93" d="M1223 267z" />
    <path
      fill="#141A1E"
      d="M1069 8v57l-1-1v-1-9-16-1l-3-1h-78l-3-1-1-2v-3l2-1h25l1 3h31l1-2 1-1h24v-5-3c0-1-2-1-2-3l-2 1h-11-2l-2 1-2-1 2-1h-1a3 3 0 01-3 2l-1-2v-1h-2v-2l-2-1v-3l4-1h23c1 0 2 0 2-2z"
    />
    <path fill="#397A39" d="M983 52V41l43 1v10h-41a2 2 0 01-2 0z" />
    <path
      fill="#111717"
      d="M1044 18l-3 1h-10l-5-1a4 4 0 00-4 0h-35 35c-1 2-2 1-3 1h-31l-3 2-1 1v1h-1V10h13a1 1 0 001 0h27a43 43 0 0011 0h1l4 1v4l1 2 3 1z"
    />
    <path
      fill="#141A1E"
      d="M983 73v-5l6 1h9s0 1 0 0h68l3-1v5h-84-2zm70 6l-1 3-1 1h-48-4-1a3 3 0 00-3 0h-2-1v7a1 1 0 01-1 0l-2-4-7-1h-6v-4l4-1 6-1h34l2 1 1-1h4v0h26z"
    />
    <path
      fill="#676E74"
      d="M996 69l-9 1-4-2 1-13 1 8v3l2 1h35l3-1V53v-1l1-1a1 1 0 011 0v15l3 1h35l3 1h1l-1 2h-12l-18-1-6 1-19-1-10 1-4-1-1 1h-1l-1-1z"
    />
    <path
      fill="#B1BCC5"
      d="M1068 68h-42V51v-2-11-3h43v3l-1 1h-39l-2 1v24h41v2h-39 34l5 1h1l-1 1z"
    />
    <path
      fill="#262B2D"
      d="M984 10h-1V7h84l2 1v1h-7l-4 1-10 1 2-1h5-9l-10-1h-2a114 114 0 01-13 0h-34l-3 1z"
    />
    <path
      fill="#B1BCC5"
      d="M984 35h42c0 2 1 3-1 4h-33l-8-1v-3zm0 20v-2l3-1h34l5 1v15h-40l-2-1 3-1h37l1-10h-16-1l-9-1h-15z"
    />
    <path fill="#595F65" d="M983 73h86l-2 1h-81l-3-1z" />
    <path fill="#89949A" d="M1026 53h-42v-1h42v1z" />
    <path fill="#3D4246" d="M976 70v2l-16 5h-3a1 1 0 010-1l19-6z" />
    <path fill="#858E95" d="M1068 65v-1l-1-1 1-16v-1h1v19h-1z" />
    <path fill="#1F2325" d="M986 79l-4 2h-6a1 1 0 010-1 2 2 0 011-1h9z" />
    <path fill="#141A1E" d="M977 79l-1 1a11 11 0 010-9l1 4v4z" />
    <path fill="#1F2325" d="M1047 79c-1 2-3 2-4 0h4z" />
    <path fill="#15234A" d="M984 30h-1v-5h1v5z" />
    <path fill="#262B2D" d="M984 25h-1v-2h1v2z" />
    <path fill="#818A91" d="M1068 67a1 1 0 010-1l1-1-1 2z" />
    <path fill="#1F2325" d="M1027 79v1-1z" />
    <path fill="#262B2D" d="M983 28z" />
    <path fill="#676E74" d="M984 39h-1 1z" />
    <path fill="#141A1E" d="M702 129v-12h1v9l-1 3z" />
    <path
      fill="#838C94"
      d="M1220 237h-1-1l-6-2-13-3-11-2-5-2-1-3v-16c0-3 0-3 3-4l11-3c3-1 4-3 5-6l1-1c2-2 2-6 0-8a2 2 0 01-1-1l-1-2a6 6 0 00-5-4l-5-1-7-2v-1l-1-3v-12c0-5 2-7 6-8l6-1a215 215 0 0027-6l3-3h1a11 11 0 01-4 10l-10 4-11 6-1 11-1-1 2 3 4 4 3 8v1c1 3 1 6-1 9l-4 8-2 4v2h-1l-2 5-1 3 7 8 1-1 7 4 9 4c1 1 2 1 1 2l-1 1v-1z"
    />
    <path
      fill="#788187"
      d="M1225 143h-1a2 2 0 01-1-2l1-1h1v3zm-5 94h1l-1 1v-1z"
    />
    <path
      fill="#2E3436"
      d="M862 120c0-4-1-5-5-5h-15a3 3 0 01-3 1l-10-1-3 1h-1a7 7 0 00-6 0h-1l-1 4-3 1h-45l-2-1v-7h79l9-1h68l3 1a2 2 0 011 1v6h-2l-25 1h-34l-4-1z"
    />
    <path
      fill="#FEFEFE"
      d="M976 71v14l1 3v7l-1 3 1 10c-1 2-3 1-4 1h-15c-2 0-2-2-1-3V88 77l17-5 2-1z"
    />
    <path
      fill="#1F2325"
      d="M862 120h65v-4l1-3c2 1 2 2 2 3l1 5a1 1 0 010 2h-69v-3z"
    />
    <path
      fill="#454A4D"
      d="M929 109v3h1l1-3v2l1 5c-1 1-2 0-2-1l-1-2h-66l-2-1a1 1 0 01-1-1l3-1h19a8 8 0 007-2c1-1 2-2 5-2l4 2 1 1 1-1a1 1 0 011-1l4 1 24 2v-1z"
    />
    <path
      fill="#1F2325"
      d="M767 120h50l-1 3h-49a3 3 0 010-3zm58-5h17l3 2 8 2v1h-4c-7 3-15 2-23 3h-7l-1-2h10l5-2c-1-2-3-3-5-3l-3-1z"
    />
    <path
      fill="#282E30"
      d="M947 81h3-2v15h-7l-1-15h-6v-2h2l9 1 2 1zm10 7v19l1 2a1 1 0 010 1l1 2-1 3-1-1v-2h-1l-3-6a178 178 0 01-1-25h3a3 3 0 010 2l1 16V88a1 1 0 011 0zm-132 27a11 11 0 0110 4c-6 4-12 2-17 2v-5l1-1h6z"
    />
    <path
      fill="#3D4246"
      d="M767 120v3l-1-2v-9h59l12-1h6l3 1a1 1 0 010 1h-78l-1 7z"
    />
    <path fill="#1F2325" d="M952 81v11l1 13 2 7h-2c-5-9-3-18-3-27v-4h2z" />
    <path fill="#676E74" d="M750 126h-1l-4-6c-2-3 0-6 4-7l1 13z" />
    <path fill="#373C40" d="M956 88v14h-1V81l1-1v8z" />
    <path fill="#2E3436" d="M930 113l1 2 1 1v5l-1 2-2-3h1l-2-7h2z" />
    <path fill="#3D4246" d="M947 103l-4 1-1-4 1-1 4 1v3z" />
    <path fill="#373C40" d="M943 108h3l1 3-5-1 1-2z" />
    <path fill="#1F2325" d="M956 88v-8h1v8h-1z" />
    <path fill="#373C40" d="M947 112h-5v-1h5v1z" />
    <path fill="#595F65" d="M947 105v2h-4l-1-2h5z" />
    <path fill="#141A1E" d="M957 76v1a1 1 0 01-2 0l2-1zm-10 5l-2-1 2 1z" />
    <path fill="#3D4246" d="M956 77h1v1h-3v-1h2z" />
    <path fill="#2E3436" d="M766 113h-2a1 1 0 012 0z" />
    <path fill="#3D4246" d="M947 105h-1v-1l1 1z" />
    <path fill="#262B2D" d="M155 121h62l-5 7h-40l-9-3-8-4z" />
    <path fill="#1F2325" d="M237 121h2l5 7h-5l-2-6v-1z" />
    <path fill="#2E3436" d="M237 122l2 6h-6l4-6z" />
    <path fill="#595F65" d="M167 130h-12v-1h12v1z" />
    <path fill="#676E74" d="M194 117l-1 1v-1h1zm0 0v-1h1l-1 1z" />
    <path
      fill="#727B80"
      d="M1047 133h-81a1 1 0 010-1h1l4-2v-1c-2-3-1-6 3-6l11-1a210 210 0 0118 3c1 0 2 1 1 2l-4 1-22 2h15l2 1h45l29-1-8-1-15-3-4-1-17-4a454 454 0 01-19-3c1-2 3-1 4-1l15-1h59l3 1v1l-2 1h-38l-4 1 2 1 16 5 13 2 10 1c1 0 2 0 2 2l-7 1h-3l-29 1z"
    />
    <path
      fill="#595F65"
      d="M1224 140v1c-1 2-3 2-5 2h-148l-12 1h-4l-17 1c-1 0-1 0 0 0h1v1l-1 1h-1l-3-1c-2 1-4 0-5-1-2-1-1-2 0-3l19-1h31l2-1 3-1h137l3 1z"
    />
    <path fill="#111717" d="M1224 140h-173l21-1h150l2 1z" />
    <path fill="#818A91" d="M1076 132l2-1h22v1h-24z" />
    <path
      fill="#727B80"
      d="M627 89v-2 2zm-1 2l1-1-1 1zm1 3l-1-1 1 1zm-1-1v-1h1l-1 1z"
    />
    <path
      fill="#282E30"
      d="M140 200c-6 2-12 3-18 2l4-1 4-1c5-1 6-4 6-8h3l-3-2h-12c-4 0-8-4-9-7l3-3h1v7l21-2v15z"
    />
    <path
      fill="#676E74"
      d="M95 168l11 4c1 0 3 1 3-1l-5-3-1-1-4-4 1-1-3-3a2 2 0 012 0l1 1 2 1 1 1h1l2 1h1l6 3 4 1 1 1-1 2c-6 3-6 3-5 9l-2-1 1 2-3-1-1-1-4-2v-2h-2l1-1-6-3-1-2zM111 180l1 1-1-1zm2 2z"
    />
    <path fill="#788187" d="M107 178l1 1-1-1z" />
    <path fill="#676E74" d="M112 178h1l-1 1v-1zm0 3z" />
    <path
      fill="#788187"
      d="M1100 131h-14l-4-2-17-2-22-6-2-2 5-1h40l1-1 3-1h114l2 1h5v2l-11 2h-90l-24 1-8 1-3 1 11 3 12 1c1 0 3 1 3 3h-1z"
    />
    <path
      fill="#838C94"
      d="M1101 131l-3-2c-7 0-14-2-20-4h-5l2-2 22-2 54-1h55l5-1c-2 1-4 3-7 3l-19 1-26 1h-25l-7 2-6 1c-2 0-4 1-3 4h-17z"
    />
    <path fill="#788187" d="M1212 117h1v2l-1-1v-1z" />
    <path fill="#727B80" d="M1212 117v1h-1v-1h1z" />
    <path fill="#2E3436" d="M976 54h1v7h-1v-7z" />
    <path
      fill="#FEFEFE"
      d="M142 155l-15 5 1-16a3 3 0 011-2l12-8 1 9v12zm0 17v7h-7l7-7zm-24-4l-5-3h6l2 4-3-1z"
    />
    <path fill="#373C40" d="M121 176v-4l-1 5h-1l1-6h5l-3 1v4h-1z" />
    <path fill="#262B2D" d="M134 180l2 2-2 2-3-1 3-3z" />
    <path fill="#373C40" d="M127 174v-3h4v1h-3v2a1 1 0 01-1 0z" />
    <path fill="#B1BCC5" d="M128 166v-4h1l-1 4z" />
    <path fill="#89949A" d="M127 174h1v3h-1v-3z" />
    <path fill="#595F65" d="M124 176v-1h1v1h-1z" />
    <path fill="#89949A" d="M135 164v-1h1v1h-1z" />
    <path fill="#B1BCC5" d="M130 163v3-4 1zm-31-4h-3 3zm3 2l-2-1 2 1z" />
    <path fill="#788187" d="M106 163l-2-1 2 1z" />
    <path fill="#B1BCC5" d="M100 160l-1-1 1 1z" />
    <path fill="#3D4246" d="M142 158h1v1l-1 1v-2z" />
    <path fill="#788187" d="M107 163h-1 1z" />
    <path fill="#B1BCC5" d="M138 164v-1 1z" />
    <path fill="#788187" d="M104 162h-1 1z" />
    <path fill="#B1BCC5" d="M103 162l-1-1 1 1z" />
    <path fill="#788187" d="M107 163z" />
    <path
      fill="#595F65"
      d="M1206 117h-196l-9 1h-26 8l14 1 14 1c5 1 10 1 14 3 3 2 6 2 9 2l5 2 17 2 3 1-6 1h-62l-1-1 2-1 16-1 8-1h1v-1l-8-1-25-2-13-1-3 1c-2 1-2 2-2 4 1 2 2 3 1 5h-2c0-1 1-2-1-2v-1l-1-3-1-2c0-2 1-3 4-3l4-1c-2-1-5 0-6-3l4-1-5-1-4-3h-1v-2l2-1c2 3 6 4 10 5l21 1h26l4 1h183l2 1z"
    />
    <path fill="#788187" d="M960 109l-2 1v-1h19v3l-5-1v-2h-12z" />
    <path
      fill="#727B80"
      d="M1056 112h7l-1 1-6-1zm-6 0h2l-1 2-1-2zm3 0h1l-1 1v-1z"
    />
    <path
      fill="#595F65"
      d="M553 118h39l5-1h1l1 1 3 1-1 1h-7c-2 0-3 1-4-1h-28l-2 1c-3 1-5 0-7-1v-1z"
    />
    <path
      fill="#111717"
      d="M601 119h1l1 2h-1v5l-2 1-4-4-6-1v-2l10-1a1 1 0 001 1v-1z"
    />
    <path fill="#1F2325" d="M553 119l7 1-1 1c-2 1-3 3-2 5h-4v-7z" />
    <path fill="#111717" d="M497 126v-7l2-1h27l2 1-1 7h-2-28z" />
    <path
      fill="#818A91"
      d="M1221 397v-5h1v6l-1-1zM568 101l-26-10-1-1h3l23 9 2 1h1v1a1 1 0 010 1l-2-1z"
    />
    <path
      fill="#788187"
      d="M586 107h-2l-1-1-11-4a1 1 0 010-2v-2c2 0 2 1 3 2v1l1 1 7 3 3 1a1 1 0 010 1z"
    />
    <path fill="#454A4D" d="M583 106l1 1-3 1h-1v-1h-4v-1h7z" />
    <path fill="#3D4246" d="M572 100v2h-2v-1l2-1z" />
    <path fill="#788187" d="M599 118l-1-1 1 1z" />
    <path fill="#1F2325" d="M580 107v1-1z" />
    <path
      fill="#111717"
      d="M766 113h-2c-3-2-1-4-2-5v-1-5-11l1-7h4a3 3 0 003 0 2 2 0 011 1l2 4c20-1 40-1 60 1 1 2 0 3-3 4h-63a1 1 0 00-1 1l1 15v1h66l1-5 1-3h2l4-2 10-2 3-3 2-1v-2l1-1h3l1-1h2l11-3c5-1 10-3 16-3l2-1a1 1 0 011 1v2c4 1 8-3 13-3l-3 4 2 3h1l1-8h3l2 8 7-1v-1l3 1-4 2-1 1c-3 1-5 3-6 6a2 2 0 00-1 2l1 2-10 5h-3l-4-2h-3l-5 3-4 2h-18-1l1-1 13-3h4l2-1-2 1-11 2-6 1-1 1-2 1h-10l-7-1-3 1h-8l-67 1z"
    />
    <path
      fill="#F7F7F7"
      d="M910 70l5-1 1 1 2 6h-2l-24 5-18 2-27 7a1 1 0 010-1l1-1h3l-2-5v-2l44-9 16-2h1z"
    />
    <path fill="#89949A" d="M892 80l26-4 1 1-26 8-1-1a4 4 0 010-4z" />
    <path fill="#262B2D" d="M728 130h-19l1-1 1 1h14l3-1v1z" />
    <path
      fill="#727B80"
      d="M767 84l-3-1 2-2c1-1 2-1 1-2l2-1 51 1v-1l3-1a1 1 0 011 0l2 3-2 1h-48l-6 1 1 1h58l1-1h3a1 1 0 010 1c0 2-2 2-3 2l-27 1h-29a4 4 0 01-3-1l-2-1h-2z"
    />
    <path fill="#89949A" d="M767 79h3l-6 4-2 1 1-4 4-1z" />
    <path fill="#727B80" d="M100 175v-1 1z" />
    <path
      fill="#676E74"
      d="M977 85l3 2c4 2 5 5 6 9l1 5 2 6v2h-6c-2-1-3-3-3-5h-3v-2a3 3 0 001-3l1-3a5 5 0 00-2-3v-1-7z"
    />
    <path
      fill="#595F65"
      d="M989 109l-3-8-1-7c0-4-3-6-7-7v-2h7c4 0 6 3 4 7 2 1 1 4 1 6l1 7 1 2 1 1h1l1 1h-6z"
    />
    <path
      fill="#3D4246"
      d="M994 109h1l-1-1 2-1 18 1h37l7-1h3l-3 2h3l-3 1h-63l-1-1z"
    />
    <path
      fill="#788187"
      d="M977 104l3-1 3 6h-6v-5zm0-11l2 4v5h-2l-1-3v-4l1-2z"
    />
    <path
      fill="#1F2325"
      d="M865 78h-1l-2-2-8 2c-2 1-6-3-6-5l1-1h2c3 1 6 0 9-1l2-2h47l1 1-23 4a1 1 0 01-1 0l-19 3-2 1z"
    />
    <path fill="#454A4D" d="M862 69c-2 2-5 4-9 4h-5l-10-3 2-1h22z" />
    <path
      fill="#676E74"
      d="M849 81h-1c-5-3-12-5-18-4l-4-1c6-1 12-1 17 1l5 2 1 2zm-26-5h3c-1 2-2 1-3 0z"
    />
    <path fill="#2E3436" d="M816 76v-1 1z" />
    <path fill="#262B2D" d="M816 73v-1 1zm95 30a8 8 0 014-10l3-1 1 7-8 4z" />
    <path fill="#595F65" d="M138 206h-16v-1h14a1 1 0 012 0 1 1 0 010 1z" />
    <path fill="#373C40" d="M138 205h-2v-1h3l2 1a3 3 0 01-3 0z" />
    <path fill="#282E30" d="M103 167l7 4-2 2-2-1 1-1-37-16-6-2-1-2 39 16h1z" />
    <path fill="#3D4246" d="M606 107h-7l-24-10-1-1 1-1h2l1 1 10 4 18 7z" />
    <path fill="#141A1E" d="M601 103l-3-2 3 1v1z" />
    <path fill="#595F65" d="M578 96l-1-1 1 1z" />
    <path
      fill="#141A1E"
      d="M606 103zm217-27h3c7 0 14 0 21 3l2 2v1l-2 1-8 2-1 1 2 1-2 1h9a1 1 0 010 1l-3 1-7 1h-2c-2-2-2-5-2-8v-1l-1-2-4-1-4-2h-1v-1z"
    />
    <path fill="#1F2325" d="M793 77v-1l13-2c3 0 7-1 9 3h-18a2 2 0 01-2 0h-2z" />
    <path fill="#454A4D" d="M799 77h14-14zm-4 0h2-2z" />
    <path
      fill="#2E3436"
      d="M575 100l-3-2v-1l1-1h1c4 4 9 5 13 7l6 2 2 2c-3 0-6 1-9-1l-13-5 2-1 1 1h0l-1-1z"
    />
    <path
      fill="#454A4D"
      d="M572 100l-2 1-1-1-14-5-14-5-2-1c0-2 1-1 2-1l15 6 13 5 2 1h1z"
    />
    <path fill="#FEFEFE" d="M538 88h-2l-7-3 1-1 7 3 1 1z" />
    <path fill="#788187" d="M571 100l-2-1 2 1z" />
    <path fill="#454A4D" d="M572 99z" />
    <path fill="#818A91" d="M539 89l2 1-2-1z" />
    <path
      fill="#454A4D"
      d="M138 205h3l-3 1v-1zm878-123h45v3h12l-4 1c-3 0-6 3-6 5l2 1-2 1v11l-1 1-1-3v-3-1l-1-7-2-1 2-1h1v-1-1l-2-2h-9l-13-1-1 1a2 2 0 01-2 0h-15l-3-1v-2z"
    />
    <path fill="#141A1E" d="M1061 82h-6c1-2 4-2 6 0z" />
    <path fill="#B1BCC5" d="M1055 82l-2 1-2-1h4z" />
    <path
      fill="#141A1E"
      d="M1054 82h-1 1zm7 16l1 7-1 3-44 1-21-1h-3l-1-1-1-2-1-11h2v10c6 3 62 3 68 1l1-7z"
    />
    <path fill="#1F2325" d="M797 74l1-1a1 1 0 011-1h3l1 1-6 1z" />
    <path fill="#B1BCC5" d="M799 72l-1 1h-2v-2h3v1z" />
    <path fill="#2E3436" d="M762 84l2-1 3 1-5 1v14-13-2zm0 23v0z" />
    <path fill="#818A91" d="M1214 264h-186v-4h195v4h-9z" />
    <path fill="#2E3436" d="M1214 264h8v1h-8v-1z" />
    <path
      fill="#454A4D"
      d="M475 157l2 2-2 5-2 10v14l4 9-1 3-5-4-3 1a7 7 0 01-2-5v-31l2-4h1a2 2 0 010 2l-1 7v7 5l1 11v1-13-17c1-2 3-1 5-2l1-1z"
    />
    <path fill="#595F65" d="M477 197c-2-3-4-5-4-8l-1-17c0-5 2-9 5-13v38z" />
    <path
      fill="#1F2325"
      d="M466 160v24l1 8 2 6 1-4 6 6h-11v-43h2a1 1 0 010 1l-1 2z"
    />
    <path fill="#262B2D" d="M469 159v-2h6a7 7 0 01-6 2zm-2-1v-1h1l-1 1z" />
    <path
      fill="#595F65"
      d="M274 199c4-14 2-28 0-42h2l2 5 3 3-1 14 1 13-5 7h-1a1 1 0 01-1 0z"
    />
    <path
      fill="#1F2325"
      d="M275 199c2-1 3-3 5-2 2-1 3-2 3-4v-10-3-15l-2-6a1 1 0 010-2h3v7l1 1v29l-1 1v5h-9a1 1 0 010-1z"
    />
    <path fill="#858E95" d="M275 200h9-11v-39l1 2v37a1 1 0 011 0z" />
    <path
      fill="#3D4246"
      d="M281 157c4 7 2 15 2 23l-1-2v-10l-1-4a3 3 0 01-1-2v-3h-1a1 1 0 011-2h1z"
    />
    <path fill="#858E95" d="M284 195v-31l1 1v29l-1 1z" />
    <path fill="#262B2D" d="M280 157v2c-2 1-3-1-5-2h5z" />
    <path fill="#3D4246" d="M275 200h-1v-1h1v1z" />
    <path
      fill="#727B80"
      d="M342 313h102l5 8c2 3 0 5-1 7-2 5-7 6-12 6l-10 2c-2-1-1-2-1-3l1-1 7-1h7a2 2 0 001 0l2-1h1a3 3 0 002-2v-9l-1-1-1-1-7-1h-90c-2 0-4 0-6 2l-1 1c-2 2-2 6 0 8l1 1 1 1v1l11 1 9 1-1 4-1-1c-6-2-12 1-18-3l-5-6c-2-4-1-8 3-11l2-2z"
    />
    <path
      fill="#595F65"
      d="M425 332l1 4-1 4h-61l-2-1h58l3-1 1-2v-6c2 0 2 0 1 2z"
    />
    <path fill="#788187" d="M424 339h-62a1 1 0 011-1h60l1 1z" />
    <path fill="#595F65" d="M363 338l-1 1-1-3v-4l1-2a1 1 0 011 0v8z" />
    <path
      fill="#454A4D"
      d="M433 159v-1l4 2 1 5 2 2v24l-3 5c-1 1-1 2-3 1l1-4 1-14v-10c-1-4-1-7-3-10z"
    />
    <path
      fill="#3D4246"
      d="M439 166h-2c0-3 0-7-4-8l-1-1h2a1 1 0 001 0h1l2 1 1-1h1c2 2 3 5 3 8v26l-1 4c0 1-1 2-2 1v-5a5 5 0 001-5v-3-5-6l-1-2v-6l-1 2z"
    />
    <path fill="#828B93" d="M444 200h-13v-41h1l1 5v22l-1 13h9a3 3 0 012 1h1z" />
    <path
      fill="#1F2325"
      d="M443 200h-9l-1-1 4-3a2 2 0 013 0l3-3-1-28-1-6-1-2h3v20h1l-1 22v1z"
    />
    <path
      fill="#676E74"
      d="M433 159c1 1 3 2 3 4v30l-1 4-1 1h-1c1-5 3-11 2-16 0-8 1-15-2-23z"
    />
    <path fill="#818A91" d="M443 199v-22l1 1v20l-1 1z" />
    <path fill="#3D4246" d="M433 198h1l1-1 3-4-1-1h2l1 5v1l-1-2-6 3v-1z" />
    <path fill="#1F2325" d="M439 157v2c-2 0-3 0-3-2h3z" />
    <path fill="#454A4D" d="M433 199l1 1-2-1h1z" />
    <path
      fill="#788187"
      d="M423 355c-1 2-2 2-3 0h3zm598 18l-9-1-25-1-11-2-2-4-2-21-1-46 1-31 2 1 1 15 1 17 1 13v17l1 4 4-2v9c2 3 7-1 8 5h2l2-3 3 3h5l1 2c5 2 10 2 15 0l2 7h1v18z"
    />
    <path fill="#595F65" d="M981 265h22l8 1h3l-1 1h-40l2-1h4a3 3 0 002-1z" />
    <path fill="#3D4246" d="M981 265l-2 1-6 1h-5a1 1 0 01-1 0h-1l4-2h11z" />
    <path
      fill="#676E74"
      d="M964 237h1v-27c0-5 1-9-1-14v-6l2-7c-1-6 0-12 1-19l3-12c1-3 4-4 6-6 5-2 13 1 16 6 4 6 3 13 3 20l1 17v40l-1 15c0 3 0 6-2 8l-4 4c-3 1-6 3-9 2l-4 1c-4 1-9-3-11-7v-3-8h-1v-4z"
    />
    <path
      fill="#595F65"
      d="M965 241l1 2v6c0 6 5 10 10 9l11-2c5-1 6-5 7-8l1-7v-43l-1-23v-17c-2-8-8-13-15-12a11 11 0 00-10 11l-2 13-1 15-1 5-1-2v-35l1-2 1-1c3-5 7-7 13-8l10 1 5 5 6 18v39l1 7-1 4 1 9-2 21c0 4-7 12-11 13-6 2-14 2-20 0l-3-1v-17z"
    />
    <path
      fill="#1C2A57"
      d="M911 155h2l3-1 4 5v18c0 3-2 4-5 4l4 1h-3l-2 2v-4h-1v3l-2-3v-25z"
    />
    <path
      fill="#111717"
      d="M965 151v59l-1-2v-60a43 43 0 00-1-7v-6-2l1-1 1-1 1 1v1l-1 12v6z"
    />
    <path fill="#1C2A57" d="M911 185h11l-1 2-9 1v68l-1 3v-71l9-1v-1h-9v-1z" />
    <path fill="#101F40" d="M963 144l-2 1h-31l-1-1h10l3-1h20l1 1z" />
    <path fill="#111717" d="M915 260h40-40z" />
    <path fill="#1C2A57" d="M962 143h-51 51zm0 118h-51 51z" />
    <path fill="#595F65" d="M965 227l1 1v8l-1 1-1-3 1-7z" />
    <path fill="#111717" d="M965 227l-1 7c-1-1-1-6 1-7z" />
    <path fill="#788187" d="M963 142h-12l1-1a78 78 0 0111 0v1z" />
    <path fill="#1F2325" d="M760 309h-1 1z" />
    <path fill="#111717" d="M883 334h21v1l-9 1-10-1-2-1z" />
    <path fill="#282E30" d="M906 325l2 1-2-1z" />
    <path
      fill="#141A1E"
      d="M807 369l-1-2h33l3-1v2l-4 1h-17c-4-1-9 0-14 2v-2z"
    />
    <path
      fill="#676E74"
      d="M967 267h1l1 2v81l1 22c1 4 3 5 7 5l25 1 15-1 3 1 1 3h-43c-7 0-10-4-10-10l-1-15v-29-24-32-4z"
    />
    <path
      fill="#595F65"
      d="M1004 254v2a29 29 0 01-1-6v6h-1V149c1-1 1 0 1 1v12-10l1-2 1 2v11l-1 87v4z"
    />
    <path fill="#2E3436" d="M1004 140v1l-1 1v2l-1 2-7-5-3-2 12 1z" />
    <path
      fill="#454A4D"
      d="M1002 145v-4h1v6-2c0-1 0-2 1-1 2 2 2 5 0 6l-1 2v12-13l-1-2v-4z"
    />
    <path
      fill="#828B93"
      d="M1043 233l7-4 8-1 6-4c3-4 0-7-1-10-3-3-6-8-11-9l-2-2c-3-3-7-6-7-10-1-3 0-5 1-7 1-4 5-7 7-10 1-2 3-3 3-5l2-3-2-4h-3c-1-3-3-5-7-5l-3-2-11-4v10l-2 1v-9-4l1-1c0-2 2-2 4-2a307 307 0 0034 6c1 0 1-2 2-1v23h-5l-10 4-2 1-5 8c-2 1-1 3 0 5l4 5a8 8 0 005 3l13 4v9 9c-4 3-9 5-14 6l-8 2-4 1z"
    />
    <path fill="#1F2325" d="M1027 266v26a1 1 0 01-2 0v-21l2-5z" />
    <path
      fill="#111717"
      d="M1026 343l-1-4v-7a3 3 0 010-3v-7l1-7v28zm-1-51h2l-1 10-1-2v-8z"
    />
    <path fill="#1F2325" d="M1026 315l-1 7 1-7z" />
    <path
      fill="#3D4246"
      d="M1029 142v6h-1l1-6zm0 9l-1 4v-4h1zm-1 19h-1v-3h1v3z"
    />
    <path fill="#595F65" d="M1029 151h-1v-3h1v3z" />
    <path fill="#111717" d="M1026 305v3-3zm3-39h-2 2z" />
    <path fill="#727B80" d="M1028 167v-1 1z" />
    <path fill="#818A91" d="M1019 151v-1l1-2v115h-2v-1l-1-7 1-35v-49l1-20z" />
    <path
      fill="#595F65"
      d="M1018 262v1l-3-4v-2a2 2 0 01-1-2v-22-13l1-34v-3h2v61 7c-1 4 1 7 1 11z"
    />
    <path fill="#3D4246" d="M1011 266h-3l-22-1h-2 24l3 1z" />
    <path fill="#2E3436" d="M1015 264l3 1h-2l-1-1z" />
    <path
      fill="#454A4D"
      d="M1016 182l-1 27v47a1 1 0 01-1 0l-3-2-2-1-1-1 5 1-3-2h-1 1l2-1-4-1v-1h4-4l-2-2a116 116 0 000-3v6c0 1-1 2-2 1v-87c2-1 2 1 3 1h5c1 2 0 2-1 2h-3l-1 1v25l1-2h4l-4-1h-1v-12a65 65 0 000-10l1-1 5 1-3 1 3 1c-1-2 2-3 1-4l-3-1-2-1v-1h5v-4l2-1v25z"
    />
    <path
      fill="#3D4246"
      d="M1008 253h1l-3-1-2 2v-4l1-1 1-16v-2h1l1 6h-1v10h2v1l-1 1c0 1 2 0 2 2l-2 2zm6 3h1v1l-4-1h3zm-5-1h1v1l-1-1z"
    />
    <path
      fill="#89949A"
      d="M1028 278l1-3 1-3a2 2 0 012 0l1 1 1 1c1 2 3 2 5 3l9 5 3 1c2 0 4 2 5 4l1 4c1 1 1 3-1 3l-3 4-1 1-8 7c-2 1-3 4-4 7a12 12 0 000 10v6l2 2 1 5v2l-1 1-1 2 2 6h-5c-1 2-1 4-4 4 0 3-3 3-5 5h-1v-18-1-5a4 4 0 000-3v-4-26a3 3 0 000-4v-17z"
    />
    <path
      fill="#838C94"
      d="M1028 336l1 1-1 19v8l-1-1 1-27zm0-28v18-17-1zm0 57l-1 9v-1-1l1-7z"
    />
    <path fill="#454A4D" d="M1027 372v1-1z" />
    <path
      fill="#676E74"
      d="M1016 182v-2l1-10c2-6 1-12 1-17l1-2v63l-1 43v5c-2-4-2-9-2-14v-65-1z"
    />
    <path
      fill="#2E3436"
      d="M1016 157l-2 6-5-1c-1-1-2-2 0-4h0l-1-1v-1h5l1-2h-1c-1-2-3-2-4-1l-1 2a2 2 0 01-2 0l-2-3v-8l6-1 5 1v7c-1 1-3-1-4-1a20 20 0 004 1v2a1 1 0 010 1v1h1v2z"
    />
    <path
      fill="#454A4D"
      d="M1015 151h-1l1-6 4-2-2 3-1 4-1 1zm1 5l-1-1 1 1zm-1-2v-1h1l-1 1z"
    />
    <path fill="#3D4246" d="M1004 144l-1 3v-5l1-1v3z" />
    <path fill="#858E95" d="M1028 220v-44l1 2v41l-1 1z" />
    <path
      fill="#818A91"
      d="M1043 233l15-4 8-3 3-1v3l-9 3-17 3h-1-1l1-1h1zM1035 236l4-2h3v1h-1l-6 1z"
    />
    <path fill="#828B93" d="M1041 234h-2l3-1-1 1z" />
    <path fill="#818A91" d="M1035 237h-2l2-1v1z" />
    <path fill="#788187" d="M1033 237z" />
    <path
      fill="#676E74"
      d="M1061 235h-4-5l-3 1h-2l-2-1 3-1 15-2 6-2h4l14 1h80l12-1h3c3 2 5 2 8 2l11 2h5c1 0 2 0 2 2h-3l-12-1-11-1-2-1h-109l-2 1-8 1z"
    />
    <path fill="#595F65" d="M1069 234l2-1h109l2 1h-113z" />
    <path
      fill="#788187"
      d="M1069 231l-6 2-16 2-2 1h-1a2 2 0 00-2 0h-1a2 2 0 00-2 1h-1-2l-1-1 6-2 13-2 15-4v3z"
    />
    <path
      fill="#595F65"
      d="M1142 237h-48 48zm47 0h-44 44zm-7-3l11 1 15 1a1 1 0 012 0v1h-8l-9-1-10-1-1-1zm-121 1l8-1-8 1zm-17 1h3l-7 1v-1h4zm44 1h-7 7zm-39-1l3-1-3 1zm6-1h2-2z"
    />
    <path fill="#676E74" d="M1040 236v1h-1v-1h1zm-3 1v-1l1 1h-1z" />
    <path fill="#454A4D" d="M1206 237h4a2 2 0 013 0h-7z" />
    <path fill="#676E74" d="M1210 236l4 1h-4v-1z" />
    <path fill="#1F2325" d="M524 126h1-1z" />
    <path
      fill="#15234A"
      d="M771 161c-1 0-1 0 0 0-1 0-1 0 0 0zm0 0zm192-35l1 3-1 1-6-1H849l2-1h99l1-1a6 6 0 016 0c3 2 4 1 6-1z"
    />
    <path
      fill="#454A4D"
      d="M958 112l2-1v2l11 3-7 1v1l7 1v1l-8 2-1 2-1-4-1-2-1-2v-1 1a1 1 0 01-1-1v-3z"
    />
    <path fill="#595F65" d="M957 127h-14l-3-1 1-1h1l4-1 6 1h5v2z" />
    <path fill="#282E30" d="M958 115h2v3l2 2h-1l-3-5z" />
    <path fill="#1C2A57" d="M952 125h-5a1 1 0 010-1l5 1z" />
    <path fill="#101F40" d="M947 124v1h-5l5-1z" />
    <path
      fill="#1C2A57"
      d="M888 142h-4v-1a1 1 0 010-1l2-1 3-1h-1l-1-1c-1-1 0-2 1-2l2-1h10l7-1 2-1h54v9h-6l-9 1h-26a296 296 0 00-15 0h-19z"
    />
    <path
      fill="#1C2A57"
      fill-rule="evenodd"
      d="M909 182v-37-2h-1l-3-1H792l-37 1h-3v163a12 12 0 000 3h6l149-3a3 3 0 002-2l1-8-1-114zm-1-39h0zM963 173v84l-8 2h-44v-68-3l6-1h2c1 0 2 0 2-2h-7l-1 1h-1l-1-1v-5c1-1 2 0 2 1l1-1v1l1 1h1a1 1 0 01-1-1l1-1c4-1 4-1 4-5v-6-7c0-4-4-7-7-6a3 3 0 01-2-1v-2h8v-1l-8-1v-8h31v1h21v29zm0 0z"
      clip-rule="evenodd"
    />
    <path
      fill="#1C2A57"
      d="M962 261v19l1 2v2a5 5 0 010 4v14l-1 3v8h-8a2 2 0 00-2 0l-17-1-2 1a3 3 0 00-3 0h-1a5 5 0 00-4 0h-3a2 2 0 00-3 0l-5-1h-3v-4-46c0-2 0-1 2-1h49z"
    />
    <path fill="#595F65" d="M962 132h-53l-5 1h-10l-2-1v-1h68l2 1z" />
    <path fill="#141A1E" d="M963 130l1-1 1 2-1 1-1-1v-1z" />
    <path fill="#15234A" d="M963 131l1 1a1 1 0 01-1 0v-1z" />
    <path fill="#373C40" d="M142 153v-4c2 1 1 3 1 5l-1-1zm0-5v-5 5z" />
    <path fill="#595F65" d="M142 153l1 1v1h-1v-2z" />
    <path fill="#3D4246" d="M744 248h1-1z" />
    <path
      fill="#1C2A57"
      d="M892 132h17l-6 2-14 1-2 2 4 1v1l-5 1-2 1H754l-2-1 1-2v-6h139zm-140 8v-1 1z"
    />
    <path fill="#858E95" d="M595 107l-17-7-4-4 6 2 22 9v1h-6l-1-1z" />
    <path fill="#595F65" d="M595 107l1 1-10-1v-1l9 1z" />
    <path fill="#141A1E" d="M888 142h20v-1h14l3 1h-37z" />
    <path fill="#0D1933" d="M834 141h20l-2 1h-17l-1-1z" />
    <path
      fill="#141A1E"
      d="M963 132h1v8l-1 2h-15l5-1h10v-9zm-104 9l11 1 12-1 2 1h-22-1l-2-1z"
    />
    <path fill="#0D1933" d="M859 141l2 1-5-1h3z" />
    <path fill="#454A4D" d="M418 373l1 2h-51v-2l4-1 23-1 21 2h2z" />
    <path fill="#595F65" d="M423 380v1h-60l2-2 10-1h36c4 0 8 0 11 2h1z" />
    <path
      fill="#454A4D"
      d="M422 380c-15-3-31-1-47-1-3-1-7 0-10 1l-1 1a1 1 0 01-1 0 1 1 0 010-2 1 1 0 011 0l6-2h27l22 1 3 2z"
    />
    <path fill="#282E30" d="M444 360h2l-3 1H342v10l-2-3v-7l2-1h102z" />
    <path fill="#818A91" d="M363 381h62-63l1-9v9z" />
    <path
      fill="#595F65"
      d="M446 371l-2 2h-5l-9 1-4-1 2-2h18zm-84 2l-17-1-2-1h16l3 2z"
    />
    <path
      fill="#262B2D"
      d="M363 379v-7-2l3 1-1 3 1 1-2 4h-1zm62-7v8h-1l-2-4 1-2-1-3 3 1z"
    />
    <path fill="#727B80" d="M447 361l2 1 1 6-3 2v-9z" />
    <path fill="#3D4246" d="M444 360H342l2-1h75a774 774 0 0125 1z" />
    <path fill="#727B80" d="M426 373c7 0 14 0 20-2 0 2-1 4-3 4l-17 1v-3z" />
    <path fill="#818A91" d="M425 380v-5 6a1 1 0 010-1z" />
    <path fill="#373C40" d="M425 380v1l-1-1h1z" />
    <path
      fill="#858E95"
      d="M1028 364v-8l3-2h2l1-3c4 0 3-3 3-5l5 1c0-3-5-6 1-9l-2-9-1 2h-1l-1-10 2-10 3-6 9-7 5-6c0-3-3-8-7-9l-7-3-6-3-3-3h2l12 4c3 2 6 2 10 3l2 1 6 5c-2 3-1 6-2 9a4 4 0 01-1 2l-9 4-4 3-4 4a11 11 0 00-3 12l1 3 2 4c2 3 6 6 7 10l2 4 1 6a2 2 0 01-2 2l-3 2-4 3-8 2-8 4-1 1v2h-2z"
    />
    <path fill="#838C94" d="M1209 364h-170v-1h17l2-1h4l10 1h135l2 1z" />
    <path fill="#595F65" d="M1039 364h-7v-1h1c2-1 4-2 6-1v2z" />
    <path fill="#838C94" d="M1030 364a1 1 0 012 0h-2z" />
    <path
      fill="#788187"
      d="M1039 362l-7 1 1-2 11-2 11-3 3-1c4 1 6-1 9-2v-18l-6-3c-4-1-8-2-11-5l-5-8c-2-3 0-6 4-8l1 1a2 2 0 01-1 2c-1 2-2 4 0 6l1 2a5 5 0 003 3l12 2 3 1 1 3v1h1l14-1h2c5 1 10 0 15-1l4-1 14-2h17l9 2c6 2 11 2 17 2h18l2-3 7-2c4 0 7-1 10-3a1 1 0 011 0c1 2-1 4-3 5l-7 2-8 3v16c0 3 4 6 7 6l14 3 9 2 3 2-4 1-1-1h-2a2 2 0 00-2 0h-4l-1-1-5-1-13-1-3-3h-111c-1 3-5 3-8 3-5 1-11 1-16 3h-5-1zm143-78v17c-3 1-6 2-9 1h-30c-10 2-20 2-30 2l-13-2h-16l-15-2-1-1v-5-8-2-1h3l6-1 3-1 15 1 7-1h28l7 1 26-1c6 0 12-1 17 2l2 1z"
    />
    <path
      fill="#727B80"
      d="M1182 284l-10-2h-90l-7 1-6 1-1-1v-2c0-1-1-2 1-3l6-1h106c1-2 3-3 6-3a217 217 0 0120-1l4-1h5v2l-34 5v5z"
    />
    <path
      fill="#454A4D"
      d="M1039 364v-1l1-1 15-1h1l10-1h2v-1h114c1 2 2 1 4 1a30 30 0 008 1l6 1h9l1 1c1 0 2 0 1 1h-123l-24-1h-6l-2 1h-17z"
    />
    <path
      fill="#727B80"
      d="M1068 299l14 2h12l12 1 20 1 10-1 31-1 7 1 8-1v1a1 1 0 010 2l-10 1h-22l-9 1-10 1c-9 1-17 1-26-1s-19-1-29-1l-7-1-1-2v-3z"
    />
    <path
      fill="#595F65"
      d="M1200 323h-1c-3 2-7 3-10 3s-5 0-7 2h-32l-9-3-1-2h5l5 1h28c1 0 2 1 3-1l3-1a60 60 0 0111 0h2l2-2 1-7v-1l1 1c2 2 2 6 0 8l-1 2z"
    />
    <path
      fill="#788187"
      d="M1182 304v-2l14 4c1 1 3 1 3 4l-2-1-9-2-6-2v-1zm19 17v-8c3 1 2 4 2 6v2h-2z"
    />
    <path fill="#595F65" d="M1211 364l-1-1v-1h5v1h4l-1 1h-2a2 2 0 01-2 0h-3z" />
    <path fill="#454A4D" d="M1200 312c0 2-1 2-3 2l-1-1 2-2a2 2 0 011 0h1v1z" />
    <path fill="#595F65" d="M1220 272h-2a1 1 0 01-1 0h-1 4z" />
    <path fill="#727B80" d="M1217 272h1v1l-1-1z" />
    <path fill="#788187" d="M1199 310l1 1h-1v-1z" />
    <path fill="#727B80" d="M1218 363h-2l2-1v1z" />
    <path fill="#788187" d="M1218 363v-1 1zm0 1v-1h1v1h-1z" />
    <path fill="#595F65" d="M1199 311h1v1l-1-1z" />
    <path fill="#788187" d="M1215 363v-1 1z" />
    <path
      fill="#595F65"
      d="M1065 272h142c0 2-1 1-2 1l-11 1h-11c-1 2-4 1-6 1h-101c-2 0-4 2-7 1h-1l-1-2a227 227 0 00-27-1h-7l-1-1v-1l25 1h8z"
    />
    <path fill="#3D4246" d="M1182 272l-2 1h-109l-3-1h114z" />
    <path fill="#454A4D" d="M1207 272h-18-2 29-1l-3 1h-5v-1zm-25 0h4-4z" />
    <path fill="#727B80" d="M1032 271v1l-1 1-1-1 2-1z" />
    <path fill="#3D4246" d="M1068 272h-1 1z" />
    <path
      fill="#262B2D"
      d="M984 21c0-2 2-2 4-2h33v-1h-36 37v-2l6 1v1h16l1 2 3-2h2l-2 1h5l3-1h7c0 2-1 1-2 1l3-1h1l4 3v3l-5-1 2-1c-3 1-5 0-8-1h-1l-1 1h-1l-15-1h-1l-2-1-2 1h-36c-3 0-5 2-7 1l-8-1z"
    />
    <path fill="#595F65" d="M1048 9c4-1 9 0 9 2h-21l-1-1V9h13z" />
    <path fill="#373C40" d="M1011 34h32-32z" />
    <path fill="#595F65" d="M1063 9h6v1h-11V9h5z" />
    <path fill="#262B2D" d="M1044 18h-4v-3h4v1h-2v1h3l-1 1z" />
    <path fill="#788187" d="M1025 40v-2l1-3v16-9l-1-2z" />
    <path fill="#262B2D" d="M1036 10h11l-7 1-4-1z" />
    <path fill="#2E3436" d="M1045 15h3v1h-3v-1z" />
    <path fill="#454A4D" d="M1059 17h3-3zm-4-2h3-3z" />
    <path fill="#262B2D" d="M1061 10h6-6z" />
    <path fill="#595F65" d="M1064 18l-3 2v-1l2-1h1z" />
    <path fill="#454A4D" d="M1068 17h-2 2z" />
    <path fill="#676E74" d="M1053 19h1-3 2z" />
    <path fill="#B1BCC5" d="M1025 40l1 11v1h-41 40V40z" />
    <path
      fill="#595F65"
      d="M1011 9h23l1 1h-24V9zm-12 0h11l1 1-2 1h-12v-1h-3V9h4a1 1 0 001 0z"
    />
    <path fill="#89949A" d="M994 9l2 1-2 1h-9-1V9h10z" />
    <path fill="#2E3436" d="M1040 17h-12v-1h11v1h1z" />
    <path fill="#B1BCC5" d="M995 14h-5v-2l5 1v1z" />
    <path fill="#676E74" d="M988 15h-2v-3h2v3z" />
    <path fill="#788187" d="M1001 13l3-1v2l-3-1z" />
    <path fill="#B1BCC5" d="M1035 10h-1V9h2v1h-1z" />
    <path fill="#89949A" d="M998 14l-2-1 1-1 1 1v1zm3-1l-2 1v-1h2z" />
    <path fill="#262B2D" d="M998 11h3-3z" />
    <path fill="#B1BCC5" d="M1011 10h-1V9h1v1z" />
    <path fill="#595F65" d="M994 11l2-1-2 1z" />
    <path fill="#262B2D" d="M997 10zm-13 1h1-1z" />
    <path fill="#454A4D" d="M990 71h4v1h-4v-1z" />
    <path fill="#373C40" d="M996 69l1 1-1-1z" />
    <path fill="#676E74" d="M996 69l1 1h-1v-1z" />
    <path fill="#373C40" d="M998 70l1-1-1 1zm0 0z" />
    <path
      fill="#676E74"
      d="M1061 98v8c-23 2-46 2-70 0V94v-1-1-6l2-3a4 4 0 013 1v2c2 2 4 0 5 1h2l2 4v2h1l3 1v2l1 2-1 1v1l1 2a3 3 0 003 0v-2l1-1h-1v-3-2l-1-1 2-2c1-1 3-2 5 0l1 2 16-1 1-1 2-1h5l-1 2h-1v1l1 3h-3l2 1-1 2-1 1v2l1 1 1 1a5 5 0 004 1 5 5 0 003-4c0-2-2-3-4-3l-2-1v-1l4-3-1-2v-2a2 2 0 012-1l3 1 1 3v2l-1 2v2l1 1a2 2 0 001 0 3 3 0 002 0l1-3-2-2-1-2 2-1v-2l-2-1h-2v-1h5l1-3h2l2 3a3 3 0 010 2l-2 1h2v8 0z"
    />
    <path
      fill="#595F65"
      d="M1051 90l-3-1-1-1v2h-1-1v-1l-1 1h-4a1 1 0 00-1 0l-2 1-1-1h-17l-1 1-1-1-3 1h-1v-1-1l1-1h-1v-2l-1-2 1-1 2-1h1l3 2 1 3h16v-3l2-1h9l3 1 1 2v4z"
    />
    <path
      fill="#454A4D"
      d="M991 94v11l-1-4v-5l-1-4h-1l1-2c0-3-1-4-5-4l-2-1h3c6 0 6 0 6 5a1 1 0 010 1v3zm24-12v1h-1l-6 1h-2l-1 9v10l-1-13v-4l-1-3v-1h12z"
    />
    <path fill="#1F2325" d="M977 93l-1 2V85h1v8z" />
    <path fill="#B1BCC5" d="M996 84l-3-1 1-1 1 1h2a1 1 0 011 1 1 1 0 01-2 0z" />
    <path fill="#454A4D" d="M991 84v-2h2a1 1 0 010 1l-2 1z" />
    <path fill="#595F65" d="M991 84l2-1-2 3v-2z" />
    <path fill="#B1BCC5" d="M998 82h1l2 1v1h-3a1 1 0 010-2z" />
    <path fill="#454A4D" d="M997 83h-2l3-1v1h-1zm4 0l-2-1h3l-1 1z" />
    <path fill="#89949A" d="M1001 83l1-1h1v1l-2 1v-1z" />
    <path fill="#373C40" d="M991 91v-1 3-2z" />
    <path fill="#818A91" d="M997 83l1-1v2a1 1 0 01-1 0v-1z" />
    <path fill="#595F65" d="M993 83v-1h1l-1 1z" />
    <path fill="#454A4D" d="M984 55h41v12h-41V55z" />
    <path fill="#818A91" d="M1063 67h-36l-1-1h37a1 1 0 010 1z" />
    <path fill="#676E74" d="M1063 67v-1h5v1h-5z" />
    <path fill="#B1BCC5" d="M1023 9l1 1h-1l-2-1h2zm-24 0l-1 1-1-1h2z" />
    <path fill="#89949A" d="M1063 9v1l-1-1h1z" />
    <path fill="#B1BCC5" d="M1048 9l-1 1-1-1h2z" />
    <path fill="#788187" d="M1009 55l3 1-5 1 2-2z" />
    <path
      fill="#727B80"
      d="M1222 146h-160l-7-1h-1v-1h3l6-1c2 0 5 1 8-1h147l6-1v4l-2 1z"
    />
    <path fill="#676E74" d="M1202 196h-1l-1-1v-8h2a9 9 0 010 8v1z" />
    <path fill="#788187" d="M1202 195v-8l2 4c0 1 1 4-2 4z" />
    <path
      fill="#454A4D"
      d="M1201 187a1 1 0 01-1 0 1 1 0 01-1-1l1-1a1 1 0 011 1v1z"
    />
    <path fill="#788187" d="M1201 186l-1-1v-1l1 2z" />
    <path
      fill="#676E74"
      d="M851 112l1-1a1 1 0 011 0l5 1h69l3 1h-2a1 1 0 01-2 0h-80v-1h5z"
    />
    <path fill="#3D4246" d="M926 113h2v9h-1v-2l-1-7z" />
    <path fill="#282E30" d="M883 111l9-7 2 2-5 3a7 7 0 01-6 2z" />
    <path fill="#B1BCC5" d="M861 112h-8a1 1 0 010-1h8v1z" />
    <path fill="#595F65" d="M898 108h2l-1 2-1-2z" />
    <path fill="#B1BCC5" d="M851 112h-5l-2-1 7 1z" />
    <path fill="#262B2D" d="M946 106h-3v-1h3v1z" />
    <path
      fill="#676E74"
      d="M1041 131h2l14-1a1 1 0 002 0l-5-1-15-2c-6-1-12-1-18-4-2-2-6-2-9-2l-35-2-6-2h39l-5 1 3 1 23 2 14 4 15 3 12 2c-10 1-21 2-31 1z"
    />
    <path
      fill="#676E74"
      d="M967 132l-2-7c2-3 4-4 8-3h9l14 1 13 1 10 2v1l-3 1-15 1h-11v1l1 1h-14l-1-1v-1l28-2v-1l-4-1-19-2c-4 0-8-1-11 3l2 4-5 2zm26-1h12-12zm218 15l-1 1-17 1-10 1v4h-3l-30-1h-75l-6 2v-1l-1-3h-6l-16-1-11-2-2-1h11l18 1 8 1h109l4-1h2l16-1h10z"
    />
    <path
      fill="#454A4D"
      d="M1042 146h-4v-1a2 2 0 012 0 432 432 0 0115 0l163 1h2-5a5 5 0 01-3 0h-10l-14 1h-57l-57 1-14-1-16-1h-2z"
    />
    <path fill="#788187" d="M1033 146l5 1 25 2h6v4l-1 1-38-5-1 2v-6l4 1z" />
    <path fill="#676E74" d="M1055 145h-21l1-1h20v1zm16-2l-2 1h-12l5-1h9z" />
    <path fill="#454A4D" d="M965 131l-1-2 2-1-1 4v-1z" />
    <path fill="#141A1E" d="M601 119l-1 1v-1h1z" />
    <path fill="#3D4246" d="M569 100l1 1-1-1z" />
    <path fill="#595F65" d="M577 101h-2v-1l2 1z" />
    <path
      fill="#2E3436"
      d="M833 83l2 8v1l1 9a3 3 0 01-1 2l-1 7v2h-68V93h1l9 3h26c7 0 16 1 23-1l6-2 2-1v-2h-6v-1h-55l-1-4h61l1-2z"
    />
    <path fill="#262B2D" d="M831 93l-6 3-16 1h-22c-6 0-13 1-20-3v-1h64z" />
    <path fill="#818A91" d="M837 91l10-2h6l2 7c0 2-2 3-3 3l-11 3-3-9-1-2z" />
    <path fill="#676E74" d="M892 80v4l-18 4c-1-2-2-4-1-6l19-2z" />
    <path
      fill="#858E95"
      d="M873 82l1 6-11 3-2-1-1-2c0 1 2 2 1 4h-1a1 1 0 01-1-1l-1-5 8-2 7-2z"
    />
    <path fill="#676E74" d="M837 91l2 1 2 10-4 1-1-8-1-3v-1h2z" />
    <path fill="#454A4D" d="M835 92h1l1 11h-2V92z" />
    <path
      fill="#788187"
      d="M857 86c2 2 2 4 2 6l-1 1a1 1 0 00-1 0h-1l-1-5v-1l1-1h1z"
    />
    <path fill="#89949A" d="M855 88l1 5v2l-1 1-2-7 2-1z" />
    <path fill="#373C40" d="M881 106l-17 4 17-4z" />
    <path fill="#727B80" d="M861 92l-1-6 3 5-2 1zm-2 0l-2-6h1l2 6h-1z" />
    <path fill="#373C40" d="M881 106l3-1v1h-3z" />
    <path fill="#2E3436" d="M767 84h2-2zm86 27v1l-1-1h1z" />
    <path fill="#727B80" d="M857 93l1-1v1h-1z" />
    <path fill="#454A4D" d="M864 110l-1 1 1-1z" />
    <path fill="#282E30" d="M847 88l-10 1h-1l5-2h-4v-2l12-3 3 6-4 1-1-1z" />
    <path fill="#373C40" d="M847 88l1 1h-1v-1z" />
    <path fill="#727B80" d="M857 86h-1 1z" />
    <path
      fill="#89949A"
      d="M824 77l4 1 5 3a1 1 0 01-1 1h-2l-5 2h-16l-18-1h-23v-1l7-2h50l-1-1v-2z"
    />
    <path fill="#2E3436" d="M832 82v-1a1 1 0 010-1l1 2h-1z" />
    <path fill="#788187" d="M977 92v-1h1l-1 1z" />
    <path fill="#3D4246" d="M992 107l1 1-1-1z" />
    <path fill="#727B80" d="M832 80v1l-4-3 4 2z" />
    <path
      fill="#595F65"
      d="M577 101h1-1zm1 0c0 1 0 0 0 0zm3 2s-1 0 0 0c-1-1 0 0 0 0zm0 0zm2 1c0-1 0-1 0 0zm4 1h1v1l-1-1zm-4-1z"
    />
    <path fill="#3D4246" d="M1037 88h-18v-4h16c2 0 1 0 2 4z" />
    <path fill="#89949A" d="M1051 84h5v3h-6l1-3z" />
    <path fill="#2E3436" d="M1050 87h6v-3h1v3h-7zM1051 84l-1 3v-3h1z" />
    <path fill="#111717" d="M991 91v3l-1-3h1z" />
    <path fill="#595F65" d="M469 159v35l-2-10v-9l1-15 1-1z" />
    <path fill="#2E3436" d="M467 158l1-1-2 3 1-2z" />
    <path
      fill="#676E74"
      d="M281 162v2l1 5v24l-1 1a1 1 0 01-1 0 1 1 0 010-1v-29a2 2 0 010-2h1z"
    />
    <path
      fill="#3D4246"
      d="M280 162v2h-1l-4-7 5 2a3 3 0 010 3zm0 31v1a2 2 0 011 2l-1 1-5 2 4-6h1z"
    />
    <path fill="#595F65" d="M281 194v-30l1 2 1 12v11l-1 4c0 1 0 2-1 1z" />
    <path fill="#3D4246" d="M281 194l2-5v-6 12l-2 3-1-1 1-3z" />
    <path fill="#595F65" d="M280 162v-3l1-1v4h-1z" />
    <path
      fill="#3D4246"
      d="M425 332v-2l-2-1-1 4c1 2 3 3 2 5h-1l-8-4 4-3-8-2h-32l-9 1-3 1 4 3-7 2c-1-1 1-2 1-2l-1-3v-3a1 1 0 011-1l2-1a4 4 0 001-2 3 3 0 013-3l9-2 3-1a516 516 0 0127 1h31l2-1h2v1a1 1 0 011-1l1 8-1 3-5 1h-13c-1 0-2-1-2 1l-1 1z"
    />
    <path
      fill="#595F65"
      d="M340 318l2-1 5-2h90l6 1 1 1-3 1-5-1h-89l-5 1a2 2 0 01-2 0z"
    />
    <path fill="#454A4D" d="M342 318l4-1h98l1 1-3 1h-33l-25-1-39 1-3-1z" />
    <path
      fill="#282E30"
      d="M342 318h104v1a1 1 0 01-1 0h-36-63l-3 1-1 8-1 1-1-1c-2-3-1-6 0-9v-1h2z"
    />
    <path fill="#595F65" d="M425 331l1-2h20l-2 1-1 1h-16a2 2 0 01-2 0z" />
    <path
      fill="#676E74"
      d="M361 332l-18-1-1-1a2 2 0 011-1l16 1h2a2 2 0 010 2z"
    />
    <path fill="#595F65" d="M361 330h-19l-1-1v-1h20a1 1 0 011 2h-1z" />
    <path
      fill="#676E74"
      d="M425 331h17l-2 1h-15v-1zm-85-12v9l-2-4v-3l2-2zm1 9v1l-1-1h1zm102 3l1-1-1 1z"
    />
    <path fill="#1F2325" d="M424 337l-2-3v-6l3 2-1 9a1 1 0 010-2z" />
    <path fill="#595F65" d="M424 337v2h-59l-2-1v-1l13-2h35c4 0 8 0 12 2h1z" />
    <path fill="#454A4D" d="M363 338z" />
    <path
      fill="#262B2D"
      d="M363 338a203 203 0 000-10 2 2 0 012 0v3h-1l2 2-2 3-1 1v1z"
    />
    <path fill="#3D4246" d="M363 328v2h-1-1v-1a1 1 0 010-2l2 1z" />
    <path fill="#454A4D" d="M361 330h1l-1 2v-2z" />
    <path fill="#595F65" d="M440 197l-1-5v-31h1v8a2 2 0 011 2v13 4l-1 3v6z" />
    <path fill="#454A4D" d="M440 191v-22l1 2 1 9-1 9-1 2z" />
    <path
      fill="#727B80"
      d="M972 200l4 5 15-2 1 1v20l-1 21c-1 4-3 6-6 7l-7 2c-5 0-7-4-7-8l-2-27 1-16 2-3zm19-27h-8l-2-2-8 2-1-6c1-4 1-9 6-11 4-3 8-1 10 3 2 3 2 7 3 11v3z"
    />
    <path fill="#788187" d="M982 203h-6l-1-2v-24c0-2 1-4 3-4h5v24l-1 6z" />
    <path
      fill="#1F2325"
      d="M983 177v-3h6v2l-1 2-1 17 2 6-1 2h-6v-6l2-2v-16l-1-2z"
    />
    <path fill="#373C40" d="M989 201l-2-6v-18l2-1v25z" />
    <path
      fill="#282E30"
      d="M983 173c-8 0-8 0-8 8v19l1 4-2-3v-25c0-3 5-5 9-3z"
    />
    <path fill="#595F65" d="M965 210v-14l1 2v11l-1 1z" />
    <path
      fill="#3D4246"
      d="M1014 154l-4 1h2l1 1h-5l1 1v7l-3 1-2-2v-9l2 1v3c0-2 1-2 2-3l1-2c2-1 3 0 5 1z"
    />
    <path fill="#454A4D" d="M1006 158l-2-4v-2l3 3h1l-1 2v1h-1z" />
    <path fill="#858E95" d="M1069 215v5c-2-1-2-4 0-5z" />
    <path
      fill="#3D4246"
      d="M1008 190l-1 4h-1v-13-13l2-3 1 1-2 1 1 2v19l1 1v1h-1z"
    />
    <path
      fill="#2E3436"
      d="M1008 166v-1h4a2 2 0 012 0l1 1-2 2 2 1-1 1-6-2 1-1h3l-4-1zm0 87v-1l2-1 4 1v1h-6z"
    />
    <path fill="#262B2D" d="M1014 185l-5-1v-1l5 1v1z" />
    <path
      fill="#1F2325"
      d="M1009 187l5 1v1l-6-1 1-1zm0-13l5 1v1l-5-1v-1zm0 4l5 1v1l-6-1 1-1zm-1 12l1-1 5 1v1l-6-1zm6-3l-5-1v-1l5 1v1zm-5-11l5 1v1l-5-1v-1zm0 49l5 1v1l-6-1 1-1zm0-34l5 2v1l-5-2v-1zm1 59l-2-1 6 1v1l-4-1zm-1-2l-1-1 6 1v1l-5-1zm-1-6l6 2-6-1v-1zm6-71l-5-1h4l1 1h-1 1zm0-6h-2l-3-1v-1l5 2zm0 40l-6-1 1-1 5 1v1zm0-31l-5-2h4c1 0 2 1 1 2zm-5 62l5 1v1l-6-2h1zm5-40l-5-1v-1l5 1v1zm0 11l-6-1 1-1 5 1v1zm-5 0l5 1v1l-6-1 1-1zm5 9l-6-1 1-1 5 1v1zm0 2l-6-1 1-1 5 1v1zm-5 2l5 2-5-1v-1zm-1 25l6 1v1l-6-1v-1zm6-31l-5-2 5 1v1zm-5 4l5 1v1l-6-1 1-1zm5 22l-5-1v-1l5 1v1zm-5-42l5 1v1l-5-1v-1zm0 25l5 1v1l-5-2zm5 8l-5-1v-1l5 1v1zm-5 0l5 2-5-1v-1zm0-51l5 2-5-1v-1zm0 16l5 1v1l-5-1v-1zm5 7l-5-2v-1l5 2v1zm0 39l-5-1v-1l5 1v1zm0-13l-5-1v-1l5 1v1zm-5-20l5 1v1l-5-1v-1zm0 25l5 1v1l-5-2z"
    />
    <path fill="#2E3436" d="M1014 174l-1-2v-2h2l-1 4zm-7 77v-1 1z" />
    <path
      fill="#838C94"
      d="M1031 273l1-1h1l3 1 9 2 18 4 6 2v3l-1 2v16l-6 1-9 4c-2 0-3 2-3 4v1c-3 1-6 2-5 6l1 3 6 8 16 5v20l-11 2-5 2-9 1-10 3-1 1a2 2 0 01-2 0v-2l15-6 6-4 5-3-2-8-2-4-7-8c-3-3-4-11-2-14 3-7 8-11 15-14l6-3 1-10c-3-3-8-5-13-7l-16-5-2-1-1-1h-2z"
    />
    <path fill="#858E95" d="M1033 273v1-1z" />
    <path fill="#282E30" d="M1009 146l-1-2 7 2-2 1c-1 1-2 0-4-1z" />
    <path fill="#1F2325" d="M1012 156l-3-1v-1h5v2h-2z" />
    <path
      fill="#141A1E"
      d="M1014 148l1 1-5-1-1-1 4 1h1zm0 6l-5-1v-1l5 2zm0-3l-5-1v-1l5 2z"
    />
    <path fill="#454A4D" d="M1009 160h4v1l-4-1z" />
    <path fill="#373C40" d="M1014 148l-5-1v-1l4 1v1h1z" />
    <path fill="#454A4D" d="M1009 158v-1l3 1h-3z" />
    <path fill="#3D4246" d="M1009 160z" />
    <path fill="#727B80" d="M1069 228l17 1h82l12-1 2 1v2h-113v-3z" />
    <path fill="#676E74" d="M1044 236h-1v-1l1 1z" />
    <path
      fill="#3D4246"
      d="M1050 196v-2a9 9 0 010-7l1-1c3-2 6-2 9-2 7-1 14-2 21-1h17c4 0 7 0 10 3l1 1-49 1 8-1h33l6 1 5-1h74c1 2 2 5 1 6h-1l-1-3h-13v5h14a2 2 0 011 1v1h-1l-6 1h-107l-17-1h-2v-2-6l-1-1v8l-1 1a2 2 0 01-2-1z"
    />
    <path
      fill="#788187"
      fill-rule="evenodd"
      d="M1208 236h4l2 1h5l-1-1-9-2h-1l-3-1-7-2-11-2-4-1v-21a528 528 0 0110-3c5-2 8-4 9-8a1 1 0 00-1-1l-1 1a2 2 0 00-2 1h-4l-2 1h-5c-2 0-4 0-6 2h-27c-4 0-7-1-11-3h-36l-6 3h-11a113 113 0 00-20 0l-1-1-4-1a35 35 0 01-13-2h-1l-1-2-1-3v-1l1-2 2-2c17-3 35-4 53-2l4 3h-47l-4 1h137a106 106 0 011 0l1-1h-1l-6-1h-17l-31 1h-3l2-1 4-1 4-1h6l5-1h17c4 0 7 0 10 2h1a8 8 0 016 0h1l1-1 1 1a2 2 0 001-1h2v-1l-1-2-3-1h-2l-11-4v-21h2a145 145 0 0112-3h2l5-1 11-2 5-2 2-1a2 2 0 00-2-1h-4a4 4 0 01-4 1h-1l-9 1a282 282 0 00-15 1c-2 0-5 1-5 4h-2l-14-1h-24l-6 1a648 648 0 01-49 0h-11c-2 0-5 0-7 2v22l-1-2-4 1-7 3-6 4-2 3-2 2c-1 2-3 4-1 5l6 9 2 1 1 1 14 4v8a7 7 0 000 5v8c1 2 3 2 5 2h29a217 217 0 0027 0h39a116 116 0 0012-1l1 1v1l1 1h1l15 2 8 1 1 1zm-105-58h-2a307 307 0 012 0zm-34 2z"
      clip-rule="evenodd"
    />
    <path
      fill="#595F65"
      d="M1050 187v7l-2-3 2-4zm150 10h-4l2-2h1a2 2 0 011 1v1zm-3-13h2l1 1a3 3 0 01-3 0v-1z"
    />
    <path fill="#676E74" d="M1212 146h3-3zm-12 39l-1-1h1v1z" />
    <path fill="#454A4D" d="M1200 196l-1-1a1 1 0 011 0h1v1h-1z" />
    <path fill="#0D1933" d="M884 142l-2-1h2v1zm24-1v1-1z" />
    <path fill="#2E3436" d="M363 379h1l-1 2v-2z" />
    <path fill="#727B80" d="M1030 363h2v1h-2v-1z" />
    <path fill="#595F65" d="M1056 364l2-1-2 1z" />
    <path
      fill="#676E74"
      d="M1040 363h-1v-1h1v1zm100-40c3 2 7 4 10 4l14 1 6-1h11l1-1 17-3-6 3-11 2-1 3h-27l-15-3h-27l-18 4h-19l-7 1v-5c3-1 6-2 10-1h16c5 0 10-1 14-4h32zm54 38h-1l-9-1-2-1a2 2 0 00-2 0h-111l-1 1-10 1h-3l-9 1a2 2 0 01-2 0l3-1 9-2 11-1 2-4 5 1h19l23 1h19l15-1 9 1 18-1 4-1c0 5 3 4 5 5l12 1h2l2 1h-6-2z"
    />
    <path
      fill="#3D4246"
      d="M1050 322l-1-2a8 8 0 010-6l1-2 2-1h1l14-2h28c4-1 9 0 13 3l1 2h-4l-3-1h-47l-2 1 1 8h-4z"
    />
    <path fill="#676E74" d="M1050 322c4 2 8 2 12 2l6 1v3l-15-3-3-3z" />
    <path
      fill="#595F65"
      d="M1194 361h9l2 1h5v1l-13-1-3-1zm-150 1a154 154 0 0111-1l-9 1-6 1v-1h4z"
    />
    <path fill="#676E74" d="M1049 314v6l-1-3-1-2 2-1z" />
    <path fill="#595F65" d="M1052 311l-2 1v-1-1h1l1 1z" />
    <path
      fill="#676E74"
      d="M1044 362h-3 3zm161 0l-2-1 2 1zm3 0h-2 2zm2 1v-1 1zm-3-91v1l-1 1h-11l-13 1v3h-113l-1-1v-1h1l94-1h19l1-2h21l3-1z"
    />
    <path fill="#788187" d="M1068 277l1 2v2l-10-2-16-4-8-2h5l9 1 17 2 2 1z" />
    <path fill="#676E74" d="M1212 273l3-1-3 1z" />
    <path
      fill="#595F65"
      d="M1068 360v-2h113l1 1-7 1h-107zm114-1l10 1 1 1h-10l-1-2zm-126 2l5-1h7l-2 1h-10z"
    />
    <path
      fill="#676E74"
      d="M1182 304v1l5 2 8 1c1 1 2 1 1 2h-5l-4-1-6-1-3-1h-18l-15 1c-7 2-14 3-21 2h-11l-7-1c-5-2-9-2-14-2h-23l-1-3a1 1 0 011-1l9 1h23l14 3h13l6-1 18-2h30z"
    />
    <path
      fill="#788187"
      d="M1069 303l-1 1c-3 2-6 2-9 2l-7 4-1 1h-1c0-3 0-4 3-5l12-4h3l1 1z"
    />
    <path
      fill="#3D4246"
      d="M1140 323h-32l-3 1h-45l-4-1 1-9 2-1h72l11 1 3-1h37l3 1c0 2-1 2-2 2h-12l-1 5h13l1 2h-2l-3 1h-29l-5-1h-5z"
    />
    <path
      fill="#454A4D"
      d="M1184 323l-2-1h-13l1-7h15v-1h10v5l1-5h1a1 1 0 011 0c0 3 1 5-1 8l-3 1h-10zm-39 0h37l-1 2h-23l-11-1-2-1z"
    />
    <path fill="#818A91" d="M1197 322v-8-1l3-1v9l-3 1z" />
    <path fill="#727B80" d="M1196 310l-8-3h-6v-2l15 4v1a1 1 0 01-1 0z" />
    <path fill="#676E74" d="M1197 310v-1l2 1v1h-2v-1z" />
    <path
      fill="#3D4246"
      d="M1198 311l-2 2h-51v-1c-1-1 0-2 1-2l6-1h29l13 1 1 1h3z"
    />
    <path fill="#595F65" d="M1145 312l51 1h1v1l-1 3-1 5v-8h-49l-1-2z" />
    <path fill="#727B80" d="M1068 277l-15-2-11-1-2-1h7l11 1 9 1 2 1-1 1z" />
    <path fill="#676E74" d="M1069 276l-21-2-1-1h21l1 3zm-29-3h-4l-1-1 5 1z" />
    <path fill="#727B80" d="M1035 272l1 1h-1l-2-1h2z" />
    <path fill="#15234A" d="M1058 21h-2 2z" />
    <path fill="#595F65" d="M1039 20h-2 2z" />
    <path fill="#111717" d="M1023 18h3-3z" />
    <path fill="#727B80" d="M1059 19h-1 1z" />
    <path fill="#262B2D" d="M1063 23h-3 3z" />
    <path fill="#15234A" d="M1059 22l1-1v1h-1z" />
    <path fill="#788187" d="M1035 28v1-1z" />
    <path fill="#111717" d="M988 13v1-1zm-2 1v-1h1v1h-1z" />
    <path
      fill="#454A4D"
      d="M1019 90l1-1h15l2 1v1l-1 2h-14c-2 0-3 0-3-3zm18 5v3h-18v-3h18z"
    />
    <path
      fill="#595F65"
      d="M1005 93V83h3l1 1v4l-1 1h1v2c0 1 2 1 1 2a4 4 0 01-4 0h-1z"
    />
    <path
      fill="#3D4246"
      d="M1044 97l5 2c2 1 1 4-1 5-1 2-5 2-7 0s-2-4 0-6v-1h1v-1h1a1 1 0 011 1z"
    />
    <path fill="#454A4D" d="M1025 104v-4h12v4h-12z" />
    <path
      fill="#3D4246"
      d="M1010 98l-2-1 1-2c1-1 3-2 4-1l1 2-1 2h-3zM1013 100l1 2c-2 2-4 2-5-1v-1a3 3 0 014 0z"
    />
    <path fill="#595F65" d="M1001 84l2-1 1 2v5l-1-2-2-1v-1c0-1-2-1-1-2h1z" />
    <path fill="#3D4246" d="M1055 94c2 3 2 4 0 5-1 2-3 1-4 0v-4l1-1h3z" />
    <path fill="#373C40" d="M1000 84l1 2v1c-2 0-4 2-6-1l1-2h4z" />
    <path fill="#3D4246" d="M1043 95c-2-2-2-3 1-4h2c2 3 2 4-2 5l-1-1z" />
    <path fill="#2E3436" d="M1010 93l-2-1 1-3h4l1 2-2 2h-1-1z" />
    <path fill="#B1BCC5" d="M1000 98l3 1-1 1a7 7 0 01-6 0l-2-1v-1h6z" />
    <path fill="#2E3436" d="M1051 90v-1h4l2 2-4 2a1 1 0 01-1-1l-2-1 1-1z" />
    <path
      fill="#B1BCC5"
      d="M1010 93h2l4 1h-3l-4 1-3-1v-1h4zm3 7h-4l-2-1 3-1h3l3 1-3 1z"
    />
    <path fill="#3D4246" d="M996 100h6v4l-6-1 4-1-3-1-1 2v-3z" />
    <path
      fill="#B1BCC5"
      d="M1043 95l1 1v1h-1-4v-2h4zm3-4h-2l-5-1v-1h6l2 1-1 1zM1052 89h-1l-1-1h7l-2 1h-3zm0 3l1 1h2l1 1h-4v-2zm-52 2h-3v-2l3 2z"
    />
    <path fill="#454A4D" d="M997 97h3v1h-3v-1zm64 1v6h-1l1-6z" />
    <path fill="#595F65" d="M1060 88l-1-1 2 1h-1zm-11 4h-1 1z" />
    <path fill="#454A4D" d="M1059 91h1v1h-1v-1z" />
    <path fill="#141A1E" d="M991 93v-1 1z" />
    <path fill="#373C40" d="M1009 88l-1-2 1-2 1-1a2 2 0 012 1l2 2-1 2h-4z" />
    <path fill="#B1BCC5" d="M1009 88h7v1h-10v-1h3zm3-4h-3v-1h5l-2 1z" />
    <path fill="#727B80" d="M1045 89h-1 1z" />
    <path fill="#676E74" d="M1037 91v-1 1z" />
    <path fill="#141A1E" d="M991 91h-1 1z" />
    <path fill="#788187" d="M997 61h-9 9z" />
    <path fill="#676E74" d="M997 57l1 1h-2l-1-2h5v1h-3z" />
    <path fill="#818A91" d="M991 56l-5 1v-1h5v1-1z" />
    <path fill="#727B80" d="M1012 58h-5 5z" />
    <path fill="#828B93" d="M991 58l-5 1v-1l5-1v1z" />
    <path fill="#727B80" d="M1024 61h-5 5z" />
    <path fill="#788187" d="M1021 57h-4v-1h4v1zm-13 4h4v1l-4-1z" />
    <path fill="#727B80" d="M1002 61h2-2z" />
    <path fill="#788187" d="M1015 61h3-3z" />
    <path fill="#676E74" d="M998 61h2-2z" />
    <path fill="#89949A" d="M1008 61l-1 1v-1h1zm-22 1v-1h1v1h-1z" />
    <path fill="#727B80" d="M1014 61h-1 1z" />
    <path
      fill="#818A91"
      d="M1201 195l-2 1h-1v-8a1 1 0 011-1 2 2 0 011 0h1v8z"
    />
    <path
      fill="#3D4246"
      d="M1200 187h-2-1-55a9 9 0 016-3l10-1h22l7 1h1l6 1h6v2z"
    />
    <path
      fill="#595F65"
      d="M1042 146h28v1h110l24-1-2 1h-18l-1 2h-2l-35-1h-69l-34-1-1-1z"
    />
    <path fill="#141A1E" d="M844 86l5-1v1h-5zm-3 0h2v1h-2v-1z" />
    <path fill="#727B80" d="M830 82h-1v-1l1 1z" />
    <path fill="#595F65" d="M281 194l-1 3v-3h1z" />
    <path
      fill="#454A4D"
      d="M363 337l1-1 7-3-4-1-2-2 7-1h38l10 1 2 1-1 1-5 1 7 4c-5-2-11-1-17-2l-8 1-16-1c-6 1-12 0-18 2h-1zm0-9l-2-1v2h-17l-3-1 1-9h41l-3 1-10 1-2 7-3-1v1h-2zm45-9h36-35-1zm37 0h1v6h-1v-6z"
    />
    <path
      fill="#2E3436"
      d="M983 177l2 1v19h-2v-20zm29-21h2-2zm-6 2h1v1l-1-1z"
    />
    <path
      fill="#595F65"
      d="M1107 197l-3 3-35 1v-2h-3l-13-1-1-2a1 1 0 012 0l23 2h22l8-1zm87 0l-2 1h-9l-1 3h-5l-21-1-12-2-1-1 29 1 14-1a10 10 0 018 0z"
    />
    <path
      fill="#454A4D"
      d="M1194 197h-8v-2l-1-1h1v-1l1-3v-2h7l2-1h2v8l-2 2h-2z"
    />
    <path fill="#595F65" d="M1186 193v2h-15v-6h15v4z" />
    <path
      fill="#454A4D"
      d="M1054 196h-2l-1-9h5l-2 9zm133-12h-33c-4 0-8 0-12 3h-5l10-3v-1l19-1h13l7 2h1zm7 1l-6-1c2-1 4 0 6 1zm3 0h-2l1-1h1v1z"
    />
    <path
      fill="#595F65"
      d="M1196 311h-2l-9-1-28-1-10 1-2 1-6 2h3l3 1h-88l-2 1v6l2 2h1l17 1h16l17-1c-3 4-7 4-11 4l-17 1h-12v-2l-15-2-3-2h3l-1-9h53l3 1v-1c-2-1-4-4-8-3h-20l-4-1-21 2h-3c0-2 1-2 2-2l11-1 3-1v-1h24l14 2 16 1 6 1 14-1 14-3h25c4 4 10 2 15 4h1l1 1h-2z"
    />
    <path fill="#676E74" d="M1068 306v2l-14 2-2 1h-1v-1c2-2 5-3 8-3l6-1h3z" />
    <path fill="#727B80" d="M1068 306l-12 2-5 2 1-2 11-3 5-1v2z" />
    <path fill="#262B2D" d="M1057 323l-3-1v-8h3v9z" />
    <path fill="#2E3436" d="M1145 314h-3c0-2 1-3 3-2l1 2h-1z" />
    <path
      fill="#454A4D"
      d="M1145 312l-3 2h-5v-1l3-1c6-3 12-4 19-3h21l14 1v1l-36-1-12 1-1 1zm51-1h1-1z"
    />
    <path fill="#89949A" d="M1042 104c-1-2-2-4 0-5l6 1v4h-6z" />
    <path fill="#B1BCC5" d="M1042 104h5-5z" />
    <path fill="#676E74" d="M1001 87v-1l1 1h-1zM997 85h3v1h-3v-1z" />
    <path fill="#89949A" d="M1042 93h4l1 1-2 1-3-1v-1z" />
    <path fill="#676E74" d="M1052 90h3v1h-3v-1zm0-1h3-3z" />
    <path fill="#595F65" d="M1197 187z" />
    <path fill="#3D4246" d="M1110 313h1v1h-1v-1z" />
  </g>
  <defs>
    <clipPath id="clip0"><path fill="#fff" d="M0 0h1280v380H0z" /></clipPath>
  </defs>
</svg>
